# This file uses centimeters as units for non-parametric coordinates.

mtllib Axe.mtl
g default
v 0.381947 1.065977 -0.499610
v 0.330776 1.256951 -0.499610
v 0.190974 1.396753 -0.499610
v -0.000000 1.447925 -0.499610
v -0.190974 1.396753 -0.499610
v -0.330776 1.256951 -0.499610
v -0.381947 1.065977 -0.499610
v -0.330776 0.875004 -0.499610
v -0.190974 0.735201 -0.499610
v 0.000000 0.684030 -0.499610
v 0.190974 0.735202 -0.499610
v 0.330776 0.875004 -0.499610
v 0.381947 1.065977 0.499610
v 0.330776 1.256951 0.499610
v 0.190974 1.396753 0.499610
v -0.000000 1.447925 0.499610
v -0.190974 1.396753 0.499610
v -0.330776 1.256951 0.499610
v -0.381947 1.065977 0.499610
v -0.330776 0.875004 0.499610
v -0.190974 0.735201 0.499610
v 0.000000 0.684030 0.499610
v 0.190974 0.735202 0.499610
v 0.330776 0.875004 0.499610
v 0.578708 1.065977 0.499610
v 0.501176 1.355331 0.499610
v 0.289354 1.567153 0.499610
v 0.000000 1.644685 0.499610
v -0.289354 1.567153 0.499610
v -0.501176 1.355331 0.499610
v -0.578708 1.065977 0.499610
v -0.501176 0.776623 0.499610
v -0.289354 0.564802 0.499610
v 0.000000 0.487270 0.499610
v 0.289354 0.564802 0.499610
v 0.501176 0.776623 0.499610
v 0.578708 1.065977 -0.499610
v 0.501176 1.355331 -0.499610
v 0.289354 1.567153 -0.499610
v 0.000000 1.644685 -0.499610
v -0.289354 1.567153 -0.499610
v -0.501176 1.355331 -0.499610
v -0.578708 1.065977 -0.499610
v -0.501176 0.776623 -0.499610
v -0.289354 0.564802 -0.499610
v 0.000000 0.487270 -0.499610
v 0.289354 0.564802 -0.499610
v 0.501176 0.776623 -0.499610
v 3.948727 1.065978 1.402433
v 3.948722 1.089346 1.402433
v 3.948727 1.065978 -1.402433
v 3.948722 1.089346 -1.402433
v 3.948716 1.101250 1.402433
v 3.948716 1.101250 -1.402433
v 3.948717 1.030706 1.402433
v 3.948722 1.042609 1.402433
v 3.948717 1.030706 -1.402433
v 3.948722 1.042609 -1.402433
v 2.191377 1.065977 0.951022
v 2.191376 0.906797 0.951022
v 2.191375 0.794929 0.951022
v 2.191375 0.794929 -0.951022
v 2.191376 0.906797 -0.951022
v 2.191377 1.065977 -0.951022
v 2.191376 1.225158 -0.951022
v 2.191375 1.337026 -0.951022
v 2.191375 1.337026 0.951022
v 2.191376 1.225158 0.951022
v 1.385042 1.065977 0.725316
v 1.346276 0.841710 0.725316
v 1.240365 0.679865 0.725316
v 1.240365 0.679865 -0.725316
v 1.346276 0.841710 -0.725316
v 1.385042 1.065977 -0.725316
v 1.346276 1.290245 -0.725316
v 1.240365 1.452090 -0.725316
v 1.240365 1.452090 0.725316
v 1.346276 1.290245 0.725316
vt 0.799245 0.811899
vt 0.799101 0.776923
vt 0.901478 0.776501
vt 0.901622 0.811477
vt 0.798957 0.741946
vt 0.901334 0.741525
vt 0.799389 0.846875
vt 0.901766 0.846453
vt 0.798813 0.706970
vt 0.901190 0.706549
vt 0.795014 0.776492
vt 0.795586 0.811464
vt 0.693222 0.813138
vt 0.692650 0.778166
vt 0.796157 0.846436
vt 0.693793 0.848109
vt 0.794442 0.741521
vt 0.692078 0.743194
vt 0.793870 0.706549
vt 0.691506 0.708223
vt 0.983944 0.993929
vt 0.979810 0.993929
vt 0.979810 0.706549
vt 0.983944 0.706549
vt 0.975676 0.993929
vt 0.975676 0.706549
vt 0.986050 0.993929
vt 0.986050 0.706549
vt 0.973570 0.993929
vt 0.973570 0.706549
vt 0.689295 0.812502
vt 0.690671 0.865479
vt 0.588328 0.868137
vt 0.586951 0.815161
vt 0.692047 0.918455
vt 0.589704 0.921114
vt 0.687918 0.759526
vt 0.585575 0.762184
vt 0.686542 0.706549
vt 0.584199 0.709207
vt 0.938030 0.706732
vt 0.973006 0.706549
vt 0.973542 0.808925
vt 0.938566 0.809108
vt 0.903054 0.706915
vt 0.903590 0.809291
vt 0.938031 0.911717
vt 0.903054 0.911668
vt 0.903197 0.809291
vt 0.938174 0.809340
vt 0.973007 0.911766
vt 0.973150 0.809389
vt 0.422537 0.207420
vt 0.422539 0.247885
vt 0.344367 0.247887
vt 0.344366 0.207423
vt 0.440200 0.377283
vt 0.326714 0.377287
vt 0.422536 0.166955
vt 0.344364 0.166958
vt 0.457862 0.506681
vt 0.309060 0.506686
vt 0.493185 0.746188
vt 0.273753 0.746195
vt 0.564277 0.551657
vt 0.564272 0.592122
vt 0.486101 0.592113
vt 0.486106 0.551648
vt 0.564282 0.511193
vt 0.486110 0.511184
vt 0.468468 0.381782
vt 0.581954 0.381796
vt 0.450825 0.252381
vt 0.599627 0.252399
vt 0.415538 0.012869
vt 0.634970 0.012895
vt 0.351352 0.915526
vt 0.310160 0.915274
vt 0.104439 0.620871
vt 0.155658 0.634454
vt 0.269021 0.917175
vt 0.053200 0.634379
vt 0.104545 0.476359
vt 0.144233 0.483159
vt 0.392482 0.917905
vt 0.193569 0.671485
vt 0.228060 0.921265
vt 0.224549 0.886647
vt 0.064847 0.483101
vt 0.104651 0.331851
vt 0.132811 0.331872
vt 0.172999 0.501691
vt 0.433454 0.922373
vt 0.438970 0.888076
vt 0.187461 0.927640
vt 0.181786 0.893188
vt 0.036054 0.501591
vt 0.076491 0.331830
vt 0.104881 0.017542
vt 0.109015 0.017546
vt 0.152600 0.331885
vt 0.474190 0.928840
vt 0.481271 0.894870
vt 0.147669 0.936666
vt 0.138669 0.902385
vt 0.056702 0.331815
vt 0.100747 0.017540
vt 0.111121 0.017549
vt 0.514564 0.936995
vt 0.523411 0.903480
vt 0.110405 0.949865
vt 0.093477 0.916829
vt 0.098641 0.017540
vt 0.554793 0.943121
vt 0.567993 0.914581
vt 0.287246 0.042721
vt 0.236244 0.057099
vt 0.299680 0.825642
vt 0.258533 0.827391
vt 0.278175 0.194175
vt 0.238597 0.201592
vt 0.184801 0.044389
vt 0.340870 0.826047
vt 0.214175 0.796699
vt 0.217558 0.831330
vt 0.306649 0.175198
vt 0.269106 0.345622
vt 0.240950 0.346081
vt 0.198799 0.195468
vt 0.146266 0.008009
vt 0.381991 0.828579
vt 0.171388 0.803081
vt 0.176935 0.837554
vt 0.288893 0.345301
vt 0.250201 0.660280
vt 0.246067 0.660348
vt 0.212794 0.346539
vt 0.169722 0.177428
vt 0.428589 0.798922
vt 0.422946 0.833199
vt 0.128237 0.812119
vt 0.137110 0.846432
vt 0.252306 0.660244
vt 0.241934 0.660414
vt 0.193007 0.346862
vt 0.470864 0.805873
vt 0.463658 0.839816
vt 0.082992 0.826395
vt 0.099798 0.859493
vt 0.239828 0.660447
vt 0.512973 0.814638
vt 0.504001 0.848121
vt 0.041705 0.861473
vt 0.544208 0.854395
vt 0.343035 0.791362
vt 0.300040 0.790887
vt 0.385928 0.794053
vt 0.257057 0.792656
vt 0.324577 0.005105
vt 0.267415 0.882445
vt 0.310391 0.880517
vt 0.015235 0.671354
vt 0.353388 0.880832
vt 0.396292 0.883365
vt 0.557513 0.825905
vt 0.071570 0.881168
vt 0.082257 0.971644
vt 0.052320 0.952060
vn -0.965926 -0.258819 0.000000
vn -0.965926 -0.258819 0.000000
vn -0.965926 -0.258819 0.000000
vn -0.965926 -0.258819 0.000000
vn -0.707107 -0.707107 0.000000
vn -0.707107 -0.707107 0.000000
vn -0.707107 -0.707107 0.000000
vn -0.707107 -0.707107 0.000000
vn -0.258820 -0.965926 0.000000
vn -0.258820 -0.965926 0.000000
vn -0.258820 -0.965926 0.000000
vn -0.258820 -0.965926 0.000000
vn 0.258820 -0.965926 0.000000
vn 0.258820 -0.965926 0.000000
vn 0.258820 -0.965926 0.000000
vn 0.258820 -0.965926 0.000000
vn 0.707107 -0.707107 0.000000
vn 0.707107 -0.707107 0.000000
vn 0.707107 -0.707107 0.000000
vn 0.707107 -0.707107 0.000000
vn 0.965926 -0.258819 0.000000
vn 0.965926 -0.258819 0.000000
vn 0.965926 -0.258819 0.000000
vn 0.965926 -0.258819 0.000000
vn 0.965926 0.258819 0.000000
vn 0.965926 0.258819 0.000000
vn 0.965926 0.258819 0.000000
vn 0.965926 0.258819 0.000000
vn 0.707107 0.707107 0.000000
vn 0.707107 0.707107 0.000000
vn 0.707107 0.707107 0.000000
vn 0.707107 0.707107 0.000000
vn 0.258818 0.965926 0.000000
vn 0.258818 0.965926 0.000000
vn 0.258818 0.965926 0.000000
vn 0.258818 0.965926 0.000000
vn -0.258819 0.965926 0.000000
vn -0.258819 0.965926 0.000000
vn -0.258819 0.965926 0.000000
vn -0.258819 0.965926 0.000000
vn -0.707107 0.707107 0.000000
vn -0.707107 0.707107 0.000000
vn -0.707107 0.707107 0.000000
vn -0.707107 0.707107 0.000000
vn -0.965926 0.258819 0.000000
vn -0.965926 0.258819 0.000000
vn -0.965926 0.258819 0.000000
vn -0.965926 0.258819 0.000000
vn 0.000000 0.000000 1.000000
vn 0.000000 0.000000 1.000000
vn -0.231144 0.000000 0.972920
vn -0.222276 -0.131792 0.966036
vn 0.000000 0.000000 1.000000
vn -0.123721 -0.105202 0.986725
vn 0.000000 0.000000 1.000000
vn 0.000000 0.000000 1.000000
vn 0.000000 0.000000 1.000000
vn 0.000000 0.000000 1.000000
vn 0.000000 0.000000 1.000000
vn 0.000000 0.000000 1.000000
vn 0.000000 0.000000 1.000000
vn 0.000000 0.000000 1.000000
vn 0.000000 0.000000 1.000000
vn 0.000000 0.000000 1.000000
vn 0.000000 0.000000 1.000000
vn 0.000000 0.000000 1.000000
vn 0.000000 0.000000 1.000000
vn 0.000000 0.000000 1.000000
vn 0.000000 0.000000 1.000000
vn -0.123721 0.105202 0.986725
vn 0.000000 0.000000 1.000000
vn -0.222276 0.131792 0.966035
vn 1.000000 0.000185 0.000000
vn 1.000000 0.000185 0.000000
vn 1.000000 0.000185 0.000000
vn 1.000000 0.000185 0.000000
vn 1.000000 0.000496 0.000000
vn 1.000000 0.000496 0.000000
vn 1.000000 0.000496 0.000000
vn 1.000000 0.000496 0.000000
vn 0.258819 0.965926 0.000000
vn 0.258819 0.965926 0.000000
vn 0.258819 0.965926 0.000000
vn 0.258819 0.965926 0.000000
vn -0.258819 0.965926 0.000000
vn -0.258819 0.965926 0.000000
vn -0.258819 0.965926 0.000000
vn -0.258819 0.965926 0.000000
vn -0.707107 0.707107 0.000000
vn -0.707107 0.707107 0.000000
vn -0.707107 0.707107 0.000000
vn -0.707107 0.707107 0.000000
vn -0.965926 0.258819 0.000000
vn -0.965926 0.258819 0.000000
vn -0.965926 0.258819 0.000000
vn -0.965926 0.258819 0.000000
vn -0.965926 -0.258819 0.000000
vn -0.965926 -0.258819 0.000000
vn -0.965926 -0.258819 0.000000
vn -0.965926 -0.258819 0.000000
vn -0.707107 -0.707107 0.000000
vn -0.707107 -0.707107 0.000000
vn -0.707107 -0.707107 0.000000
vn -0.707107 -0.707107 0.000000
vn -0.258819 -0.965926 0.000000
vn -0.258819 -0.965926 0.000000
vn -0.258819 -0.965926 0.000000
vn -0.258819 -0.965926 0.000000
vn 0.258819 -0.965926 0.000000
vn 0.258819 -0.965926 0.000000
vn 0.258819 -0.965926 0.000000
vn 0.258819 -0.965926 0.000000
vn 1.000000 -0.000462 0.000000
vn 1.000000 -0.000462 0.000000
vn 1.000000 -0.000462 0.000000
vn 1.000000 -0.000462 0.000000
vn 1.000000 -0.000185 0.000000
vn 1.000000 -0.000185 0.000000
vn 1.000000 -0.000185 0.000000
vn 1.000000 -0.000185 0.000000
vn -0.222276 -0.131792 -0.966035
vn -0.231144 0.000000 -0.972920
vn 0.000000 0.000000 -1.000000
vn 0.000000 0.000000 -1.000000
vn -0.123721 -0.105202 -0.986725
vn 0.000000 0.000000 -1.000000
vn 0.000000 0.000000 -1.000000
vn 0.000000 0.000000 -1.000000
vn 0.000000 0.000000 -1.000000
vn 0.000000 0.000000 -1.000000
vn 0.000000 0.000000 -1.000000
vn 0.000000 0.000000 -1.000000
vn 0.000000 0.000000 -1.000000
vn 0.000000 0.000000 -1.000000
vn 0.000000 0.000000 -1.000000
vn 0.000000 0.000000 -1.000000
vn 0.000000 0.000000 -1.000000
vn 0.000000 0.000000 -1.000000
vn 0.000000 0.000000 -1.000000
vn 0.000000 0.000000 -1.000000
vn -0.123721 0.105202 -0.986725
vn 0.000000 0.000000 -1.000000
vn -0.222276 0.131792 -0.966035
vn 0.000000 0.000000 -1.000000
vn -0.254390 -0.028348 0.966686
vn -0.256682 -0.000000 0.966496
vn -0.248794 -0.000000 0.968556
vn -0.248795 -0.000009 0.968556
vn -0.256682 -0.000000 -0.966496
vn -0.254390 -0.028348 -0.966686
vn -0.248795 -0.000009 -0.968556
vn -0.248794 -0.000000 -0.968556
vn -0.250760 -0.054828 0.966495
vn -0.248796 -0.000015 0.968556
vn -0.250760 -0.054828 -0.966495
vn -0.248796 -0.000015 -0.968556
vn 0.129847 0.991534 0.000000
vn 0.129847 0.991534 0.000000
vn 0.132975 0.991119 0.000000
vn 0.132975 0.991119 0.000000
vn -0.254390 0.028348 0.966686
vn -0.250760 0.054828 0.966495
vn -0.248796 0.000014 0.968556
vn -0.248795 0.000009 0.968556
vn 0.129847 -0.991534 0.000000
vn 0.129847 -0.991534 0.000000
vn 0.132975 -0.991119 0.000000
vn 0.132975 -0.991119 0.000000
vn -0.250760 0.054828 -0.966495
vn -0.254390 0.028348 -0.966686
vn -0.248795 0.000009 -0.968556
vn -0.248796 0.000014 -0.968556
vn -0.265288 -0.000000 0.964169
vn -0.261121 0.086296 0.961441
vn -0.257300 0.192385 0.946987
vn 0.120115 -0.992760 0.000000
vn 0.120115 -0.992760 0.000000
vn -0.257300 0.192385 -0.946987
vn -0.261121 0.086296 -0.961441
vn -0.265288 -0.000000 -0.964169
vn -0.261121 -0.086296 -0.961441
vn -0.257300 -0.192385 -0.946987
vn 0.120115 0.992760 0.000000
vn 0.120115 0.992760 0.000000
vn -0.257300 -0.192385 0.946987
vn -0.261121 -0.086296 0.961441
vn 0.120115 -0.992760 0.000000
vn 0.120115 -0.992760 0.000000
vn 0.120115 0.992760 0.000000
vn 0.120115 0.992760 0.000000
s off
g pPipe1 Axe
usemtl initialShadingGroup
f 2/1/1 1/2/2 13/3/3 14/4/4
f 3/7/5 2/1/6 14/4/7 15/8/8
f 4/41/9 3/42/10 15/43/11 16/44/12
f 5/45/13 4/41/14 16/44/15 17/46/16
f 6/12/17 5/15/18 17/16/19 18/13/20
f 7/11/21 6/12/22 18/13/23 19/14/24
f 8/17/25 7/11/26 19/14/27 20/18/28
f 9/19/29 8/17/30 20/18/31 21/20/32
f 10/47/33 9/48/34 21/49/35 22/50/36
f 11/51/37 10/47/38 22/50/39 23/52/40
f 12/5/41 11/9/42 23/10/43 24/6/44
f 1/2/45 12/5/46 24/6/47 13/3/48
s 1
f 14/77/49 13/78/50 25/161/51 26/163/52
f 15/85/53 14/77/49 26/163/52 27/164/54
f 16/93/55 15/85/53 27/164/54 28/94/56
f 17/102/57 16/93/55 28/94/56 29/103/58
f 18/109/59 17/102/57 29/103/58 30/110/60
f 19/114/61 18/109/59 30/110/60 31/115/62
f 20/111/63 19/167/61 31/168/62 32/112/64
f 21/104/65 20/111/63 32/112/64 33/105/66
f 22/95/67 21/104/65 33/105/66 34/96/68
f 23/87/69 22/95/67 34/96/68 35/88/70
f 24/81/71 23/87/69 35/88/70 36/160/72
f 13/78/50 24/81/71 36/160/72 25/161/51
s off
f 50/21/73 49/22/74 51/23/75 52/24/76
f 53/27/77 50/21/78 52/24/79 54/28/80
f 28/53/81 27/54/82 39/55/83 40/56/84
f 29/59/85 28/53/86 40/56/87 41/60/88
f 30/32/89 29/35/90 41/36/91 42/33/92
f 31/31/93 30/32/94 42/33/95 43/34/96
f 32/37/97 31/31/98 43/34/99 44/38/100
f 33/39/101 32/37/102 44/38/103 45/40/104
f 34/65/105 33/66/106 45/67/107 46/68/108
f 35/69/109 34/65/110 46/68/111 47/70/112
f 56/25/113 55/29/114 57/30/115 58/26/116
f 49/22/117 56/25/118 58/26/119 51/23/120
s 2
f 38/158/121 37/156/122 1/118/123 2/119/124
f 39/124/125 38/158/121 2/119/124 3/125/126
f 40/132/127 39/124/125 3/125/126 4/133/128
f 41/141/129 40/132/127 4/133/128 5/142/130
f 42/148/131 41/141/129 5/142/130 6/149/132
f 43/153/133 42/148/131 6/149/132 7/166/134
f 44/151/135 43/165/133 7/154/134 8/152/136
f 45/146/137 44/151/135 8/152/136 9/147/138
f 46/139/139 45/146/137 9/147/138 10/140/140
f 47/157/141 46/139/139 10/140/140 11/131/142
f 48/155/143 47/157/141 11/131/142 12/123/144
f 37/156/122 48/155/143 12/123/144 1/118/123
s 1
f 68/91/145 59/90/146 49/99/147 50/100/148
s 2
f 64/128/149 65/127/150 52/135/151 51/136/152
s 1
f 67/101/153 68/91/145 50/100/148 53/108/154
s 2
f 65/127/150 66/134/155 54/143/156 52/135/151
s 5
f 66/62/157 67/61/158 53/63/159 54/64/160
s 1
f 60/98/161 61/106/162 55/113/163 56/107/164
s 7
f 61/74/165 62/73/166 57/75/167 55/76/168
s 2
f 62/145/169 63/137/170 58/144/171 57/150/172
s 1
f 59/90/146 60/98/161 56/107/164 49/99/147
s 2
f 63/137/170 64/128/149 51/136/152 58/144/171
s 1
f 69/83/173 70/89/174 60/98/161 59/90/146
f 70/89/174 71/97/175 61/106/162 60/98/161
s 7
f 71/72/176 72/71/177 62/73/166 61/74/165
s 2
f 72/138/178 73/129/179 63/137/170 62/145/169
f 73/129/179 74/121/180 64/128/149 63/137/170
f 74/121/180 75/120/181 65/127/150 64/128/149
f 75/120/181 76/126/182 66/134/155 65/127/150
s 5
f 76/58/183 77/57/184 67/61/158 66/62/157
s 1
f 77/92/185 78/84/186 68/91/145 67/101/153
f 78/84/186 69/83/173 59/90/146 68/91/145
f 25/79/51 36/82/72 70/89/174 69/83/173
f 36/82/72 35/162/70 71/97/175 70/89/174
s 7
f 35/69/187 47/70/188 72/71/177 71/72/176
s 2
f 47/130/141 48/122/143 73/129/179 72/138/178
f 48/122/143 37/117/122 74/121/180 73/129/179
f 37/117/122 38/116/121 75/120/181 74/121/180
f 38/116/121 39/159/125 76/126/182 75/120/181
s 5
f 39/55/189 27/54/190 77/57/184 76/58/183
s 1
f 27/86/54 26/80/52 78/84/186 77/92/185
f 26/80/52 25/79/51 69/83/173 78/84/186
g default
v 0.275669 1.418312 -14.684437
v -0.072090 1.562359 -14.684437
v -0.419850 1.418312 -14.684437
v -0.563896 1.070553 -14.684437
v -0.419850 0.722794 -14.684437
v -0.072090 0.578747 -14.684437
v 0.275669 0.722794 -14.684437
v 0.419715 1.070553 -14.684437
v 0.256311 1.398954 1.435561
v -0.072090 1.534983 1.435561
v -0.400492 1.398954 1.435561
v -0.536520 1.070553 1.435561
v -0.400492 0.742151 1.435561
v -0.072090 0.606123 1.435561
v 0.256311 0.742151 1.435561
v 0.392340 1.070553 1.435561
v -0.072090 1.070553 -14.684437
v -0.072090 1.070553 1.435561
v -0.066457 1.336842 -10.560940
v -0.332746 1.447143 -10.560940
v -0.599036 1.336842 -10.560940
v -0.709337 1.070553 -10.560940
v -0.599036 0.804263 -10.560940
v -0.332746 0.693963 -10.560940
v -0.066457 0.804263 -10.560940
v 0.043844 1.070553 -10.560940
v 0.375987 1.336842 -4.562689
v 0.486288 1.070553 -4.562689
v 0.375987 0.804263 -4.562689
v 0.109697 0.693963 -4.562689
v -0.156592 0.804263 -4.562689
v -0.266893 1.070553 -4.562689
v -0.156592 1.336842 -4.562689
v 0.109697 1.447143 -4.562689
v 0.203596 1.296745 0.350591
v 0.297288 1.070553 0.350591
v 0.203596 0.844360 0.350591
v -0.022596 0.750668 0.350591
v -0.248789 0.844360 0.350591
v -0.342481 1.070553 0.350591
v -0.248789 1.296745 0.350591
v -0.022596 1.390437 0.350591
vt 0.798594 0.553794
vt 0.740218 0.529614
vt 0.681841 0.553794
vt 0.657660 0.612171
vt 0.681841 0.670547
vt 0.740218 0.694728
vt 0.798594 0.670547
vt 0.822775 0.612171
vt 0.658017 0.011126
vt 0.699353 0.011126
vt 0.740689 0.011126
vt 0.782025 0.011126
vt 0.823361 0.011126
vt 0.864697 0.011126
vt 0.906033 0.011126
vt 0.947369 0.011126
vt 0.988705 0.011126
vt 0.658017 0.508402
vt 0.699353 0.508402
vt 0.740689 0.508402
vt 0.782025 0.508402
vt 0.823361 0.508402
vt 0.864697 0.508402
vt 0.906033 0.508402
vt 0.947369 0.508402
vt 0.988705 0.508402
vt 0.970922 0.552257
vt 0.915794 0.529422
vt 0.860667 0.552257
vt 0.837833 0.607384
vt 0.860667 0.662511
vt 0.915794 0.685345
vt 0.970922 0.662511
vt 0.993756 0.607384
vt 0.740218 0.608868
vt 0.915794 0.604265
vt 0.988705 0.259764
vt 0.658017 0.259764
vt 0.699353 0.259764
vt 0.740689 0.259764
vt 0.782025 0.259764
vt 0.823361 0.259764
vt 0.864697 0.259764
vt 0.906033 0.259764
vt 0.947369 0.259764
vt 0.988705 0.384083
vt 0.658017 0.384083
vt 0.947369 0.384083
vt 0.906033 0.384083
vt 0.864697 0.384083
vt 0.823361 0.384083
vt 0.782025 0.384083
vt 0.740689 0.384083
vt 0.699353 0.384083
vt 0.988705 0.474554
vt 0.658017 0.474554
vt 0.947369 0.474554
vt 0.906033 0.474554
vt 0.864697 0.474554
vt 0.823361 0.474554
vt 0.782025 0.474554
vt 0.740689 0.474554
vt 0.699353 0.474554
vn 0.382678 0.923865 0.005524
vn 0.382650 0.923798 0.013258
vn 0.382665 0.923835 -0.009795
vn 0.382683 0.923878 -0.001610
vn -0.382633 0.923757 0.016251
vn -0.382637 0.923768 0.015552
vn -0.382624 0.923735 0.017674
vn -0.382649 0.923796 0.013419
vn -0.923678 0.382600 0.020863
vn -0.923661 0.382593 0.021735
vn -0.923315 0.382449 0.034964
vn -0.923405 0.382487 0.032049
vn -0.923661 -0.382593 0.021735
vn -0.923678 -0.382600 0.020863
vn -0.923405 -0.382487 0.032049
vn -0.923315 -0.382449 0.034964
vn -0.382637 -0.923768 0.015552
vn -0.382633 -0.923757 0.016251
vn -0.382649 -0.923796 0.013419
vn -0.382624 -0.923735 0.017674
vn 0.382650 -0.923798 0.013258
vn 0.382678 -0.923865 0.005524
vn 0.382683 -0.923878 -0.001610
vn 0.382665 -0.923835 -0.009795
vn 0.923870 -0.382679 0.004605
vn 0.923879 -0.382683 -0.000419
vn 0.923660 -0.382593 -0.021792
vn 0.923550 -0.382547 -0.026686
vn 0.923879 0.382684 -0.000419
vn 0.923870 0.382679 0.004605
vn 0.923550 0.382547 -0.026686
vn 0.923660 0.382593 -0.021792
vn 0.000000 -0.000000 -1.000000
vn 0.000000 -0.000000 -1.000000
vn 0.000000 -0.000000 -1.000000
vn 0.000000 -0.000000 -1.000000
vn 0.000000 -0.000000 -1.000000
vn 0.000000 -0.000000 -1.000000
vn 0.000000 -0.000000 -1.000000
vn 0.000000 -0.000000 -1.000000
vn 0.000000 -0.000000 -1.000000
vn 0.000000 0.000000 1.000000
vn 0.000000 0.000000 1.000000
vn 0.000000 0.000000 1.000000
vn 0.000000 0.000000 1.000000
vn 0.000000 0.000000 1.000000
vn 0.000000 0.000000 1.000000
vn 0.000000 0.000000 1.000000
vn 0.000000 0.000000 1.000000
vn 0.000000 0.000000 1.000000
vn 0.382206 0.922727 0.049942
vn 0.382206 0.922727 0.049942
vn -0.382683 0.923878 0.001624
vn -0.382683 0.923878 0.001624
vn -0.923389 0.382480 -0.032569
vn -0.923389 0.382480 -0.032569
vn -0.923389 -0.382480 -0.032569
vn -0.923389 -0.382480 -0.032569
vn -0.382683 -0.923878 0.001624
vn -0.382683 -0.923878 0.001624
vn 0.382206 -0.922727 0.049942
vn 0.382206 -0.922727 0.049942
vn 0.920621 -0.381334 0.083918
vn 0.920621 -0.381334 0.083918
vn 0.920621 0.381334 0.083918
vn 0.920621 0.381334 0.083918
vn 0.923872 0.382681 0.003930
vn 0.923820 0.382659 0.011343
vn 0.923820 -0.382659 0.011343
vn 0.923872 -0.382681 0.003930
vn 0.382683 -0.923880 0.000225
vn 0.382611 -0.923704 -0.019491
vn -0.382589 -0.923653 -0.022160
vn -0.382315 -0.922991 -0.043849
vn -0.923027 -0.382330 -0.042943
vn -0.922631 -0.382166 -0.051975
vn -0.922631 0.382166 -0.051975
vn -0.923027 0.382330 -0.042943
vn -0.382315 0.922991 -0.043849
vn -0.382589 0.923653 -0.022160
vn 0.382611 0.923704 -0.019491
vn 0.382683 0.923880 0.000225
vn 0.920868 0.381436 -0.080675
vn 0.920868 0.381436 -0.080675
vn 0.920868 -0.381436 -0.080675
vn 0.920868 -0.381436 -0.080675
vn 0.380566 -0.918768 -0.105042
vn 0.380566 -0.918768 -0.105042
vn -0.378959 -0.914888 -0.139173
vn -0.378959 -0.914888 -0.139173
vn -0.911521 -0.377564 -0.163019
vn -0.911521 -0.377564 -0.163019
vn -0.911521 0.377564 -0.163019
vn -0.911521 0.377564 -0.163019
vn -0.378959 0.914888 -0.139173
vn -0.378959 0.914888 -0.139173
vn 0.380566 0.918768 -0.105043
vn 0.380566 0.918768 -0.105043
s 1
g Axe pCylinder3
usemtl initialShadingGroup
f 97/206/191 98/207/192 112/222/193 105/215/194
s 2
f 98/207/195 99/208/196 111/221/197 112/222/198
s 3
f 99/208/199 100/209/200 110/220/201 111/221/202
s 4
f 100/209/203 101/210/204 109/219/205 110/220/206
s 5
f 101/210/207 102/211/208 108/218/209 109/219/210
s 6
f 102/211/211 103/212/212 107/217/213 108/218/214
s 7
f 103/212/215 104/213/216 106/216/217 107/217/218
s 8
f 104/213/219 97/205/220 105/214/221 106/216/222
s 9
f 80/170/223 79/169/224 95/203/225
f 81/171/226 80/170/223 95/203/225
f 82/172/227 81/171/226 95/203/225
f 83/173/228 82/172/227 95/203/225
f 84/174/229 83/173/228 95/203/225
f 85/175/230 84/174/229 95/203/225
f 86/176/231 85/175/230 95/203/225
f 79/169/224 86/176/231 95/203/225
s 10
f 87/201/232 88/200/233 96/204/234
f 88/200/233 89/199/235 96/204/234
f 89/199/235 90/198/236 96/204/234
f 90/198/236 91/197/237 96/204/234
f 91/197/237 92/196/238 96/204/234
f 92/196/238 93/195/239 96/204/234
f 93/195/239 94/202/240 96/204/234
f 94/202/240 87/201/232 96/204/234
s 1
f 79/177/241 80/178/242 98/207/192 97/206/191
s 2
f 80/178/243 81/179/244 99/208/196 98/207/195
s 3
f 81/179/245 82/180/246 100/209/200 99/208/199
s 4
f 82/180/247 83/181/248 101/210/204 100/209/203
s 5
f 83/181/249 84/182/250 102/211/208 101/210/207
s 6
f 84/182/251 85/183/252 103/212/212 102/211/211
s 7
f 85/183/253 86/184/254 104/213/216 103/212/215
s 8
f 86/184/255 79/185/256 97/205/220 104/213/219
f 106/216/222 105/214/221 113/223/257 114/225/258
s 7
f 107/217/218 106/216/217 114/225/259 115/226/260
s 6
f 108/218/214 107/217/213 115/226/261 116/227/262
s 5
f 109/219/210 108/218/209 116/227/263 117/228/264
s 4
f 110/220/206 109/219/205 117/228/265 118/229/266
s 3
f 111/221/202 110/220/201 118/229/267 119/230/268
s 2
f 112/222/198 111/221/197 119/230/269 120/231/270
s 1
f 105/215/194 112/222/193 120/231/271 113/224/272
s 8
f 114/225/258 113/223/257 87/194/273 94/193/274
s 7
f 115/226/260 114/225/259 94/193/275 93/192/276
s 6
f 116/227/262 115/226/261 93/192/277 92/191/278
s 5
f 117/228/264 116/227/263 92/191/279 91/190/280
s 4
f 118/229/266 117/228/265 91/190/281 90/189/282
s 3
f 119/230/268 118/229/267 90/189/283 89/188/284
s 2
f 120/231/270 119/230/269 89/188/285 88/187/286
s 1
f 113/224/272 120/231/271 88/187/287 87/186/288
