# This file uses centimeters as units for non-parametric coordinates.

mtllib Mattok.mtl
g default
v 0.380074 1.064116 -0.517993
v 0.268753 1.332868 -0.517993
v 0.000000 1.444189 -0.517993
v -0.268753 1.332868 -0.517993
v -0.380074 1.064116 -0.517993
v -0.268753 0.795363 -0.517993
v 0.000000 0.684042 -0.517993
v 0.268753 0.795363 -0.517993
v 0.380074 1.064116 0.517993
v 0.268753 1.332868 0.517993
v 0.000000 1.444189 0.517993
v -0.268753 1.332868 0.517993
v -0.380074 1.064116 0.517993
v -0.268753 0.795363 0.517993
v 0.000000 0.684042 0.517993
v 0.268753 0.795363 0.517993
v 0.500097 1.064116 0.517993
v 0.353622 1.417738 0.517993
v 0.000000 1.452615 0.517993
v -0.353622 1.417737 0.517993
v -0.500097 1.064116 0.517993
v -0.353622 0.710494 0.517993
v 0.000000 0.675616 0.517993
v 0.353622 0.710494 0.517993
v 0.500097 1.064116 -0.517993
v 0.353622 1.417738 -0.517993
v 0.000000 1.452615 -0.517993
v -0.353622 1.417738 -0.517993
v -0.500097 1.064116 -0.517993
v -0.353622 0.710494 -0.517993
v 0.000000 0.675616 -0.517993
v 0.353622 0.710494 -0.517993
v 0.500097 1.064116 0.314774
v 0.353622 0.710494 0.314774
v 0.000000 0.675616 0.314774
v -0.353622 0.710494 0.314774
v -0.500097 1.064116 0.314774
v -0.353622 1.417737 0.314774
v 0.000000 1.452615 0.314774
v 0.353622 1.417737 0.314774
v 3.583036 0.331414 -0.104229
v 3.583037 1.064116 -0.104229
v 3.583036 0.331414 -0.307448
v 3.583037 1.064116 -0.307448
v 3.583036 1.796817 -0.104229
v 3.583036 1.796817 -0.307448
v -4.193432 1.064116 -0.220851
v -4.193430 1.010797 -0.220851
v -4.193432 1.064116 -0.275872
v -4.193430 1.010797 -0.275872
v -4.193430 1.117435 -0.220851
v -4.193430 1.117435 -0.275872
v -2.007887 1.064116 0.252826
v -2.007886 1.278673 0.252826
v -2.007886 1.278673 0.144766
v -2.007887 1.064116 0.144766
v -2.007886 0.849559 0.144766
v -2.007886 0.849559 0.252826
v 1.648274 0.562136 0.320700
v 1.648274 0.562136 0.117481
v 1.648275 1.064116 0.117480
v 1.648274 1.566095 0.117480
v 1.648274 1.566095 0.320699
v 1.648275 1.064116 0.320699
vt 0.460059 0.744525
vt 0.424420 0.744525
vt 0.424420 0.607145
vt 0.460059 0.607145
vt 0.388781 0.744525
vt 0.388781 0.607145
vt 0.422701 0.755191
vt 0.458340 0.755191
vt 0.458340 0.892572
vt 0.422701 0.892572
vt 0.387062 0.755191
vt 0.387062 0.892572
vt 0.368380 0.983041
vt 0.321487 0.983041
vt 0.321487 0.872609
vt 0.368380 0.872609
vt 0.274593 0.983041
vt 0.274593 0.872609
vt 0.322513 0.757262
vt 0.369406 0.757262
vt 0.369406 0.867694
vt 0.322513 0.867694
vt 0.275620 0.757262
vt 0.275620 0.867694
vt 0.562557 0.863913
vt 0.562557 0.770522
vt 0.588459 0.770522
vt 0.588459 0.863913
vt 0.562557 0.957304
vt 0.588459 0.957304
vt 0.677063 0.000000
vt 0.677063 0.006796
vt 0.670050 0.006796
vt 0.670050 0.000000
vt 0.677063 0.013592
vt 0.670050 0.013592
vt 0.337873 0.606394
vt 0.373511 0.606394
vt 0.373511 0.743774
vt 0.337873 0.743774
vt 0.302234 0.606394
vt 0.302234 0.743774
vt 0.694944 0.732885
vt 0.659305 0.732885
vt 0.659305 0.595505
vt 0.694944 0.595505
vt 0.730583 0.732885
vt 0.730583 0.595505
vt 0.592077 0.457882
vt 0.592077 0.412692
vt 0.698498 0.412692
vt 0.698498 0.457882
vt 0.566107 0.457882
vt 0.566107 0.412692
vt 0.592077 0.503072
vt 0.698498 0.503072
vt 0.591320 0.247246
vt 0.617289 0.247246
vt 0.566107 0.503072
vt 0.645622 0.000000
vt 0.671592 0.000000
vt 0.613803 0.714472
vt 0.599993 0.714472
vt 0.667557 0.993766
vt 0.660525 0.993766
vt 0.812077 0.457882
vt 0.812077 0.503072
vt 0.705656 0.503072
vt 0.705656 0.457882
vt 0.838046 0.457882
vt 0.838046 0.503072
vt 0.812077 0.412692
vt 0.705656 0.412692
vt 0.804160 0.714473
vt 0.790351 0.714473
vt 0.838046 0.412692
vt 0.743628 0.993767
vt 0.736597 0.993767
vt 0.786864 0.247246
vt 0.812834 0.247246
vt 0.732562 0.000000
vt 0.758532 0.000000
vt 0.547118 0.426194
vt 0.512558 0.411879
vt 0.512558 0.396445
vt 0.558031 0.415280
vt 0.477998 0.426194
vt 0.467085 0.415280
vt 0.512558 0.248797
vt 0.577109 0.248797
vt 0.561433 0.460754
vt 0.562516 0.460754
vt 0.463683 0.460754
vt 0.462600 0.460754
vt 0.448007 0.248797
vt 0.512558 0.000000
vt 0.606778 0.000000
vt 0.547118 0.495313
vt 0.558031 0.506227
vt 0.477998 0.495313
vt 0.467085 0.506227
vt 0.418338 0.000000
vt 0.512558 0.509629
vt 0.512558 0.525063
vt 0.540149 0.718954
vt 0.512558 0.718954
vt 0.484968 0.718954
vt 0.519415 1.000000
vt 0.512558 1.000000
vt 0.505702 1.000000
vt 0.646113 0.242919
vt 0.691187 0.224249
vt 0.691187 0.239548
vt 0.656931 0.253737
vt 0.736260 0.242919
vt 0.725442 0.253737
vt 0.641668 0.287993
vt 0.642742 0.287993
vt 0.740706 0.287993
vt 0.739631 0.287993
vt 0.646113 0.333066
vt 0.656931 0.322248
vt 0.736260 0.333066
vt 0.725442 0.322248
vt 0.691187 0.351736
vt 0.691187 0.336437
vt 0.959818 0.276709
vt 0.895176 0.276709
vt 0.895176 0.027562
vt 0.989529 0.027562
vt 0.940713 0.443426
vt 0.895176 0.424564
vt 0.830534 0.276709
vt 0.800823 0.027562
vt 0.849639 0.443426
vt 0.901436 0.714000
vt 0.928937 0.714000
vt 0.908270 0.994131
vt 0.901436 0.994131
vt 0.901436 0.520739
vt 0.946761 0.501965
vt 0.873935 0.714000
vt 0.894601 0.994131
vt 0.856110 0.501965
vn -0.923880 -0.382683 0.000000
vn -0.923880 -0.382683 0.000000
vn -0.923880 -0.382683 0.000000
vn -0.923880 -0.382683 0.000000
vn -0.382683 -0.923880 0.000000
vn -0.382683 -0.923880 0.000000
vn -0.382683 -0.923880 0.000000
vn -0.382683 -0.923880 0.000000
vn 0.382683 -0.923880 0.000000
vn 0.382683 -0.923880 0.000000
vn 0.382683 -0.923880 0.000000
vn 0.382683 -0.923880 0.000000
vn 0.923880 -0.382683 0.000000
vn 0.923880 -0.382683 0.000000
vn 0.923880 -0.382683 0.000000
vn 0.923880 -0.382683 0.000000
vn 0.923880 0.382683 0.000000
vn 0.923880 0.382683 0.000000
vn 0.923880 0.382683 0.000000
vn 0.923880 0.382683 0.000000
vn 0.382684 0.923880 0.000000
vn 0.382684 0.923880 0.000000
vn 0.382684 0.923879 0.000000
vn 0.382684 0.923879 0.000000
vn -0.382684 0.923880 0.000000
vn -0.382684 0.923880 0.000000
vn -0.382684 0.923879 0.000000
vn -0.382684 0.923879 0.000000
vn -0.923880 0.382683 0.000000
vn -0.923880 0.382683 0.000000
vn -0.923880 0.382683 0.000000
vn -0.923880 0.382683 0.000000
vn 0.000000 0.000000 1.000000
vn 0.000000 0.000000 1.000000
vn 0.151566 0.000000 0.988447
vn 0.145448 0.024900 0.989053
vn 0.000000 0.000000 1.000000
vn 0.000000 0.000000 1.000000
vn 0.000000 -0.000000 1.000000
vn -0.149401 0.038515 0.988026
vn -0.000000 -0.000000 1.000000
vn -0.159402 -0.000000 0.987214
vn -0.000000 0.000000 1.000000
vn -0.149401 -0.038515 0.988026
vn -0.000000 0.000001 1.000000
vn -0.000000 0.000001 1.000000
vn -0.000000 0.000000 1.000000
vn 0.145447 -0.024900 0.989053
vn 0.923880 0.382683 0.000000
vn 0.923880 0.382683 0.000000
vn 0.923880 0.382683 0.000000
vn 0.923880 0.382683 0.000000
vn 0.098152 0.995171 0.000000
vn 0.098152 0.995171 0.000000
vn 0.098152 0.995171 0.000000
vn 0.098152 0.995171 0.000000
vn -0.098152 0.995171 0.000000
vn -0.098152 0.995171 0.000000
vn -0.098152 0.995171 0.000000
vn -0.098152 0.995171 0.000000
vn -0.923880 0.382683 0.000000
vn -0.923880 0.382683 0.000000
vn -0.923880 0.382683 0.000000
vn -0.923880 0.382683 0.000000
vn -0.923880 -0.382683 0.000000
vn -0.923880 -0.382683 0.000000
vn -0.923880 -0.382683 0.000000
vn -0.923880 -0.382683 0.000000
vn -0.098152 -0.995171 0.000000
vn -0.098152 -0.995171 0.000000
vn -0.098152 -0.995171 0.000000
vn -0.098152 -0.995171 0.000000
vn 0.098152 -0.995171 0.000000
vn 0.098152 -0.995171 0.000000
vn 0.098152 -0.995171 0.000000
vn 0.098152 -0.995171 0.000000
vn 0.923880 -0.382684 0.000000
vn 0.923880 -0.382684 0.000000
vn 0.923879 -0.382684 0.000000
vn 0.923880 -0.382684 0.000000
vn 0.000000 -0.000000 -1.000000
vn -0.000000 0.000000 -1.000000
vn -0.000000 0.000000 -1.000000
vn 0.000000 -0.000000 -1.000000
vn 0.000000 -0.000001 -1.000000
vn 0.000000 -0.000001 -1.000000
vn 0.000000 -0.000000 -1.000000
vn 0.000000 -0.000000 -1.000000
vn 0.000000 0.000000 -1.000000
vn 0.000000 0.000000 -1.000000
vn 0.000000 0.000000 -1.000000
vn 0.000000 0.000000 -1.000000
vn 0.000000 0.000001 -1.000000
vn 0.000000 0.000001 -1.000000
vn -0.000000 0.000000 -1.000000
vn -0.000000 0.000000 -1.000000
vn 1.000000 -0.000002 0.000000
vn 1.000000 -0.000002 0.000000
vn 1.000000 -0.000002 0.000000
vn 1.000000 -0.000002 0.000000
vn 0.098152 -0.995171 0.000000
vn 0.098152 -0.995171 0.000000
vn -0.098152 -0.995171 0.000000
vn -0.098152 -0.995171 0.000000
vn -1.000000 -0.000036 0.000000
vn -1.000000 -0.000036 0.000000
vn -1.000000 -0.000036 0.000000
vn -1.000000 -0.000036 0.000000
vn -1.000000 0.000036 0.000000
vn -1.000000 0.000036 0.000000
vn -1.000000 0.000036 0.000000
vn -1.000000 0.000036 0.000000
vn -0.098153 0.995171 0.000000
vn -0.098153 0.995171 0.000000
vn 0.098152 0.995171 0.000000
vn 0.098152 0.995171 0.000000
vn 1.000000 0.000002 0.000000
vn 1.000000 0.000002 0.000000
vn 1.000000 0.000002 0.000000
vn 1.000000 0.000002 0.000000
vn 0.197350 0.000000 0.980333
vn 0.199038 -0.007414 0.979964
vn 0.214515 0.000000 0.976721
vn 0.214515 0.000000 0.976721
vn -0.116317 -0.993212 0.000000
vn -0.116827 -0.993152 0.000000
vn -0.118412 -0.992965 0.000000
vn -0.118412 -0.992965 0.000000
vn -0.199038 0.007414 -0.979964
vn -0.197350 -0.000000 -0.980333
vn -0.214515 -0.000000 -0.976721
vn -0.214515 0.000000 -0.976721
vn 0.199038 0.007415 0.979964
vn 0.214516 0.000001 0.976721
vn -0.199038 -0.007415 -0.979964
vn -0.214516 -0.000001 -0.976721
vn -0.116827 0.993152 -0.000000
vn -0.116317 0.993212 -0.000000
vn -0.118412 0.992965 0.000000
vn -0.118412 0.992965 0.000000
vn -0.183988 -0.026900 0.982560
vn -0.185096 0.000000 0.982720
vn -0.211814 0.000000 0.977310
vn -0.211814 -0.000002 0.977310
vn 0.140607 0.000000 -0.990066
vn 0.138682 0.017384 -0.990184
vn 0.188995 0.000002 -0.981978
vn 0.188995 -0.000000 -0.981978
vn -0.079150 -0.996863 0.000000
vn -0.080182 -0.996780 0.000000
vn -0.073575 -0.997290 0.000000
vn -0.073575 -0.997290 0.000000
vn -0.183989 0.026900 0.982560
vn -0.211814 0.000003 0.977310
vn -0.080182 0.996780 0.000000
vn -0.079150 0.996863 0.000000
vn -0.073575 0.997290 0.000000
vn -0.073575 0.997290 0.000000
vn 0.138682 -0.017384 -0.990184
vn 0.188995 -0.000002 -0.981978
vn -0.083769 0.996485 0.000000
vn -0.083769 0.996485 0.000000
vn 0.108084 -0.027864 -0.993751
vn 0.108126 0.000000 -0.994137
vn 0.108084 0.027864 -0.993751
vn -0.083769 -0.996485 0.000000
vn -0.083769 -0.996485 0.000000
vn -0.113848 -0.993498 0.000000
vn -0.113848 -0.993498 0.000000
vn -0.157804 0.027015 -0.987101
vn -0.157862 -0.000000 -0.987461
vn -0.157804 -0.027016 -0.987101
vn -0.113848 0.993498 -0.000000
vn -0.113848 0.993498 -0.000000
s off
g pPipe2 MAttock
usemtl initialShadingGroup
f 2/1/1 1/2/2 9/3/3 10/4/4
f 3/37/5 2/38/6 10/39/7 11/40/8
f 4/41/9 3/37/10 11/40/11 12/42/12
f 5/7/13 4/8/14 12/9/15 13/10/16
f 6/11/17 5/7/18 13/10/19 14/12/20
f 7/43/21 6/44/22 14/45/23 15/46/24
f 8/47/25 7/43/26 15/46/27 16/48/28
f 1/2/29 8/5/30 16/6/31 9/3/32
s 1
f 10/83/33 9/84/34 17/85/35 18/86/36
f 11/91/37 10/83/33 18/86/36 19/92/38
f 12/98/39 11/91/37 19/92/38 20/99/40
f 13/103/41 12/98/39 20/99/40 21/104/42
f 14/100/43 13/103/41 21/104/42 22/101/44
f 15/93/45 14/100/43 22/101/44 23/94/46
f 16/87/47 15/93/45 23/94/46 24/88/48
f 9/84/34 16/87/47 24/88/48 17/85/35
s off
f 40/13/49 33/14/50 25/15/51 26/16/52
s 2
f 39/49/53 40/50/54 26/51/55 27/52/56
s 3
f 38/55/57 39/49/58 27/52/59 28/56/60
s off
f 37/19/61 38/20/62 28/21/63 29/22/64
f 36/23/65 37/19/66 29/22/67 30/24/68
s 4
f 35/66/69 36/67/70 30/68/71 31/69/72
s 5
f 34/72/73 35/66/74 31/69/75 32/73/76
s off
f 33/14/77 34/17/78 32/18/79 25/15/80
s 6
f 26/111/81 25/112/82 1/113/83 2/114/84
f 27/117/85 26/111/81 2/114/84 3/118/86
f 28/121/87 27/117/85 3/118/86 4/122/88
f 29/125/89 28/121/87 4/122/88 5/126/90
f 30/123/91 29/125/89 5/126/90 6/124/92
f 31/119/93 30/123/91 6/124/92 7/120/94
f 32/115/95 31/119/93 7/120/94 8/116/96
f 25/112/82 32/115/95 8/116/96 1/113/83
s off
f 42/25/97 41/26/98 43/27/99 44/28/100
s 5
f 24/76/101 23/70/102 35/66/74 34/72/73
s 4
f 23/70/103 22/71/104 36/67/70 35/66/69
s off
f 48/31/105 47/32/106 49/33/107 50/34/108
f 47/32/109 51/35/110 52/36/111 49/33/112
s 3
f 20/59/113 19/53/114 39/49/58 38/55/57
s 2
f 19/53/115 18/54/116 40/50/54 39/49/53
s off
f 45/29/117 42/25/118 44/28/119 46/30/120
s 1
f 64/89/121 59/95/122 41/102/123 42/96/124
s 7
f 59/80/125 60/79/126 43/81/127 41/82/128
s 8
f 60/127/129 61/128/130 44/129/131 43/130/132
s 1
f 63/90/133 64/89/121 42/96/124 45/97/134
s 8
f 61/128/130 62/133/135 46/134/136 44/129/131
s 9
f 62/58/137 63/57/138 45/60/139 46/61/140
s 1
f 58/107/141 53/106/142 47/109/143 48/110/144
s 10
f 56/136/145 57/137/146 50/138/147 49/139/148
s 11
f 57/75/149 58/74/150 48/77/151 50/78/152
s 1
f 53/106/142 54/105/153 51/108/154 47/109/143
s 12
f 54/63/155 55/62/156 52/64/157 51/65/158
s 10
f 55/142/159 56/136/145 49/139/148 52/143/160
s 1
f 21/104/42 20/99/40 54/105/153 53/106/142
s 12
f 20/59/161 38/55/162 55/62/156 54/63/155
s 10
f 38/144/163 37/140/164 56/136/145 55/142/159
f 37/140/164 36/141/165 57/137/146 56/136/145
s 11
f 36/67/166 22/71/167 58/74/150 57/75/149
s 1
f 22/101/44 21/104/42 53/106/142 58/107/141
s 7
f 24/76/168 34/72/169 60/79/126 59/80/125
s 8
f 34/131/170 33/132/171 61/128/130 60/127/129
f 33/132/171 40/135/172 62/133/135 61/128/130
s 9
f 40/50/173 18/54/174 63/57/138 62/58/137
s 1
f 18/86/36 17/85/35 64/89/121 63/90/133
f 17/85/35 24/88/48 59/95/122 64/89/121
g default
v 0.226616 1.336842 -14.684437
v -0.039673 1.447143 -14.684437
v -0.305963 1.336842 -14.684437
v -0.416264 1.070553 -14.684437
v -0.305963 0.804263 -14.684437
v -0.039673 0.693963 -14.684437
v 0.226616 0.804263 -14.684437
v 0.336917 1.070553 -14.684437
v 0.226616 1.336842 1.435561
v -0.039673 1.447143 1.435561
v -0.305963 1.336842 1.435561
v -0.416264 1.070553 1.435561
v -0.305963 0.804263 1.435561
v -0.039673 0.693963 1.435561
v 0.226616 0.804263 1.435561
v 0.336917 1.070553 1.435561
v -0.039673 1.070553 -14.684437
v -0.039673 1.070553 1.435561
v -0.034040 1.336842 -10.560940
v -0.300329 1.447143 -10.560940
v -0.566619 1.336842 -10.560940
v -0.676920 1.070553 -10.560940
v -0.566619 0.804263 -10.560940
v -0.300329 0.693963 -10.560940
v -0.034040 0.804263 -10.560940
v 0.076261 1.070553 -10.560940
v 0.408404 1.336842 -4.562689
v 0.518705 1.070553 -4.562689
v 0.408404 0.804263 -4.562689
v 0.142114 0.693963 -4.562689
v -0.124175 0.804263 -4.562689
v -0.234476 1.070553 -4.562689
v -0.124175 1.336842 -4.562689
v 0.142114 1.447143 -4.562689
vt 0.176247 0.630077
vt 0.114394 0.604456
vt 0.052541 0.630077
vt 0.026920 0.691930
vt 0.052541 0.753784
vt 0.114394 0.779404
vt 0.176247 0.753784
vt 0.201868 0.691930
vt 0.011693 0.001962
vt 0.060685 0.001962
vt 0.109676 0.001962
vt 0.158667 0.001962
vt 0.207659 0.001962
vt 0.256650 0.001962
vt 0.305641 0.001962
vt 0.354633 0.001962
vt 0.403624 0.001962
vt 0.011693 0.591332
vt 0.060685 0.591332
vt 0.109676 0.591332
vt 0.158667 0.591332
vt 0.207659 0.591332
vt 0.256650 0.591332
vt 0.305641 0.591332
vt 0.354633 0.591332
vt 0.403624 0.591332
vt 0.178623 0.819910
vt 0.116770 0.794289
vt 0.054916 0.819910
vt 0.029296 0.881763
vt 0.054916 0.943616
vt 0.116770 0.969237
vt 0.178623 0.943616
vt 0.204243 0.881763
vt 0.114394 0.688431
vt 0.116770 0.878264
vt 0.403624 0.296647
vt 0.011693 0.296647
vt 0.060685 0.296647
vt 0.109676 0.296647
vt 0.158667 0.296647
vt 0.207659 0.296647
vt 0.256650 0.296647
vt 0.305641 0.296647
vt 0.354633 0.296647
vt 0.403624 0.443989
vt 0.011693 0.443989
vt 0.354633 0.443989
vt 0.305641 0.443989
vt 0.256650 0.443989
vt 0.207659 0.443989
vt 0.158667 0.443989
vt 0.109676 0.443989
vt 0.060685 0.443989
vn 0.382674 0.923856 -0.007173
vn 0.382677 0.923864 -0.005824
vn 0.382665 0.923834 -0.009923
vn 0.382680 0.923872 -0.004045
vn -0.382674 0.923856 0.007173
vn -0.382677 0.923864 0.005824
vn -0.382665 0.923834 0.009923
vn -0.382680 0.923872 0.004045
vn -0.923748 0.382629 0.016855
vn -0.923759 0.382633 0.016190
vn -0.923663 0.382594 0.021628
vn -0.923732 0.382622 0.017865
vn -0.923759 -0.382633 0.016190
vn -0.923748 -0.382629 0.016855
vn -0.923732 -0.382622 0.017865
vn -0.923663 -0.382594 0.021628
vn -0.382677 -0.923864 0.005824
vn -0.382674 -0.923856 0.007173
vn -0.382680 -0.923872 0.004045
vn -0.382665 -0.923834 0.009923
vn 0.382677 -0.923864 -0.005824
vn 0.382674 -0.923856 -0.007173
vn 0.382680 -0.923872 -0.004045
vn 0.382665 -0.923834 -0.009923
vn 0.923758 -0.382633 -0.016190
vn 0.923748 -0.382629 -0.016855
vn 0.923732 -0.382622 -0.017865
vn 0.923663 -0.382594 -0.021628
vn 0.923748 0.382629 -0.016855
vn 0.923758 0.382633 -0.016190
vn 0.923663 0.382594 -0.021628
vn 0.923732 0.382622 -0.017865
vn 0.000000 -0.000000 -1.000000
vn 0.000000 -0.000000 -1.000000
vn 0.000000 -0.000000 -1.000000
vn 0.000000 -0.000000 -1.000000
vn 0.000000 -0.000000 -1.000000
vn 0.000000 -0.000000 -1.000000
vn 0.000000 -0.000000 -1.000000
vn 0.000000 -0.000000 -1.000000
vn 0.000000 -0.000000 -1.000000
vn 0.000000 0.000000 1.000000
vn 0.000000 0.000000 1.000000
vn 0.000000 0.000000 1.000000
vn 0.000000 0.000000 1.000000
vn 0.000000 0.000000 1.000000
vn 0.000000 0.000000 1.000000
vn 0.000000 0.000000 1.000000
vn 0.000000 0.000000 1.000000
vn 0.000000 0.000000 1.000000
vn 0.382572 0.923609 0.024183
vn 0.382572 0.923609 0.024183
vn -0.382572 0.923609 -0.024183
vn -0.382572 0.923609 -0.024183
vn -0.922308 0.382032 -0.058301
vn -0.922308 0.382032 -0.058301
vn -0.922308 -0.382032 -0.058301
vn -0.922308 -0.382032 -0.058301
vn -0.382572 -0.923609 -0.024183
vn -0.382571 -0.923609 -0.024183
vn 0.382571 -0.923609 0.024183
vn 0.382571 -0.923609 0.024183
vn 0.922308 -0.382033 0.058301
vn 0.922308 -0.382033 0.058301
vn 0.922308 0.382033 0.058301
vn 0.922308 0.382033 0.058301
vn 0.923517 0.382534 0.027989
vn 0.923517 0.382534 0.027989
vn 0.923518 -0.382534 0.027989
vn 0.923518 -0.382534 0.027989
vn 0.382658 -0.923817 0.011597
vn 0.382658 -0.923817 0.011597
vn -0.382658 -0.923817 -0.011597
vn -0.382658 -0.923817 -0.011597
vn -0.923518 -0.382533 -0.027989
vn -0.923518 -0.382533 -0.027989
vn -0.923518 0.382533 -0.027989
vn -0.923518 0.382533 -0.027989
vn -0.382658 0.923817 -0.011597
vn -0.382658 0.923817 -0.011597
vn 0.382658 0.923817 0.011597
vn 0.382658 0.923817 0.011597
s 1
g MAttock pCylinder4
usemtl initialShadingGroup
f 83/182/175 84/183/176 98/198/177 91/191/178
s 2
f 84/183/179 85/184/180 97/197/181 98/198/182
s 3
f 85/184/183 86/185/184 96/196/185 97/197/186
s 4
f 86/185/187 87/186/188 95/195/189 96/196/190
s 5
f 87/186/191 88/187/192 94/194/193 95/195/194
s 6
f 88/187/195 89/188/196 93/193/197 94/194/198
s 7
f 89/188/199 90/189/200 92/192/201 93/193/202
s 8
f 90/189/203 83/181/204 91/190/205 92/192/206
s 9
f 66/146/207 65/145/208 81/179/209
f 67/147/210 66/146/207 81/179/209
f 68/148/211 67/147/210 81/179/209
f 69/149/212 68/148/211 81/179/209
f 70/150/213 69/149/212 81/179/209
f 71/151/214 70/150/213 81/179/209
f 72/152/215 71/151/214 81/179/209
f 65/145/208 72/152/215 81/179/209
s 10
f 73/177/216 74/176/217 82/180/218
f 74/176/217 75/175/219 82/180/218
f 75/175/219 76/174/220 82/180/218
f 76/174/220 77/173/221 82/180/218
f 77/173/221 78/172/222 82/180/218
f 78/172/222 79/171/223 82/180/218
f 79/171/223 80/178/224 82/180/218
f 80/178/224 73/177/216 82/180/218
s 1
f 65/153/225 66/154/226 84/183/176 83/182/175
s 2
f 66/154/227 67/155/228 85/184/180 84/183/179
s 3
f 67/155/229 68/156/230 86/185/184 85/184/183
s 4
f 68/156/231 69/157/232 87/186/188 86/185/187
s 5
f 69/157/233 70/158/234 88/187/192 87/186/191
s 6
f 70/158/235 71/159/236 89/188/196 88/187/195
s 7
f 71/159/237 72/160/238 90/189/200 89/188/199
s 8
f 72/160/239 65/161/240 83/181/204 90/189/203
f 92/192/206 91/190/205 73/170/241 80/169/242
s 7
f 93/193/202 92/192/201 80/169/243 79/168/244
s 6
f 94/194/198 93/193/197 79/168/245 78/167/246
s 5
f 95/195/194 94/194/193 78/167/247 77/166/248
s 4
f 96/196/190 95/195/189 77/166/249 76/165/250
s 3
f 97/197/186 96/196/185 76/165/251 75/164/252
s 2
f 98/198/182 97/197/181 75/164/253 74/163/254
s 1
f 91/191/178 98/198/177 74/163/255 73/162/256
