# This file uses centimeters as units for non-parametric coordinates.

mtllib Pitchfork.mtl
g default
v -0.832329 0.000000 0.402203
v -0.801468 0.000000 0.402203
v -0.668042 0.000000 0.402203
v -0.638996 0.000000 0.402203
v -0.504057 0.000000 0.402203
v -0.476222 0.000000 0.402203
v -0.341282 0.000000 0.402203
v -0.312237 0.000000 0.402203
v -0.178507 0.000000 0.402203
v -0.148252 0.000000 0.402203
v -0.016338 0.000000 0.402203
v 0.016338 0.000000 0.402203
v 0.147001 0.000000 0.402203
v 0.179758 0.000000 0.402203
v 0.311632 0.000000 0.402203
v 0.341887 0.000000 0.402203
v 0.473801 0.000000 0.402203
v 0.506477 0.000000 0.402203
v 0.636273 0.000000 0.402203
v 0.670764 0.000000 0.402203
v 0.799653 0.000000 0.402203
v 0.834144 0.000000 0.402203
v -0.844128 0.000000 0.000000
v -0.789669 0.000000 0.000000
v -0.735209 0.000000 -0.031884
v -0.680749 0.000000 0.000000
v -0.626289 0.000000 0.000000
v -0.571829 0.000000 -0.031884
v -0.517369 0.000000 0.000000
v -0.462909 0.000000 0.000000
v -0.408449 0.000000 -0.031884
v -0.353989 0.000000 0.000000
v -0.299529 0.000000 0.000000
v -0.245070 0.000000 -0.031884
v -0.190610 0.000000 0.000000
v -0.136150 0.000000 0.000000
v -0.081690 0.000000 -0.031884
v -0.027230 0.000000 0.000000
v 0.027230 0.000000 0.000000
v 0.081690 0.000000 -0.031884
v 0.136150 0.000000 0.000000
v 0.190610 0.000000 0.000000
v 0.245070 0.000000 -0.031884
v 0.299529 0.000000 0.000000
v 0.353989 0.000000 0.000000
v 0.408449 0.000000 -0.031884
v 0.462909 0.000000 0.000000
v 0.517369 0.000000 0.000000
v 0.571829 0.000000 -0.031884
v 0.626289 0.000000 0.000000
v 0.680749 0.000000 0.000000
v 0.735209 0.000000 -0.031884
v 0.789669 0.000000 0.000000
v 0.844128 0.000000 0.000000
v -0.844128 0.020976 -0.175657
v -0.789669 0.020976 -0.175657
v -0.735209 0.020976 -0.175657
v -0.680749 0.020976 -0.175657
v -0.626289 0.020976 -0.175657
v -0.571829 0.020976 -0.175657
v -0.517369 0.020976 -0.175657
v -0.462909 0.020976 -0.175657
v -0.408449 0.020976 -0.175657
v -0.353989 0.020976 -0.175657
v -0.299529 0.020976 -0.175657
v -0.245070 0.020976 -0.175657
v -0.190610 0.020976 -0.175657
v -0.136150 0.020976 -0.175657
v -0.081690 0.020976 -0.175657
v -0.027230 0.020976 -0.175657
v 0.027230 0.020976 -0.175657
v 0.081690 0.020976 -0.175657
v 0.136150 0.020976 -0.175657
v 0.190610 0.020976 -0.175657
v 0.245070 0.020976 -0.175657
v 0.299529 0.020976 -0.175657
v 0.353989 0.020976 -0.175657
v 0.408449 0.020976 -0.175657
v 0.462909 0.020976 -0.175657
v 0.517369 0.020976 -0.175657
v 0.571829 0.020976 -0.175657
v 0.626289 0.020976 -0.175657
v 0.680749 0.020976 -0.175657
v 0.735209 0.020976 -0.175657
v 0.789669 0.020976 -0.175657
v 0.844128 0.020976 -0.175657
v -0.832329 0.024449 0.402203
v -0.801468 0.024449 0.402203
v -0.789669 0.024449 0.000000
v -0.844128 0.024449 0.000000
v -0.668042 0.024449 0.402203
v -0.638996 0.024449 0.402203
v -0.626289 0.024449 0.000000
v -0.680749 0.024449 0.000000
v -0.504057 0.024449 0.402203
v -0.476222 0.024449 0.402203
v -0.462909 0.024449 0.000000
v -0.517369 0.024449 0.000000
v -0.341282 0.024449 0.402203
v -0.312237 0.024449 0.402203
v -0.299529 0.024449 0.000000
v -0.353989 0.024449 0.000000
v -0.178507 0.024449 0.402203
v -0.148252 0.024449 0.402203
v -0.136150 0.024449 0.000000
v -0.190610 0.024449 0.000000
v -0.016338 0.024449 0.402203
v 0.016338 0.024449 0.402203
v 0.027230 0.024449 0.000000
v -0.027230 0.024449 0.000000
v 0.147001 0.024449 0.402203
v 0.179758 0.024449 0.402203
v 0.190610 0.024449 0.000000
v 0.136150 0.024449 0.000000
v 0.311632 0.024449 0.402203
v 0.341887 0.024449 0.402203
v 0.353989 0.024449 0.000000
v 0.299529 0.024449 0.000000
v 0.473801 0.024449 0.402203
v 0.506477 0.024449 0.402203
v 0.517369 0.024449 0.000000
v 0.462909 0.024449 0.000000
v 0.636273 0.024449 0.402203
v 0.670764 0.024449 0.402203
v 0.680749 0.024449 0.000000
v 0.626289 0.024449 0.000000
v 0.799653 0.024449 0.402203
v 0.834144 0.024449 0.402203
v 0.844128 0.024449 0.000000
v 0.789669 0.024449 0.000000
v -0.789669 0.068500 -0.192438
v -0.844128 0.068500 -0.192438
v -0.735209 0.024449 -0.031884
v -0.735209 0.068500 -0.192438
v -0.680749 0.068500 -0.192438
v -0.626289 0.068500 -0.192438
v -0.571829 0.024449 -0.031884
v -0.571829 0.068500 -0.192438
v -0.517369 0.068500 -0.192438
v -0.462909 0.068500 -0.192438
v -0.408449 0.024449 -0.031884
v -0.408449 0.068500 -0.192438
v -0.353989 0.068500 -0.192438
v -0.299529 0.068500 -0.192438
v -0.245070 0.024449 -0.031884
v -0.245070 0.068500 -0.192438
v -0.190610 0.068500 -0.192438
v -0.136150 0.068500 -0.192438
v -0.081690 0.024449 -0.031884
v -0.081690 0.068500 -0.192438
v -0.027230 0.068500 -0.192438
v 0.027230 0.068500 -0.192438
v 0.081690 0.024449 -0.031884
v 0.081690 0.068500 -0.192438
v 0.136150 0.068500 -0.192438
v 0.190610 0.068500 -0.192438
v 0.245070 0.024449 -0.031884
v 0.245070 0.068500 -0.192438
v 0.299529 0.068500 -0.192438
v 0.353989 0.068500 -0.192438
v 0.408449 0.024449 -0.031884
v 0.408449 0.068500 -0.192438
v 0.462909 0.068500 -0.192438
v 0.517369 0.068500 -0.192438
v 0.571829 0.024449 -0.031884
v 0.571829 0.068500 -0.192438
v 0.626289 0.068500 -0.192438
v 0.680749 0.068500 -0.192438
v 0.735209 0.024449 -0.031884
v 0.735209 0.068500 -0.192438
v 0.789669 0.068500 -0.192438
v 0.844128 0.068500 -0.192438
v -0.838229 0.000000 0.201102
v -0.838229 0.024449 0.201102
v -0.795568 0.024449 0.201102
v -0.795568 0.000000 0.201102
v -0.674395 0.000000 0.201102
v -0.674395 0.024449 0.201102
v -0.632643 0.024449 0.201102
v -0.632643 0.000000 0.201102
v -0.510713 0.000000 0.201102
v -0.510713 0.024449 0.201102
v -0.469565 0.024449 0.201102
v -0.469565 0.000000 0.201102
v -0.347636 0.000000 0.201102
v -0.347636 0.024449 0.201102
v -0.305883 0.024449 0.201102
v -0.305883 0.000000 0.201102
v -0.184559 0.000000 0.201102
v -0.184559 0.024449 0.201102
v -0.142201 0.024449 0.201102
v -0.142201 0.000000 0.201102
v -0.021784 0.000000 0.201102
v -0.021784 0.024449 0.201102
v 0.021784 0.024449 0.201102
v 0.021784 0.000000 0.201102
v 0.141576 0.000000 0.201102
v 0.141576 0.024449 0.201102
v 0.185184 0.024449 0.201102
v 0.185184 0.000000 0.201102
v 0.305580 0.000000 0.201102
v 0.305580 0.024449 0.201102
v 0.347938 0.024449 0.201102
v 0.347938 0.000000 0.201102
v 0.468355 0.000000 0.201102
v 0.468355 0.024449 0.201102
v 0.511923 0.024449 0.201102
v 0.511923 0.000000 0.201102
v 0.631281 0.000000 0.201102
v 0.631281 0.024449 0.201102
v 0.675757 0.024449 0.201102
v 0.675757 0.000000 0.201102
v 0.794661 0.000000 0.201102
v 0.794661 0.024449 0.201102
v 0.839136 0.024449 0.201102
v 0.839136 0.000000 0.201102
v -0.844128 0.000000 -0.126006
v -0.844128 0.024449 -0.126006
v -0.789669 0.024449 -0.126006
v -0.735209 0.024449 -0.126006
v -0.680749 0.024449 -0.126006
v -0.626289 0.024449 -0.126006
v -0.571829 0.024449 -0.126006
v -0.517369 0.024449 -0.126006
v -0.462909 0.024449 -0.126006
v -0.408449 0.024449 -0.126006
v -0.353989 0.024449 -0.126006
v -0.299529 0.024449 -0.126006
v -0.245070 0.024449 -0.126006
v -0.190610 0.024449 -0.126006
v -0.136150 0.024449 -0.126006
v -0.081690 0.024449 -0.126006
v -0.027230 0.024449 -0.126006
v 0.027230 0.024449 -0.126006
v 0.081690 0.024449 -0.126006
v 0.136150 0.024449 -0.126006
v 0.190610 0.024449 -0.126006
v 0.245070 0.024449 -0.126006
v 0.299529 0.024449 -0.126006
v 0.353989 0.024449 -0.126006
v 0.408449 0.024449 -0.126006
v 0.462909 0.024449 -0.126006
v 0.517369 0.024449 -0.126006
v 0.571829 0.024449 -0.126006
v 0.626289 0.024449 -0.126006
v 0.680749 0.024449 -0.126006
v 0.735209 0.024449 -0.126006
v 0.789669 0.024449 -0.126006
v 0.844128 0.024449 -0.126006
v 0.844128 0.000000 -0.126006
v 0.789669 0.000000 -0.126006
v 0.735209 0.000000 -0.126006
v 0.680749 0.000000 -0.126006
v 0.626289 0.000000 -0.126006
v 0.571829 0.000000 -0.126006
v 0.517369 0.000000 -0.126006
v 0.462909 0.000000 -0.126006
v 0.408449 0.000000 -0.126006
v 0.353989 0.000000 -0.126006
v 0.299529 0.000000 -0.126006
v 0.245070 0.000000 -0.126006
v 0.190610 0.000000 -0.126006
v 0.136150 0.000000 -0.126006
v 0.081690 0.000000 -0.126006
v 0.027230 0.000000 -0.126006
v -0.027230 0.000000 -0.126006
v -0.081690 0.000000 -0.126006
v -0.136150 0.000000 -0.126006
v -0.190610 0.000000 -0.126006
v -0.245070 0.000000 -0.126006
v -0.299529 0.000000 -0.126006
v -0.353989 0.000000 -0.126006
v -0.408449 0.000000 -0.126006
v -0.462909 0.000000 -0.126006
v -0.517369 0.000000 -0.126006
v -0.571829 0.000000 -0.126006
v -0.626289 0.000000 -0.126006
v -0.680749 0.000000 -0.126006
v -0.735209 0.000000 -0.126006
v -0.789669 0.000000 -0.126006
v -0.844128 0.193284 -0.126006
v -0.789669 0.193284 -0.126006
v -0.789669 0.193284 -0.192438
v -0.844128 0.193284 -0.192438
v -0.735209 0.193284 -0.126006
v -0.735209 0.193284 -0.192438
v -0.680749 0.193284 -0.126006
v -0.680749 0.193284 -0.192438
v -0.626289 0.193284 -0.126006
v -0.626289 0.193284 -0.192438
v -0.571829 0.193284 -0.126006
v -0.571829 0.193284 -0.192438
v -0.517369 0.193284 -0.126006
v -0.517369 0.193284 -0.192438
v -0.462909 0.193284 -0.126006
v -0.462909 0.193284 -0.192438
v -0.408449 0.193284 -0.126006
v -0.408449 0.193284 -0.192438
v -0.353989 0.193284 -0.126006
v -0.353989 0.193284 -0.192438
v -0.299529 0.193284 -0.126006
v -0.299529 0.193284 -0.192438
v -0.245070 0.193284 -0.126006
v -0.245070 0.193284 -0.192438
v -0.190610 0.193284 -0.126006
v -0.190610 0.193284 -0.192438
v -0.136150 0.193284 -0.126006
v -0.136150 0.193284 -0.192438
v -0.081690 0.193284 -0.126006
v -0.081690 0.193284 -0.192438
v -0.027230 0.193284 -0.126006
v -0.027230 0.193284 -0.192438
v 0.027230 0.193284 -0.126006
v 0.027230 0.193284 -0.192438
v 0.081690 0.193284 -0.126006
v 0.081690 0.193284 -0.192438
v 0.136150 0.193284 -0.126006
v 0.136150 0.193284 -0.192438
v 0.190610 0.193284 -0.126006
v 0.190610 0.193284 -0.192438
v 0.245070 0.193284 -0.126006
v 0.245070 0.193284 -0.192438
v 0.299529 0.193284 -0.126006
v 0.299529 0.193284 -0.192438
v 0.353989 0.193284 -0.126006
v 0.353989 0.193284 -0.192438
v 0.408449 0.193284 -0.126006
v 0.408449 0.193284 -0.192438
v 0.462909 0.193284 -0.126006
v 0.462909 0.193284 -0.192438
v 0.517369 0.193284 -0.126006
v 0.517369 0.193284 -0.192438
v 0.571829 0.193284 -0.126006
v 0.571829 0.193284 -0.192438
v 0.626289 0.193284 -0.126006
v 0.626289 0.193284 -0.192438
v 0.680749 0.193284 -0.126006
v 0.680749 0.193284 -0.192438
v 0.735209 0.193284 -0.126006
v 0.735209 0.193284 -0.192438
v 0.789669 0.193284 -0.126006
v 0.789669 0.193284 -0.192438
v 0.844128 0.193284 -0.126006
v 0.844128 0.193284 -0.192438
vt 0.189079 0.761896
vt 0.175656 0.761893
vt 0.175678 0.624624
vt 0.189101 0.624626
vt 0.175635 0.899163
vt 0.189058 0.899165
vt 0.175682 0.596566
vt 0.189105 0.596568
vt 0.257787 0.870232
vt 0.257786 0.732962
vt 0.271210 0.732962
vt 0.271210 0.870232
vt 0.257786 0.595693
vt 0.271209 0.595693
vt 0.271210 0.956234
vt 0.257787 0.956234
vt 0.269304 0.990122
vt 0.295395 1.001575
vt 0.363905 0.956233
vt 0.363905 1.001575
vt 0.320045 0.760721
vt 0.306622 0.760721
vt 0.306622 0.623449
vt 0.320045 0.623449
vt 0.306621 0.897993
vt 0.320045 0.897993
vt 0.306622 0.595391
vt 0.320045 0.595391
vt 0.034009 0.871430
vt 0.034082 0.734158
vt 0.047505 0.734166
vt 0.047432 0.871437
vt 0.034155 0.596887
vt 0.047578 0.596894
vt 0.033994 0.899488
vt 0.047417 0.899495
vt 0.160751 0.762201
vt 0.147328 0.762199
vt 0.147350 0.624925
vt 0.160773 0.624927
vt 0.147306 0.899472
vt 0.160730 0.899474
vt 0.147354 0.596868
vt 0.160777 0.596870
vt 0.019845 0.871386
vt 0.019918 0.734113
vt 0.033341 0.734120
vt 0.033268 0.871393
vt 0.019991 0.596839
vt 0.033414 0.596847
vt 0.019830 0.899444
vt 0.033253 0.899451
vt 0.334209 0.760570
vt 0.320786 0.760570
vt 0.320785 0.623298
vt 0.334209 0.623298
vt 0.320786 0.897842
vt 0.334209 0.897842
vt 0.320785 0.595241
vt 0.334209 0.595241
vt 0.004871 0.871517
vt 0.002436 0.734267
vt 0.015857 0.734029
vt 0.018292 0.871279
vt 0.000000 0.597017
vt 0.013421 0.596779
vt 0.005369 0.899571
vt 0.018790 0.899332
vt 0.348373 0.760418
vt 0.334950 0.760418
vt 0.334949 0.623148
vt 0.348373 0.623148
vt 0.334950 0.897689
vt 0.348373 0.897689
vt 0.334949 0.595090
vt 0.348373 0.595090
vt 0.048173 0.871475
vt 0.048246 0.734204
vt 0.061669 0.734212
vt 0.061596 0.871482
vt 0.048319 0.596934
vt 0.061742 0.596941
vt 0.048158 0.899532
vt 0.061581 0.899539
vt 0.203244 0.761743
vt 0.189820 0.761741
vt 0.189842 0.624473
vt 0.203265 0.624475
vt 0.189799 0.899009
vt 0.203222 0.899011
vt 0.189846 0.596416
vt 0.203270 0.596418
vt 0.090665 0.871612
vt 0.090738 0.734344
vt 0.104161 0.734351
vt 0.104088 0.871619
vt 0.090811 0.597076
vt 0.104234 0.597083
vt 0.090650 0.899669
vt 0.104073 0.899676
vt 0.231572 0.761442
vt 0.218148 0.761440
vt 0.218170 0.624172
vt 0.231593 0.624174
vt 0.218127 0.898707
vt 0.231550 0.898709
vt 0.218174 0.596114
vt 0.231598 0.596116
vt 0.104829 0.871659
vt 0.104902 0.734391
vt 0.118325 0.734398
vt 0.118252 0.871666
vt 0.104975 0.597124
vt 0.118398 0.597131
vt 0.104814 0.899716
vt 0.118237 0.899724
vt 0.174915 0.762047
vt 0.161492 0.762045
vt 0.161514 0.624775
vt 0.174937 0.624777
vt 0.161470 0.899316
vt 0.174894 0.899318
vt 0.161518 0.596717
vt 0.174941 0.596719
vt 0.062337 0.871522
vt 0.062410 0.734252
vt 0.075833 0.734259
vt 0.075760 0.871529
vt 0.062483 0.596981
vt 0.075906 0.596989
vt 0.062322 0.899580
vt 0.075745 0.899587
vt 0.217408 0.761593
vt 0.203984 0.761590
vt 0.204006 0.624323
vt 0.217429 0.624325
vt 0.203963 0.898858
vt 0.217386 0.898860
vt 0.204010 0.596265
vt 0.217434 0.596267
vt 0.076501 0.871564
vt 0.076574 0.734297
vt 0.089997 0.734304
vt 0.089924 0.871571
vt 0.076647 0.597029
vt 0.090070 0.597036
vt 0.076486 0.899622
vt 0.089909 0.899629
vt 0.305902 0.760868
vt 0.292479 0.760866
vt 0.292500 0.623600
vt 0.305924 0.623602
vt 0.292457 0.898131
vt 0.305881 0.898133
vt 0.292505 0.595542
vt 0.305928 0.595544
vt 0.133157 0.871550
vt 0.133230 0.734284
vt 0.146654 0.734291
vt 0.146581 0.871557
vt 0.133303 0.597018
vt 0.146727 0.597025
vt 0.133142 0.899607
vt 0.146566 0.899615
vt 0.389899 0.862536
vt 0.376475 0.862536
vt 0.376476 0.725270
vt 0.389899 0.725270
vt 0.376475 0.999802
vt 0.389899 0.999802
vt 0.376476 0.639268
vt 0.389899 0.639268
vt 0.387992 0.605380
vt 0.414084 0.593927
vt 0.482593 0.593927
vt 0.482593 0.639268
vt 0.118993 0.871671
vt 0.119066 0.734405
vt 0.132489 0.734412
vt 0.132417 0.871678
vt 0.119139 0.597139
vt 0.132562 0.597146
vt 0.118978 0.899728
vt 0.132402 0.899735
vt 0.274279 0.573347
vt 0.274279 0.559473
vt 0.411535 0.557555
vt 0.411535 0.575265
vt 0.137023 0.571428
vt 0.137023 0.561392
vt 0.497537 0.557555
vt 0.497537 0.575265
vt 0.433297 0.539844
vt 0.497537 0.539844
vt 0.411535 0.522134
vt 0.497537 0.522134
vt 0.411535 0.504423
vt 0.497537 0.504423
vt 0.274279 0.520068
vt 0.274279 0.506490
vt 0.433297 0.486713
vt 0.497537 0.486713
vt 0.137023 0.518001
vt 0.137023 0.508556
vt 0.411535 0.469002
vt 0.497537 0.469002
vt 0.411535 0.451292
vt 0.497537 0.451292
vt 0.274279 0.466838
vt 0.274279 0.453457
vt 0.433297 0.433582
vt 0.497537 0.433582
vt 0.137023 0.464673
vt 0.137023 0.455621
vt 0.411535 0.415871
vt 0.497537 0.415871
vt 0.411535 0.398161
vt 0.497537 0.398161
vt 0.274279 0.413805
vt 0.274279 0.400227
vt 0.433297 0.380450
vt 0.497537 0.380450
vt 0.137023 0.411739
vt 0.137023 0.402293
vt 0.411535 0.362740
vt 0.497537 0.362740
vt 0.411535 0.345029
vt 0.497537 0.345029
vt 0.274279 0.360772
vt 0.274279 0.346997
vt 0.433297 0.327319
vt 0.497537 0.327319
vt 0.137023 0.358804
vt 0.137023 0.348965
vt 0.411535 0.309608
vt 0.497537 0.309608
vt 0.411535 0.291898
vt 0.497537 0.291898
vt 0.274279 0.307837
vt 0.274279 0.293669
vt 0.433297 0.274187
vt 0.497537 0.274187
vt 0.137023 0.306066
vt 0.137023 0.295440
vt 0.411535 0.256477
vt 0.497537 0.256477
vt 0.411535 0.238766
vt 0.497537 0.238766
vt 0.274279 0.254712
vt 0.274279 0.240531
vt 0.433297 0.221056
vt 0.497537 0.221056
vt 0.137023 0.252948
vt 0.137023 0.242295
vt 0.411535 0.203345
vt 0.497537 0.203345
vt 0.411535 0.185635
vt 0.497537 0.185635
vt 0.274279 0.201377
vt 0.274279 0.187603
vt 0.433297 0.167924
vt 0.497537 0.167924
vt 0.137023 0.199410
vt 0.137023 0.189570
vt 0.411535 0.150214
vt 0.497537 0.150214
vt 0.411535 0.132503
vt 0.497537 0.132503
vt 0.274279 0.148443
vt 0.274279 0.134274
vt 0.433297 0.114793
vt 0.497537 0.114793
vt 0.137023 0.146672
vt 0.137023 0.136045
vt 0.411535 0.097082
vt 0.497537 0.097082
vt 0.411535 0.079372
vt 0.497537 0.079372
vt 0.274279 0.095459
vt 0.274279 0.080995
vt 0.433297 0.061661
vt 0.497537 0.061661
vt 0.137023 0.093835
vt 0.137023 0.082619
vt 0.411535 0.043951
vt 0.497537 0.043951
vt 0.411535 0.026240
vt 0.497537 0.026240
vt 0.274279 0.042327
vt 0.274279 0.027864
vt 0.137023 0.040704
vt 0.137023 0.029487
vt 0.625192 0.987896
vt 0.625192 0.977479
vt 0.651859 0.977479
vt 0.651859 0.987896
vt 0.625192 0.967062
vt 0.651859 0.967062
vt 0.625192 0.956646
vt 0.651859 0.956646
vt 0.625192 0.946229
vt 0.651859 0.946229
vt 0.625192 0.935813
vt 0.651859 0.935813
vt 0.625192 0.925396
vt 0.651859 0.925396
vt 0.625192 0.914980
vt 0.651859 0.914980
vt 0.625192 0.904563
vt 0.651859 0.904563
vt 0.625192 0.894147
vt 0.651859 0.894147
vt 0.625192 0.883730
vt 0.651859 0.883730
vt 0.625192 0.873313
vt 0.651859 0.873313
vt 0.625192 0.862896
vt 0.651859 0.862896
vt 0.625192 0.852480
vt 0.651859 0.852480
vt 0.625192 0.842064
vt 0.651859 0.842064
vt 0.625192 0.831647
vt 0.651859 0.831647
vt 0.625192 0.821230
vt 0.651859 0.821230
vt 0.625192 0.810814
vt 0.651859 0.810814
vt 0.625192 0.800397
vt 0.651859 0.800397
vt 0.625192 0.789981
vt 0.651859 0.789981
vt 0.625192 0.779564
vt 0.651859 0.779564
vt 0.625192 0.769147
vt 0.651859 0.769147
vt 0.625192 0.758731
vt 0.651859 0.758731
vt 0.625192 0.748314
vt 0.651859 0.748314
vt 0.625192 0.737897
vt 0.651859 0.737897
vt 0.625192 0.727481
vt 0.651859 0.727481
vt 0.625192 0.717064
vt 0.651859 0.717064
vt 0.625192 0.706648
vt 0.651859 0.706648
vt 0.625192 0.696231
vt 0.651859 0.696231
vt 0.625192 0.685815
vt 0.651859 0.685815
vt 0.625192 0.675398
vt 0.651859 0.675398
vt 0.625192 0.664981
vt 0.651859 0.664981
vt 0.259101 0.534096
vt 0.259054 0.547969
vt 0.121792 0.549429
vt 0.121852 0.531719
vt 0.396316 0.546510
vt 0.396350 0.536474
vt 0.035791 0.549142
vt 0.035850 0.531431
vt 0.000000 0.549022
vt 0.000059 0.531312
vt 0.035910 0.513721
vt 0.100149 0.513936
vt 0.000118 0.513601
vt 0.035969 0.496010
vt 0.121970 0.496298
vt 0.000178 0.495891
vt 0.036028 0.478300
vt 0.122029 0.478588
vt 0.000237 0.478180
vt 0.036087 0.460590
vt 0.100327 0.460804
vt 0.259278 0.481113
vt 0.259232 0.494691
vt 0.000296 0.460470
vt 0.036147 0.442879
vt 0.122148 0.443167
vt 0.396495 0.493083
vt 0.396526 0.483638
vt 0.000355 0.442760
vt 0.036206 0.425169
vt 0.122207 0.425456
vt 0.000414 0.425049
vt 0.036265 0.407459
vt 0.100504 0.407673
vt 0.259455 0.428080
vt 0.259410 0.441461
vt 0.000474 0.407339
vt 0.036324 0.389748
vt 0.122325 0.390036
vt 0.396673 0.439755
vt 0.396703 0.430703
vt 0.000533 0.389628
vt 0.036383 0.372038
vt 0.122384 0.372325
vt 0.000592 0.371918
vt 0.036443 0.354327
vt 0.100682 0.354542
vt 0.259633 0.374850
vt 0.259588 0.388428
vt 0.000651 0.354208
vt 0.036502 0.336617
vt 0.122503 0.336905
vt 0.396850 0.386821
vt 0.396882 0.377376
vt 0.000711 0.336497
vt 0.036561 0.318907
vt 0.122562 0.319194
vt 0.000770 0.318787
vt 0.036620 0.301196
vt 0.100860 0.301411
vt 0.259811 0.321621
vt 0.259765 0.335396
vt 0.000829 0.301077
vt 0.036679 0.283486
vt 0.122681 0.283773
vt 0.397027 0.333887
vt 0.397060 0.324048
vt 0.000888 0.283366
vt 0.036739 0.265775
vt 0.122740 0.266063
vt 0.000947 0.265656
vt 0.036798 0.248065
vt 0.101037 0.248280
vt 0.259989 0.268293
vt 0.259942 0.282461
vt 0.001007 0.247945
vt 0.036857 0.230355
vt 0.122858 0.230642
vt 0.397203 0.281149
vt 0.397239 0.270523
vt 0.001066 0.230235
vt 0.036916 0.212644
vt 0.122917 0.212932
vt 0.001125 0.212525
vt 0.036975 0.194934
vt 0.101215 0.195149
vt 0.260167 0.215155
vt 0.260120 0.229337
vt 0.001184 0.194814
vt 0.037035 0.177224
vt 0.123036 0.177511
vt 0.397381 0.228031
vt 0.397417 0.217379
vt 0.001244 0.177104
vt 0.037094 0.159513
vt 0.123095 0.159801
vt 0.001303 0.159393
vt 0.037153 0.141803
vt 0.101393 0.142017
vt 0.260344 0.162227
vt 0.260298 0.176002
vt 0.001362 0.141683
vt 0.037212 0.124092
vt 0.123213 0.124380
vt 0.397560 0.174493
vt 0.397593 0.164654
vt 0.001421 0.123973
vt 0.037272 0.106382
vt 0.123273 0.106670
vt 0.001480 0.106262
vt 0.037331 0.088672
vt 0.101570 0.088886
vt 0.260522 0.108899
vt 0.260475 0.123068
vt 0.001540 0.088552
vt 0.037390 0.070961
vt 0.123391 0.071249
vt 0.397736 0.121756
vt 0.397772 0.111129
vt 0.001599 0.070842
vt 0.037449 0.053251
vt 0.123450 0.053538
vt 0.001658 0.053131
vt 0.037508 0.035540
vt 0.101748 0.035755
vt 0.260700 0.055621
vt 0.260652 0.070084
vt 0.001717 0.035421
vt 0.037568 0.017830
vt 0.123569 0.018118
vt 0.397913 0.068920
vt 0.397950 0.057703
vt 0.001776 0.017710
vt 0.037627 0.000120
vt 0.123628 0.000407
vt 0.001836 0.000000
vt 0.260878 0.002490
vt 0.260830 0.016953
vt 0.398091 0.015789
vt 0.398128 0.004572
vt 0.465243 0.005788
vt 0.475279 0.005788
vt 0.475279 0.019212
vt 0.465243 0.019212
vt 0.499237 0.005500
vt 0.508682 0.005500
vt 0.508682 0.018923
vt 0.499237 0.018923
vt 0.521899 0.005308
vt 0.530951 0.005308
vt 0.530951 0.018731
vt 0.521899 0.018731
vt 0.510568 0.005404
vt 0.520013 0.005404
vt 0.520013 0.018827
vt 0.510568 0.018827
vt 0.487905 0.005596
vt 0.497744 0.005596
vt 0.497744 0.019019
vt 0.487905 0.019019
vt 0.453912 0.005884
vt 0.464538 0.005884
vt 0.464538 0.019308
vt 0.453912 0.019308
vt 0.431249 0.006077
vt 0.441902 0.006077
vt 0.441902 0.019500
vt 0.431249 0.019500
vt 0.476574 0.005692
vt 0.486413 0.005692
vt 0.486413 0.019116
vt 0.476574 0.019116
vt 0.442580 0.005981
vt 0.453207 0.005981
vt 0.453207 0.019404
vt 0.442580 0.019404
vt 0.403578 0.006294
vt 0.414795 0.006294
vt 0.414795 0.019718
vt 0.403578 0.019718
vt 0.416804 0.006692
vt 0.428021 0.006692
vt 0.428021 0.020115
vt 0.416804 0.020115
vt 0.521238 0.977503
vt 0.521234 0.987920
vt 0.504474 0.987913
vt 0.504479 0.977496
vt 0.464180 0.987896
vt 0.464184 0.977479
vt 0.521243 0.967087
vt 0.504483 0.967080
vt 0.464189 0.967062
vt 0.521247 0.956670
vt 0.504488 0.956663
vt 0.464193 0.956646
vt 0.521251 0.946254
vt 0.504492 0.946247
vt 0.464198 0.946229
vt 0.521256 0.935837
vt 0.504497 0.935830
vt 0.464202 0.935813
vt 0.521260 0.925420
vt 0.504501 0.925413
vt 0.464206 0.925396
vt 0.521265 0.915004
vt 0.504505 0.914997
vt 0.464211 0.914980
vt 0.521269 0.904587
vt 0.504510 0.904580
vt 0.464215 0.904563
vt 0.521274 0.894171
vt 0.504514 0.894164
vt 0.464220 0.894146
vt 0.521278 0.883754
vt 0.504519 0.883747
vt 0.464224 0.883730
vt 0.521283 0.873338
vt 0.504523 0.873330
vt 0.464229 0.873313
vt 0.521287 0.862921
vt 0.504528 0.862914
vt 0.464233 0.862896
vt 0.521292 0.852504
vt 0.504532 0.852497
vt 0.464238 0.852480
vt 0.521296 0.842088
vt 0.504537 0.842081
vt 0.464242 0.842063
vt 0.521301 0.831671
vt 0.504541 0.831664
vt 0.464247 0.831647
vt 0.521305 0.821255
vt 0.504546 0.821248
vt 0.464251 0.821230
vt 0.521309 0.810838
vt 0.504550 0.810831
vt 0.464255 0.810814
vt 0.521314 0.800422
vt 0.504555 0.800414
vt 0.464260 0.800397
vt 0.521318 0.790005
vt 0.504559 0.789998
vt 0.464264 0.789981
vt 0.521323 0.779588
vt 0.504563 0.779581
vt 0.464269 0.779564
vt 0.521327 0.769172
vt 0.504568 0.769165
vt 0.464273 0.769147
vt 0.521332 0.758755
vt 0.504572 0.758748
vt 0.464278 0.758731
vt 0.521336 0.748339
vt 0.504577 0.748331
vt 0.464282 0.748314
vt 0.521341 0.737922
vt 0.504581 0.737915
vt 0.464287 0.737898
vt 0.521345 0.727505
vt 0.504586 0.727498
vt 0.464291 0.727481
vt 0.521350 0.717089
vt 0.504590 0.717082
vt 0.464296 0.717064
vt 0.521354 0.706672
vt 0.504595 0.706665
vt 0.464300 0.706648
vt 0.521359 0.696256
vt 0.504599 0.696249
vt 0.464305 0.696231
vt 0.521363 0.685839
vt 0.504604 0.685832
vt 0.464309 0.685815
vt 0.521368 0.675422
vt 0.504608 0.675415
vt 0.464313 0.675398
vt 0.521372 0.665006
vt 0.504613 0.664999
vt 0.464318 0.664981
vt 0.552115 0.987896
vt 0.552115 0.977479
vt 0.606634 0.977479
vt 0.606634 0.987896
vt 0.552115 0.967062
vt 0.606634 0.967062
vt 0.552115 0.956646
vt 0.606634 0.956646
vt 0.552115 0.946229
vt 0.606634 0.946229
vt 0.552115 0.935813
vt 0.606634 0.935813
vt 0.552115 0.925396
vt 0.606634 0.925396
vt 0.552115 0.914980
vt 0.606634 0.914980
vt 0.552115 0.904563
vt 0.606634 0.904563
vt 0.552115 0.894146
vt 0.606634 0.894146
vt 0.552115 0.883730
vt 0.606634 0.883730
vt 0.552115 0.873313
vt 0.606634 0.873313
vt 0.552115 0.862897
vt 0.606634 0.862897
vt 0.552115 0.852480
vt 0.606634 0.852480
vt 0.552115 0.842064
vt 0.606634 0.842064
vt 0.552115 0.831647
vt 0.606634 0.831647
vt 0.552115 0.821230
vt 0.606634 0.821230
vt 0.552115 0.810814
vt 0.606634 0.810814
vt 0.552115 0.800397
vt 0.606634 0.800397
vt 0.552115 0.789981
vt 0.606634 0.789981
vt 0.552115 0.779564
vt 0.606634 0.779564
vt 0.552115 0.769147
vt 0.606634 0.769147
vt 0.552115 0.758731
vt 0.606634 0.758731
vt 0.552115 0.748314
vt 0.606634 0.748314
vt 0.552115 0.737898
vt 0.606634 0.737898
vt 0.552115 0.727481
vt 0.606634 0.727481
vt 0.552115 0.717064
vt 0.606634 0.717065
vt 0.552115 0.706648
vt 0.606634 0.706648
vt 0.552115 0.696231
vt 0.606634 0.696231
vt 0.552115 0.685815
vt 0.606634 0.685815
vt 0.552115 0.675398
vt 0.606634 0.675398
vt 0.552115 0.664981
vt 0.606634 0.664981
vn 0.000000 1.000000 -0.000000
vn 0.000000 1.000000 -0.000000
vn 0.000000 1.000000 -0.000000
vn 0.000000 1.000000 -0.000000
vn 0.000000 1.000000 0.000000
vn 0.000000 1.000000 0.000000
vn 0.000000 1.000000 0.000000
vn 0.000000 1.000000 0.000000
vn 0.000000 1.000000 0.000000
vn 0.000000 1.000000 0.000000
vn 0.000000 1.000000 0.000000
vn 0.000000 1.000000 0.000000
vn 0.000000 1.000000 0.000000
vn 0.000000 1.000000 0.000000
vn 0.000000 1.000000 0.000000
vn 0.000000 1.000000 0.000000
vn 0.000000 1.000000 -0.000000
vn 0.000000 1.000000 -0.000000
vn 0.000000 1.000000 -0.000000
vn 0.000000 1.000000 -0.000000
vn 0.000000 1.000000 0.000000
vn 0.000000 1.000000 0.000000
vn 0.000000 1.000000 0.000000
vn 0.000000 1.000000 0.000000
vn 0.000000 1.000000 -0.000000
vn 0.000000 1.000000 -0.000000
vn 0.000000 1.000000 0.000000
vn 0.000000 1.000000 0.000000
vn 0.000000 1.000000 0.000000
vn 0.000000 1.000000 0.000000
vn 0.000000 1.000000 0.000000
vn 0.000000 1.000000 0.000000
vn 0.000000 1.000000 0.000000
vn 0.000000 1.000000 0.000000
vn -0.000000 1.000000 -0.000000
vn 0.000000 1.000000 -0.000000
vn 0.000000 1.000000 0.000000
vn 0.000000 1.000000 0.000000
vn 0.000000 1.000000 0.000000
vn 0.000000 1.000000 0.000000
vn 0.000000 1.000000 0.000000
vn 0.000000 1.000000 0.000000
vn 0.000000 1.000000 0.000000
vn 0.000000 1.000000 0.000000
vn 0.000000 1.000000 0.000000
vn -0.000000 1.000000 0.000000
vn -0.000000 1.000000 0.000000
vn 0.000000 1.000000 0.000000
vn -0.000000 1.000000 0.000000
vn -0.000000 1.000000 0.000000
vn -0.000000 1.000000 0.000000
vn -0.000000 1.000000 0.000000
vn 0.000000 1.000000 0.000000
vn 0.000000 1.000000 0.000000
vn 0.000000 1.000000 0.000000
vn 0.000000 1.000000 0.000000
vn -0.000000 1.000000 0.000000
vn -0.000000 1.000000 0.000000
vn 0.000000 1.000000 0.000000
vn 0.000000 1.000000 0.000000
vn 0.000000 1.000000 0.000000
vn 0.000000 1.000000 0.000000
vn 0.000000 1.000000 0.000000
vn 0.000000 1.000000 0.000000
vn 0.000000 1.000000 0.000000
vn 0.000000 1.000000 0.000000
vn -0.000000 1.000000 0.000000
vn -0.000000 1.000000 0.000000
vn -0.000000 1.000000 0.000000
vn -0.000000 1.000000 0.000000
vn -0.000000 1.000000 0.000000
vn -0.000000 1.000000 0.000000
vn 0.000000 1.000000 0.000000
vn 0.000000 1.000000 0.000000
vn -0.000000 1.000000 0.000000
vn -0.000000 1.000000 0.000000
vn 0.000000 1.000000 0.000000
vn 0.000000 1.000000 0.000000
vn 0.000000 1.000000 0.000000
vn 0.000000 1.000000 0.000000
vn -0.000000 1.000000 0.000000
vn -0.000000 1.000000 0.000000
vn 0.000000 1.000000 0.000000
vn 0.000000 1.000000 0.000000
vn 0.000000 1.000000 0.000000
vn 0.000000 1.000000 0.000000
vn -0.000000 1.000000 0.000000
vn -0.000000 1.000000 0.000000
vn -0.000000 1.000000 0.000000
vn -0.000000 1.000000 0.000000
vn 0.000000 1.000000 0.000000
vn 0.000000 1.000000 0.000000
vn -0.000000 1.000000 0.000000
vn -0.000000 1.000000 0.000000
vn -0.000000 1.000000 0.000000
vn -0.000000 1.000000 0.000000
vn 0.000000 1.000000 0.000000
vn 0.000000 1.000000 0.000000
vn 0.000000 1.000000 0.000000
vn 0.000000 1.000000 0.000000
vn -0.000000 1.000000 0.000000
vn -0.000000 1.000000 0.000000
vn -0.000000 1.000000 0.000000
vn -0.000000 1.000000 0.000000
vn 0.000000 1.000000 0.000000
vn 0.000000 1.000000 0.000000
vn 0.000001 1.000000 0.000000
vn 0.000001 1.000000 0.000000
vn 0.000000 -1.000000 0.000000
vn 0.000000 -1.000000 0.000000
vn 0.000000 -1.000000 0.000000
vn 0.000000 -1.000000 0.000000
vn 0.000000 -1.000000 0.000000
vn 0.000000 -1.000000 0.000000
vn 0.000000 -1.000000 0.000000
vn 0.000000 -1.000000 0.000000
vn 0.000000 -1.000000 0.000000
vn 0.000000 -1.000000 0.000000
vn 0.000000 -1.000000 0.000000
vn 0.000000 -1.000000 0.000000
vn 0.000000 -1.000000 0.000000
vn 0.000000 -1.000000 0.000000
vn 0.000000 -1.000000 0.000000
vn 0.000000 -1.000000 0.000000
vn 0.000000 -1.000000 0.000000
vn 0.000000 -1.000000 0.000000
vn 0.000000 -1.000000 0.000000
vn 0.000000 -1.000000 0.000000
vn 0.000000 -1.000000 0.000000
vn 0.000000 -1.000000 0.000000
vn 0.000000 -1.000000 0.000000
vn 0.000000 -1.000000 0.000000
vn 0.000000 -1.000000 0.000000
vn 0.000000 -1.000000 0.000000
vn 0.000000 -1.000000 0.000000
vn 0.000000 -1.000000 0.000000
vn 0.000000 -1.000000 0.000000
vn 0.000000 -1.000000 0.000000
vn 0.000000 -1.000000 0.000000
vn 0.000000 -1.000000 0.000000
vn 0.000000 -1.000000 0.000000
vn 0.000000 -1.000000 0.000000
vn 0.000000 -1.000000 0.000000
vn 0.000000 -1.000000 0.000000
vn 0.000000 -1.000000 0.000000
vn 0.000000 -1.000000 0.000000
vn 0.000000 -1.000000 0.000000
vn 0.000000 -1.000000 0.000000
vn 0.000000 -1.000000 0.000000
vn 0.000000 -1.000000 0.000000
vn 0.000000 -1.000000 0.000000
vn 0.000000 -1.000000 0.000000
vn -0.000000 -0.992266 -0.124126
vn 0.000000 -0.992945 -0.118575
vn 0.000000 -0.921166 -0.389171
vn -0.000000 -0.921165 -0.389171
vn 0.000000 -0.991485 -0.130220
vn 0.000000 -0.921165 -0.389172
vn 0.000000 -0.992266 -0.124126
vn 0.000000 -0.921165 -0.389171
vn -0.000000 -0.992267 -0.124126
vn -0.000000 -0.921165 -0.389171
vn 0.000000 -0.991485 -0.130220
vn 0.000000 -0.921165 -0.389171
vn 0.000000 -0.992266 -0.124126
vn 0.000000 -0.921165 -0.389171
vn -0.000000 -0.992267 -0.124126
vn -0.000000 -0.921165 -0.389171
vn 0.000000 -0.991485 -0.130220
vn 0.000000 -0.921165 -0.389172
vn 0.000000 -0.992267 -0.124126
vn 0.000000 -0.921165 -0.389171
vn -0.000000 -0.992266 -0.124126
vn -0.000000 -0.921165 -0.389171
vn -0.000000 -0.991485 -0.130220
vn 0.000000 -0.921165 -0.389172
vn 0.000000 -0.992266 -0.124126
vn 0.000000 -0.921165 -0.389171
vn -0.000000 -0.992266 -0.124126
vn -0.000000 -0.921165 -0.389171
vn 0.000000 -0.991485 -0.130220
vn 0.000000 -0.921165 -0.389172
vn 0.000000 -0.992266 -0.124126
vn 0.000000 -0.921165 -0.389171
vn -0.000000 -0.992266 -0.124126
vn -0.000000 -0.921165 -0.389171
vn 0.000000 -0.991485 -0.130220
vn -0.000000 -0.921165 -0.389172
vn 0.000000 -0.992267 -0.124126
vn 0.000000 -0.921165 -0.389171
vn -0.000000 -0.992266 -0.124126
vn -0.000000 -0.921165 -0.389171
vn 0.000000 -0.991485 -0.130220
vn 0.000000 -0.921165 -0.389171
vn 0.000000 -0.992266 -0.124126
vn 0.000000 -0.921165 -0.389171
vn -0.000000 -0.992267 -0.124126
vn -0.000000 -0.921165 -0.389171
vn -0.000000 -0.991485 -0.130220
vn 0.000000 -0.921165 -0.389171
vn 0.000000 -0.992266 -0.124126
vn 0.000000 -0.921165 -0.389171
vn -0.000000 -0.992266 -0.124126
vn -0.000000 -0.921165 -0.389171
vn 0.000000 -0.991485 -0.130220
vn 0.000000 -0.921165 -0.389172
vn 0.000000 -0.992266 -0.124126
vn 0.000000 -0.921165 -0.389171
vn -0.000000 -0.992266 -0.124126
vn -0.000000 -0.921165 -0.389171
vn 0.000000 -0.991485 -0.130220
vn 0.000000 -0.921165 -0.389172
vn 0.000000 -0.992266 -0.124126
vn 0.000000 -0.921165 -0.389171
vn 0.000000 -0.992945 -0.118575
vn 0.000000 -0.921166 -0.389171
vn 0.000000 0.000000 1.000000
vn 0.000000 0.000000 1.000000
vn 0.000000 0.000000 1.000000
vn 0.000000 0.000000 1.000000
vn 0.999570 0.000000 0.029325
vn 0.999570 0.000000 0.029325
vn 0.999570 0.000000 0.029325
vn 0.999570 0.000000 0.029325
vn -0.999837 0.000000 0.018033
vn -0.999570 0.000000 0.029325
vn -0.999570 0.000000 0.029325
vn -0.999837 0.000000 0.018033
vn 0.000000 0.000000 1.000000
vn 0.000000 0.000000 1.000000
vn 0.000000 0.000000 1.000000
vn 0.000000 0.000000 1.000000
vn 0.999501 0.000000 0.031578
vn 0.999501 0.000000 0.031578
vn 0.999501 0.000000 0.031579
vn 0.999501 0.000000 0.031579
vn -0.999501 0.000000 0.031578
vn -0.999501 0.000000 0.031578
vn -0.999501 0.000000 0.031578
vn -0.999501 0.000000 0.031578
vn 0.000000 0.000000 1.000000
vn 0.000000 0.000000 1.000000
vn 0.000000 0.000000 1.000000
vn 0.000000 0.000000 1.000000
vn 0.999453 0.000000 0.033081
vn 0.999453 0.000000 0.033081
vn 0.999453 0.000000 0.033081
vn 0.999453 0.000000 0.033081
vn -0.999453 0.000000 0.033081
vn -0.999453 0.000000 0.033081
vn -0.999453 0.000000 0.033081
vn -0.999453 0.000000 0.033081
vn 0.000000 0.000000 1.000000
vn 0.000000 0.000000 1.000000
vn 0.000000 0.000000 1.000000
vn 0.000000 0.000000 1.000000
vn 0.999501 0.000000 0.031579
vn 0.999501 0.000000 0.031579
vn 0.999501 0.000000 0.031578
vn 0.999501 0.000000 0.031578
vn -0.999501 0.000000 0.031578
vn -0.999501 0.000000 0.031579
vn -0.999501 0.000000 0.031579
vn -0.999501 0.000000 0.031578
vn 0.000000 0.000000 1.000000
vn 0.000000 0.000000 1.000000
vn 0.000000 0.000000 1.000000
vn 0.000000 0.000000 1.000000
vn 0.999548 0.000000 0.030076
vn 0.999548 0.000000 0.030076
vn 0.999548 0.000000 0.030076
vn 0.999548 0.000000 0.030076
vn -0.999548 0.000000 0.030076
vn -0.999548 0.000000 0.030076
vn -0.999548 0.000000 0.030076
vn -0.999548 0.000000 0.030076
vn 0.000000 0.000000 1.000000
vn 0.000000 0.000000 1.000000
vn 0.000000 0.000000 1.000000
vn 0.000000 0.000000 1.000000
vn 0.999634 0.000000 0.027071
vn 0.999634 0.000000 0.027071
vn 0.999634 0.000000 0.027071
vn 0.999634 0.000000 0.027071
vn -0.999634 0.000000 0.027071
vn -0.999634 0.000000 0.027071
vn -0.999634 0.000000 0.027071
vn -0.999634 0.000000 0.027071
vn 0.000000 0.000000 1.000000
vn 0.000000 0.000000 1.000000
vn 0.000000 0.000000 1.000000
vn 0.000000 0.000000 1.000000
vn 0.999636 0.000000 0.026971
vn 0.999636 0.000000 0.026971
vn 0.999636 0.000000 0.026971
vn 0.999636 0.000000 0.026971
vn -0.999636 0.000000 0.026971
vn -0.999636 0.000000 0.026971
vn -0.999636 0.000000 0.026971
vn -0.999636 0.000000 0.026971
vn 0.000000 0.000000 1.000000
vn 0.000000 0.000000 1.000000
vn 0.000000 0.000000 1.000000
vn 0.000000 0.000000 1.000000
vn 0.999548 0.000000 0.030076
vn 0.999548 0.000000 0.030076
vn 0.999548 0.000000 0.030076
vn 0.999548 0.000000 0.030076
vn -0.999548 0.000000 0.030076
vn -0.999548 0.000000 0.030076
vn -0.999548 0.000000 0.030076
vn -0.999548 0.000000 0.030076
vn 0.000000 0.000000 1.000000
vn 0.000000 0.000000 1.000000
vn 0.000000 0.000000 1.000000
vn 0.000000 0.000000 1.000000
vn 0.999634 0.000000 0.027071
vn 0.999634 0.000000 0.027071
vn 0.999634 0.000000 0.027071
vn 0.999634 0.000000 0.027071
vn -0.999634 0.000000 0.027071
vn -0.999634 0.000000 0.027071
vn -0.999634 0.000000 0.027071
vn -0.999634 0.000000 0.027071
vn 0.000000 0.000000 1.000000
vn 0.000000 0.000000 1.000000
vn 0.000000 0.000000 1.000000
vn 0.000000 0.000000 1.000000
vn 0.999692 0.000000 0.024816
vn 0.999692 0.000000 0.024816
vn 0.999692 0.000000 0.024816
vn 0.999692 0.000000 0.024816
vn -0.999692 0.000000 0.024817
vn -0.999692 0.000000 0.024816
vn -0.999692 0.000000 0.024816
vn -0.999692 0.000000 0.024817
vn 0.000000 0.000000 1.000000
vn 0.000000 0.000000 1.000000
vn 0.000000 0.000000 1.000000
vn 0.000000 0.000000 1.000000
vn 0.999692 0.000000 0.024816
vn 0.999692 0.000000 0.024816
vn 0.999884 0.000000 0.015260
vn 0.999884 0.000000 0.015260
vn -0.999692 0.000000 0.024816
vn -0.999692 0.000000 0.024816
vn -0.999692 0.000000 0.024816
vn -0.999692 0.000000 0.024816
vn 0.000000 -0.332964 -0.942940
vn 0.000000 -0.332964 -0.942940
vn 0.000000 -0.096932 -0.995291
vn 0.000000 -0.096932 -0.995291
vn -1.000000 0.000000 0.000000
vn -1.000000 0.000000 0.000000
vn -1.000000 0.000000 0.000000
vn -1.000000 0.000000 0.000000
vn 0.505242 0.000000 0.862978
vn 0.505242 0.000000 0.862978
vn 0.505242 0.000000 0.862978
vn 0.505242 0.000000 0.862978
vn 0.000000 -0.332964 -0.942940
vn 0.000000 -0.096932 -0.995291
vn -0.505243 0.000000 0.862977
vn -0.505243 0.000000 0.862977
vn -0.505243 0.000000 0.862977
vn -0.505243 0.000000 0.862977
vn 0.000000 -0.332964 -0.942940
vn 0.000000 -0.096932 -0.995291
vn 0.000000 -0.332964 -0.942940
vn 0.000000 -0.096932 -0.995291
vn 0.505243 0.000000 0.862977
vn 0.505243 0.000000 0.862977
vn 0.505243 0.000000 0.862977
vn 0.505243 0.000000 0.862977
vn 0.000000 -0.332964 -0.942940
vn 0.000000 -0.096932 -0.995291
vn -0.505242 0.000000 0.862978
vn -0.505242 0.000000 0.862978
vn -0.505242 0.000000 0.862978
vn -0.505242 0.000000 0.862978
vn 0.000000 -0.332964 -0.942940
vn 0.000000 -0.096932 -0.995291
vn 0.000000 -0.332964 -0.942940
vn 0.000000 -0.096932 -0.995291
vn 0.505243 0.000000 0.862977
vn 0.505243 0.000000 0.862977
vn 0.505243 0.000000 0.862977
vn 0.505243 0.000000 0.862977
vn 0.000000 -0.332964 -0.942940
vn 0.000000 -0.096932 -0.995291
vn -0.505243 0.000000 0.862977
vn -0.505243 0.000000 0.862977
vn -0.505243 0.000000 0.862977
vn -0.505243 0.000000 0.862977
vn 0.000000 -0.332964 -0.942940
vn 0.000000 -0.096932 -0.995291
vn 0.000000 -0.332964 -0.942940
vn 0.000000 -0.096932 -0.995291
vn 0.505243 0.000000 0.862977
vn 0.505243 0.000000 0.862977
vn 0.505243 0.000000 0.862977
vn 0.505243 0.000000 0.862977
vn 0.000000 -0.332964 -0.942940
vn 0.000000 -0.096932 -0.995291
vn -0.505243 0.000000 0.862977
vn -0.505243 0.000000 0.862977
vn -0.505243 0.000000 0.862977
vn -0.505243 0.000000 0.862977
vn 0.000000 -0.332964 -0.942940
vn 0.000000 -0.096932 -0.995291
vn 0.000000 -0.332964 -0.942940
vn 0.000000 -0.096932 -0.995291
vn 0.505243 0.000000 0.862977
vn 0.505243 0.000000 0.862977
vn 0.505243 0.000000 0.862977
vn 0.505243 0.000000 0.862977
vn 0.000000 -0.332964 -0.942940
vn 0.000000 -0.096932 -0.995291
vn -0.505243 0.000000 0.862977
vn -0.505243 0.000000 0.862977
vn -0.505243 0.000000 0.862977
vn -0.505243 0.000000 0.862977
vn 0.000000 -0.332964 -0.942940
vn 0.000000 -0.096932 -0.995291
vn 0.000000 -0.332964 -0.942940
vn 0.000000 -0.096932 -0.995291
vn 0.505243 0.000000 0.862977
vn 0.505243 0.000000 0.862977
vn 0.505243 0.000000 0.862977
vn 0.505243 0.000000 0.862977
vn 0.000000 -0.332964 -0.942940
vn 0.000000 -0.096932 -0.995291
vn -0.505242 0.000000 0.862978
vn -0.505242 0.000000 0.862978
vn -0.505242 0.000000 0.862978
vn -0.505242 0.000000 0.862978
vn 0.000000 -0.332964 -0.942940
vn 0.000000 -0.096932 -0.995291
vn 0.000000 -0.332964 -0.942940
vn 0.000000 -0.096932 -0.995291
vn 0.505243 0.000000 0.862977
vn 0.505243 0.000000 0.862977
vn 0.505243 0.000000 0.862977
vn 0.505243 0.000000 0.862977
vn 0.000000 -0.332964 -0.942940
vn 0.000000 -0.096932 -0.995291
vn -0.505243 0.000000 0.862977
vn -0.505243 0.000000 0.862977
vn -0.505243 0.000000 0.862977
vn -0.505243 0.000000 0.862977
vn 0.000000 -0.332964 -0.942940
vn 0.000000 -0.096932 -0.995291
vn 0.000000 -0.332964 -0.942940
vn 0.000000 -0.096932 -0.995291
vn 0.505242 0.000000 0.862978
vn 0.505242 0.000000 0.862978
vn 0.505242 0.000000 0.862978
vn 0.505242 0.000000 0.862978
vn 0.000000 -0.332964 -0.942940
vn 0.000000 -0.096932 -0.995291
vn -0.505243 0.000000 0.862977
vn -0.505243 0.000000 0.862977
vn -0.505243 0.000000 0.862977
vn -0.505243 0.000000 0.862977
vn 0.000000 -0.332964 -0.942940
vn 0.000000 -0.096932 -0.995291
vn 0.000000 -0.332964 -0.942940
vn 0.000000 -0.096932 -0.995291
vn 0.505243 0.000000 0.862977
vn 0.505243 0.000000 0.862977
vn 0.505242 0.000000 0.862977
vn 0.505243 0.000000 0.862977
vn 0.000000 -0.332964 -0.942940
vn 0.000000 -0.096932 -0.995291
vn -0.505242 0.000000 0.862978
vn -0.505242 0.000000 0.862978
vn -0.505242 0.000000 0.862978
vn -0.505242 0.000000 0.862978
vn 0.000000 -0.332964 -0.942940
vn 0.000000 -0.096932 -0.995291
vn 0.000000 -0.332964 -0.942940
vn 0.000000 -0.096932 -0.995291
vn 0.505243 0.000000 0.862977
vn 0.505243 0.000000 0.862977
vn 0.505243 0.000000 0.862977
vn 0.505243 0.000000 0.862977
vn 0.000000 -0.332964 -0.942940
vn 0.000000 -0.096932 -0.995291
vn -0.505241 0.000000 0.862978
vn -0.505241 0.000000 0.862978
vn -0.505241 0.000000 0.862978
vn -0.505241 0.000000 0.862978
vn 0.000000 -0.332964 -0.942940
vn 0.000000 -0.096932 -0.995291
vn 1.000000 0.000000 0.000000
vn 1.000000 0.000000 0.000000
vn 1.000000 0.000000 0.000000
vn 1.000000 0.000000 0.000000
vn 0.000000 -0.332964 -0.942940
vn 0.000000 -0.096932 -0.995291
vn -0.999570 0.000000 0.029325
vn -0.999570 0.000000 0.029325
vn 0.000000 1.000000 -0.000000
vn 0.000000 1.000000 -0.000000
vn 0.999570 0.000000 0.029325
vn 0.999570 0.000000 0.029325
vn 0.000000 -1.000000 0.000000
vn 0.000000 -1.000000 0.000000
vn -0.999501 0.000000 0.031578
vn -0.999501 0.000000 0.031578
vn 0.000000 1.000000 0.000000
vn 0.000000 1.000000 0.000000
vn 0.999501 0.000000 0.031578
vn 0.999501 0.000000 0.031578
vn 0.000000 -1.000000 0.000000
vn 0.000000 -1.000000 0.000000
vn -0.999453 0.000000 0.033081
vn -0.999453 0.000000 0.033081
vn 0.000000 1.000000 0.000000
vn 0.000000 1.000000 0.000000
vn 0.999453 0.000000 0.033081
vn 0.999453 0.000000 0.033081
vn 0.000000 -1.000000 0.000000
vn 0.000000 -1.000000 0.000000
vn -0.999501 0.000000 0.031579
vn -0.999501 0.000000 0.031579
vn 0.000000 1.000000 0.000000
vn 0.000000 1.000000 0.000000
vn 0.999501 0.000000 0.031579
vn 0.999501 0.000000 0.031579
vn 0.000000 -1.000000 0.000000
vn 0.000000 -1.000000 0.000000
vn -0.999548 0.000000 0.030076
vn -0.999548 0.000000 0.030076
vn 0.000000 1.000000 -0.000000
vn 0.000000 1.000000 -0.000000
vn 0.999548 0.000000 0.030076
vn 0.999548 0.000000 0.030076
vn 0.000000 -1.000000 0.000000
vn 0.000000 -1.000000 0.000000
vn -0.999634 0.000000 0.027071
vn -0.999634 0.000000 0.027071
vn 0.000000 1.000000 0.000000
vn 0.000000 1.000000 0.000000
vn 0.999634 0.000000 0.027071
vn 0.999634 0.000000 0.027071
vn 0.000000 -1.000000 0.000000
vn 0.000000 -1.000000 0.000000
vn -0.999636 0.000000 0.026971
vn -0.999636 0.000000 0.026971
vn 0.000000 1.000000 -0.000000
vn 0.000000 1.000000 -0.000000
vn 0.999636 0.000000 0.026971
vn 0.999636 0.000000 0.026971
vn 0.000000 -1.000000 0.000000
vn 0.000000 -1.000000 0.000000
vn -0.999548 0.000000 0.030076
vn -0.999548 0.000000 0.030076
vn 0.000000 1.000000 -0.000000
vn 0.000000 1.000000 -0.000000
vn 0.999548 0.000000 0.030076
vn 0.999548 0.000000 0.030076
vn 0.000000 -1.000000 0.000000
vn 0.000000 -1.000000 0.000000
vn -0.999634 0.000000 0.027071
vn -0.999634 0.000000 0.027071
vn 0.000000 1.000000 0.000000
vn 0.000000 1.000000 0.000000
vn 0.999634 0.000000 0.027071
vn 0.999634 0.000000 0.027071
vn 0.000000 -1.000000 0.000000
vn 0.000000 -1.000000 0.000000
vn -0.999692 0.000000 0.024816
vn -0.999692 0.000000 0.024816
vn 0.000000 1.000000 -0.000000
vn 0.000000 1.000000 -0.000000
vn 0.999692 0.000000 0.024816
vn 0.999692 0.000000 0.024816
vn 0.000000 -1.000000 0.000000
vn 0.000000 -1.000000 0.000000
vn -0.999692 0.000000 0.024816
vn -0.999692 0.000000 0.024816
vn 0.000000 1.000000 0.000000
vn 0.000000 1.000000 0.000000
vn 0.999692 0.000000 0.024817
vn 0.999692 0.000000 0.024817
vn 0.000000 -1.000000 0.000000
vn 0.000000 -1.000000 0.000000
vn 0.000000 1.000000 0.000000
vn 0.000000 1.000000 0.000000
vn 0.000000 1.000000 0.000000
vn 0.000000 1.000000 0.000000
vn 0.000000 1.000000 0.000000
vn 0.000000 1.000000 0.000000
vn 0.000000 1.000000 0.000000
vn 0.000000 1.000000 0.000000
vn 0.000000 1.000000 0.000000
vn 0.000000 1.000000 0.000000
vn 0.000000 1.000000 0.000000
vn 0.000000 1.000000 0.000000
vn 0.000000 1.000000 0.000000
vn 0.000000 1.000000 0.000000
vn 0.000000 1.000000 0.000000
vn 0.000000 1.000000 0.000000
vn 0.000000 1.000000 0.000000
vn 0.000000 1.000000 0.000000
vn 0.000000 1.000000 0.000000
vn 0.000000 1.000000 0.000000
vn 0.000000 1.000000 0.000000
vn 0.000000 1.000000 0.000000
vn 0.000000 1.000000 0.000000
vn 0.000000 1.000000 0.000000
vn 0.000000 1.000000 0.000000
vn 0.000000 1.000000 0.000000
vn 0.000000 1.000000 0.000000
vn 0.000000 1.000000 0.000000
vn 0.000000 1.000000 0.000000
vn 0.000000 1.000000 0.000000
vn 0.000000 1.000000 0.000000
vn 0.000000 1.000000 0.000000
vn 0.000000 1.000000 0.000000
vn -0.000000 1.000000 0.000000
vn -0.000000 1.000000 0.000000
vn -0.000000 1.000000 0.000000
vn 0.000000 1.000000 0.000000
vn 0.000000 1.000000 0.000000
vn 0.000000 1.000000 0.000000
vn 0.000000 1.000000 0.000000
vn 0.000000 1.000000 0.000000
vn 0.000000 1.000000 0.000000
vn 0.000000 -1.000000 0.000000
vn 0.000000 -1.000000 0.000000
vn 0.000000 -1.000000 0.000000
vn 0.000000 -1.000000 0.000000
vn 0.000000 -1.000000 0.000000
vn 0.000000 -1.000000 0.000000
vn 0.000000 -1.000000 0.000000
vn 0.000000 -1.000000 0.000000
vn 0.000000 -1.000000 0.000000
vn 0.000000 -1.000000 0.000000
vn 0.000000 0.000000 1.000000
vn 0.000002 0.000000 1.000000
vn 0.000002 0.000000 1.000000
vn 0.000000 0.000000 1.000000
vn 0.000000 0.000000 -1.000000
vn 0.000000 0.000000 -1.000000
vn -1.000000 0.000000 0.000000
vn -1.000000 0.000000 0.000000
vn 0.000000 0.000000 1.000000
vn 0.000000 0.000000 1.000000
vn 0.000000 0.000000 -1.000000
vn -0.000002 0.000000 1.000000
vn -0.000002 0.000000 1.000000
vn 0.000000 0.000000 -1.000000
vn 0.000002 0.000000 1.000000
vn 0.000002 0.000000 1.000000
vn 0.000000 0.000000 -1.000000
vn 0.000000 0.000000 1.000000
vn 0.000000 0.000000 1.000000
vn 0.000000 0.000000 -1.000000
vn -0.000002 0.000000 1.000000
vn -0.000002 0.000000 1.000000
vn 0.000000 0.000000 -1.000000
vn 0.000002 0.000000 1.000000
vn 0.000002 0.000000 1.000000
vn 0.000000 0.000000 -1.000000
vn -0.000000 0.000000 1.000000
vn -0.000000 0.000000 1.000000
vn 0.000000 0.000000 -1.000000
vn -0.000002 0.000000 1.000000
vn -0.000002 0.000000 1.000000
vn 0.000000 0.000000 -1.000000
vn 0.000002 0.000000 1.000000
vn 0.000002 0.000000 1.000000
vn 0.000000 0.000000 -1.000000
vn 0.000000 0.000000 1.000000
vn -0.000000 0.000000 1.000000
vn 0.000000 0.000000 -1.000000
vn -0.000002 0.000000 1.000000
vn -0.000002 0.000000 1.000000
vn 0.000000 0.000000 -1.000000
vn 0.000002 0.000000 1.000000
vn 0.000002 0.000000 1.000000
vn 0.000000 0.000000 -1.000000
vn -0.000000 0.000000 1.000000
vn -0.000000 0.000000 1.000000
vn 0.000000 0.000000 -1.000000
vn -0.000002 0.000000 1.000000
vn -0.000002 0.000000 1.000000
vn 0.000000 0.000000 -1.000000
vn 0.000002 0.000000 1.000000
vn 0.000002 0.000000 1.000000
vn 0.000000 0.000000 -1.000000
vn 0.000000 0.000000 1.000000
vn 0.000000 0.000000 1.000000
vn 0.000000 0.000000 -1.000000
vn -0.000002 0.000000 1.000000
vn -0.000002 0.000000 1.000000
vn 0.000000 0.000000 -1.000000
vn 0.000002 0.000000 1.000000
vn 0.000002 0.000000 1.000000
vn 0.000000 0.000000 -1.000000
vn 0.000000 0.000000 1.000000
vn 0.000000 0.000000 1.000000
vn 0.000000 0.000000 -1.000000
vn -0.000002 0.000000 1.000000
vn -0.000002 0.000000 1.000000
vn 0.000000 0.000000 -1.000000
vn 0.000002 0.000000 1.000000
vn 0.000002 0.000000 1.000000
vn 0.000000 0.000000 -1.000000
vn -0.000000 0.000000 1.000000
vn 0.000000 0.000000 1.000000
vn 0.000000 0.000000 -1.000000
vn -0.000002 0.000000 1.000000
vn -0.000002 0.000000 1.000000
vn 0.000000 0.000000 -1.000000
vn 0.000002 0.000000 1.000000
vn 0.000002 0.000000 1.000000
vn 0.000000 0.000000 -1.000000
vn -0.000000 0.000000 1.000000
vn -0.000000 0.000000 1.000000
vn 0.000000 0.000000 -1.000000
vn -0.000002 0.000000 1.000000
vn -0.000002 0.000000 1.000000
vn 0.000000 0.000000 -1.000000
vn 0.000002 0.000000 1.000000
vn 0.000002 0.000000 1.000000
vn 0.000000 0.000000 -1.000000
vn 0.000000 0.000000 1.000000
vn 0.000000 0.000000 1.000000
vn 0.000000 0.000000 -1.000000
vn -0.000002 0.000000 1.000000
vn -0.000002 0.000000 1.000000
vn 0.000000 0.000000 -1.000000
vn 0.000000 0.000000 1.000000
vn 0.000000 0.000000 1.000000
vn 1.000000 0.000000 0.000000
vn 1.000000 0.000000 0.000000
vn 0.000000 0.000000 -1.000000
s 1
g pPlane3 Pitchfork
usemtl initialShadingGroup
f 174/185/1 175/186/2 89/187/3 90/188/4
f 178/199/5 179/200/6 93/197/7 94/195/8
f 182/209/9 183/210/10 97/207/11 98/205/12
f 186/219/13 187/220/14 101/217/15 102/215/16
f 190/229/17 191/230/18 105/227/19 106/225/20
f 194/239/21 195/240/22 109/237/23 110/235/24
f 198/249/25 199/250/26 113/247/27 114/245/28
f 202/259/29 203/260/30 117/257/31 118/255/32
f 206/269/33 207/270/34 121/267/35 122/265/36
f 210/279/37 211/280/38 125/277/39 126/275/40
f 214/289/41 215/290/42 129/287/43 130/285/44
s 12
f 281/293/45 282/294/46 283/295/47 284/296/48
f 282/294/46 285/297/49 286/298/50 283/295/47
f 285/297/49 287/299/51 288/300/52 286/298/50
f 287/299/51 289/301/53 290/302/54 288/300/52
f 289/301/53 291/303/55 292/304/56 290/302/54
f 291/303/55 293/305/57 294/306/58 292/304/56
f 293/305/57 295/307/59 296/308/60 294/306/58
f 295/307/59 297/309/61 298/310/62 296/308/60
f 297/309/61 299/311/63 300/312/64 298/310/62
f 299/311/63 301/313/65 302/314/66 300/312/64
f 301/313/65 303/315/67 304/316/68 302/314/66
f 303/315/67 305/317/69 306/318/70 304/316/68
f 305/317/69 307/319/71 308/320/72 306/318/70
f 307/319/71 309/321/73 310/322/74 308/320/72
f 309/321/73 311/323/75 312/324/76 310/322/74
f 311/323/75 313/325/77 314/326/78 312/324/76
f 313/325/77 315/327/79 316/328/80 314/326/78
f 315/327/79 317/329/81 318/330/82 316/328/80
f 317/329/81 319/331/83 320/332/84 318/330/82
f 319/331/83 321/333/85 322/334/86 320/332/84
f 321/333/85 323/335/87 324/336/88 322/334/86
f 323/335/87 325/337/89 326/338/90 324/336/88
f 325/337/89 327/339/91 328/340/92 326/338/90
f 327/339/91 329/341/93 330/342/94 328/340/92
f 329/341/93 331/343/95 332/344/96 330/342/94
f 331/343/95 333/345/97 334/346/98 332/344/96
f 333/345/97 335/347/99 336/348/100 334/346/98
f 335/347/99 337/349/101 338/350/102 336/348/100
f 337/349/101 339/351/103 340/352/104 338/350/102
f 339/351/103 341/353/105 342/354/106 340/352/104
f 341/353/105 343/355/107 344/356/108 342/354/106
s 13
f 176/357/109 173/358/110 23/359/111 24/360/112
f 180/378/113 177/379/114 26/371/115 27/374/116
f 184/391/117 181/392/118 29/382/119 30/387/120
f 188/404/121 185/405/122 32/395/123 33/400/124
f 192/417/125 189/418/126 35/408/127 36/413/128
f 196/430/129 193/431/130 38/421/131 39/426/132
f 200/443/133 197/444/134 41/434/135 42/439/136
f 204/456/137 201/457/138 44/447/139 45/452/140
f 208/469/141 205/470/142 47/460/143 48/465/144
f 212/482/145 209/483/146 50/473/147 51/478/148
f 216/493/149 213/494/150 53/486/151 54/491/152
f 280/364/153 217/363/154 55/365/155 56/366/156
f 279/367/157 280/364/153 56/366/156 57/369/158
f 278/370/159 279/367/157 57/369/158 58/372/160
f 277/373/161 278/370/159 58/372/160 59/375/162
f 276/376/163 277/373/161 59/375/162 60/380/164
f 275/381/165 276/376/163 60/380/164 61/385/166
f 274/386/167 275/381/165 61/385/166 62/388/168
f 273/389/169 274/386/167 62/388/168 63/393/170
f 272/394/171 273/389/169 63/393/170 64/398/172
f 271/399/173 272/394/171 64/398/172 65/401/174
f 270/402/175 271/399/173 65/401/174 66/406/176
f 269/407/177 270/402/175 66/406/176 67/411/178
f 268/412/179 269/407/177 67/411/178 68/414/180
f 267/415/181 268/412/179 68/414/180 69/419/182
f 266/420/183 267/415/181 69/419/182 70/424/184
f 265/425/185 266/420/183 70/424/184 71/427/186
f 264/428/187 265/425/185 71/427/186 72/432/188
f 263/433/189 264/428/187 72/432/188 73/437/190
f 262/438/191 263/433/189 73/437/190 74/440/192
f 261/441/193 262/438/191 74/440/192 75/445/194
f 260/446/195 261/441/193 75/445/194 76/450/196
f 259/451/197 260/446/195 76/450/196 77/453/198
f 258/454/199 259/451/197 77/453/198 78/458/200
f 257/459/201 258/454/199 78/458/200 79/463/202
f 256/464/203 257/459/201 79/463/202 80/466/204
f 255/467/205 256/464/203 80/466/204 81/471/206
f 254/472/207 255/467/205 81/471/206 82/476/208
f 253/477/209 254/472/207 82/476/208 83/479/210
f 252/480/211 253/477/209 83/479/210 84/484/212
f 251/485/213 252/480/211 84/484/212 85/489/214
f 250/490/215 251/485/213 85/489/214 86/492/216
s off
f 1/497/217 2/498/218 88/499/219 87/500/220
s 24
f 175/1/221 176/2/222 24/3/223 89/4/224
s 25
f 23/9/225 173/10/226 174/11/227 90/12/228
s off
f 3/501/229 4/502/230 92/503/231 91/504/232
s 26
f 179/21/233 180/22/234 27/23/235 93/24/236
s 27
f 26/29/237 177/30/238 178/31/239 94/32/240
s off
f 5/505/241 6/506/242 96/507/243 95/508/244
s 28
f 183/37/245 184/38/246 30/39/247 97/40/248
s 29
f 29/45/249 181/46/250 182/47/251 98/48/252
s off
f 7/509/253 8/510/254 100/511/255 99/512/256
s 30
f 187/53/257 188/54/258 33/55/259 101/56/260
s 31
f 32/61/261 185/62/262 186/63/263 102/64/264
s off
f 9/513/265 10/514/266 104/515/267 103/516/268
s 32
f 191/69/269 192/70/270 36/71/271 105/72/272
s 33
f 35/77/273 189/78/274 190/79/275 106/80/276
s off
f 11/517/277 12/518/278 108/519/279 107/520/280
s 34
f 195/85/281 196/86/282 39/87/283 109/88/284
s 35
f 38/93/285 193/94/286 194/95/287 110/96/288
s off
f 13/521/289 14/522/290 112/523/291 111/524/292
s 36
f 199/101/293 200/102/294 42/103/295 113/104/296
s 37
f 41/109/297 197/110/298 198/111/299 114/112/300
s off
f 15/525/301 16/526/302 116/527/303 115/528/304
s 38
f 203/117/305 204/118/306 45/119/307 117/120/308
s 39
f 44/125/309 201/126/310 202/127/311 118/128/312
s off
f 17/529/313 18/530/314 120/531/315 119/532/316
s 40
f 207/133/317 208/134/318 48/135/319 121/136/320
s 41
f 47/141/321 205/142/322 206/143/323 122/144/324
s off
f 19/533/325 20/534/326 124/535/327 123/536/328
s 42
f 211/149/329 212/150/330 51/151/331 125/152/332
s 43
f 50/157/333 209/158/334 210/159/335 126/160/336
s off
f 21/537/337 22/538/338 128/539/339 127/540/340
s 44
f 215/165/341 216/166/342 54/167/343 129/168/344
s 45
f 53/177/345 213/178/346 214/179/347 130/180/348
s 46
f 56/541/349 55/542/350 132/543/351 131/544/352
s 25
f 55/17/353 217/16/354 218/15/355 132/18/356
s off
f 24/3/357 25/7/358 133/8/359 89/4/360
s 46
f 57/547/361 56/541/349 131/544/352 134/548/362
s off
f 25/35/363 26/29/364 94/32/365 133/36/366
s 46
f 58/550/367 57/547/361 134/548/362 135/551/368
f 59/553/369 58/550/367 135/551/368 136/554/370
s off
f 27/23/371 28/27/372 137/28/373 93/24/374
s 46
f 60/556/375 59/553/369 136/554/370 138/557/376
s off
f 28/51/377 29/45/378 98/48/379 137/52/380
s 46
f 61/559/381 60/556/375 138/557/376 139/560/382
f 62/562/383 61/559/381 139/560/382 140/563/384
s off
f 30/39/385 31/43/386 141/44/387 97/40/388
s 46
f 63/565/389 62/562/383 140/563/384 142/566/390
s off
f 31/67/391 32/61/392 102/64/393 141/68/394
s 46
f 64/568/395 63/565/389 142/566/390 143/569/396
f 65/571/397 64/568/395 143/569/396 144/572/398
s off
f 33/55/399 34/59/400 145/60/401 101/56/402
s 46
f 66/574/403 65/571/397 144/572/398 146/575/404
s off
f 34/83/405 35/77/406 106/80/407 145/84/408
s 46
f 67/577/409 66/574/403 146/575/404 147/578/410
f 68/580/411 67/577/409 147/578/410 148/581/412
s off
f 36/71/413 37/75/414 149/76/415 105/72/416
s 46
f 69/583/417 68/580/411 148/581/412 150/584/418
s off
f 37/99/419 38/93/420 110/96/421 149/100/422
s 46
f 70/586/423 69/583/417 150/584/418 151/587/424
f 71/589/425 70/586/423 151/587/424 152/590/426
s off
f 39/87/427 40/91/428 153/92/429 109/88/430
s 46
f 72/592/431 71/589/425 152/590/426 154/593/432
s off
f 40/115/433 41/109/434 114/112/435 153/116/436
s 46
f 73/595/437 72/592/431 154/593/432 155/596/438
f 74/598/439 73/595/437 155/596/438 156/599/440
s off
f 42/103/441 43/107/442 157/108/443 113/104/444
s 46
f 75/601/445 74/598/439 156/599/440 158/602/446
s off
f 43/131/447 44/125/448 118/128/449 157/132/450
s 46
f 76/604/451 75/601/445 158/602/446 159/605/452
f 77/607/453 76/604/451 159/605/452 160/608/454
s off
f 45/119/455 46/123/456 161/124/457 117/120/458
s 46
f 78/610/459 77/607/453 160/608/454 162/611/460
s off
f 46/147/461 47/141/462 122/144/463 161/148/464
s 46
f 79/613/465 78/610/459 162/611/460 163/614/466
f 80/616/467 79/613/465 163/614/466 164/617/468
s off
f 48/135/469 49/139/470 165/140/471 121/136/472
s 46
f 81/619/473 80/616/467 164/617/468 166/620/474
s off
f 49/163/475 50/157/476 126/160/477 165/164/478
s 46
f 82/622/479 81/619/473 166/620/474 167/623/480
f 83/625/481 82/622/479 167/623/480 168/626/482
s off
f 51/151/483 52/155/484 169/156/485 125/152/486
s 46
f 84/628/487 83/625/481 168/626/482 170/629/488
s off
f 52/183/489 53/177/490 130/180/491 169/184/492
s 46
f 85/631/493 84/628/487 170/629/488 171/632/494
s 44
f 249/172/495 250/171/496 86/173/497 172/174/498
s 46
f 86/634/499 85/631/493 171/632/494 172/635/500
s 25
f 174/11/227 173/10/226 1/13/501 87/14/502
s 1
f 87/189/503 88/190/504 175/186/2 174/185/1
s 24
f 2/5/505 176/2/222 175/1/221 88/6/506
s 13
f 1/361/507 173/358/110 176/357/109 2/362/508
s 27
f 178/31/239 177/30/238 3/33/509 91/34/510
s 1
f 91/203/511 92/204/512 179/200/6 178/199/5
s 26
f 4/25/513 180/22/234 179/21/233 92/26/514
s 13
f 3/383/515 177/379/114 180/378/113 4/384/516
s 29
f 182/47/251 181/46/250 5/49/517 95/50/518
s 1
f 95/213/519 96/214/520 183/210/10 182/209/9
s 28
f 6/41/521 184/38/246 183/37/245 96/42/522
s 13
f 5/396/523 181/392/118 184/391/117 6/397/524
s 31
f 186/63/263 185/62/262 7/65/525 99/66/526
s 1
f 99/223/527 100/224/528 187/220/14 186/219/13
s 30
f 8/57/529 188/54/258 187/53/257 100/58/530
s 13
f 7/409/531 185/405/122 188/404/121 8/410/532
s 33
f 190/79/275 189/78/274 9/81/533 103/82/534
s 1
f 103/233/535 104/234/536 191/230/18 190/229/17
s 32
f 10/73/537 192/70/270 191/69/269 104/74/538
s 13
f 9/422/539 189/418/126 192/417/125 10/423/540
s 35
f 194/95/287 193/94/286 11/97/541 107/98/542
s 1
f 107/243/543 108/244/544 195/240/22 194/239/21
s 34
f 12/89/545 196/86/282 195/85/281 108/90/546
s 13
f 11/435/547 193/431/130 196/430/129 12/436/548
s 37
f 198/111/299 197/110/298 13/113/549 111/114/550
s 1
f 111/253/551 112/254/552 199/250/26 198/249/25
s 36
f 14/105/553 200/102/294 199/101/293 112/106/554
s 13
f 13/448/555 197/444/134 200/443/133 14/449/556
s 39
f 202/127/311 201/126/310 15/129/557 115/130/558
s 1
f 115/263/559 116/264/560 203/260/30 202/259/29
s 38
f 16/121/561 204/118/306 203/117/305 116/122/562
s 13
f 15/461/563 201/457/138 204/456/137 16/462/564
s 41
f 206/143/323 205/142/322 17/145/565 119/146/566
s 1
f 119/273/567 120/274/568 207/270/34 206/269/33
s 40
f 18/137/569 208/134/318 207/133/317 120/138/570
s 13
f 17/474/571 205/470/142 208/469/141 18/475/572
s 43
f 210/159/335 209/158/334 19/161/573 123/162/574
s 1
f 123/283/575 124/284/576 211/280/38 210/279/37
s 42
f 20/153/577 212/150/330 211/149/329 124/154/578
s 13
f 19/487/579 209/483/146 212/482/145 20/488/580
s 45
f 214/179/347 213/178/346 21/181/581 127/182/582
s 1
f 127/291/583 128/292/584 215/290/42 214/289/41
s 44
f 22/169/585 216/166/342 215/165/341 128/170/586
s 13
f 21/495/587 213/494/150 216/493/149 22/496/588
s 25
f 218/15/355 217/16/354 23/9/225 90/12/228
s 1
f 90/188/4 89/187/3 219/191/589 218/192/590
f 89/187/3 133/193/591 220/194/592 219/191/589
f 133/193/591 94/195/8 221/196/593 220/194/592
f 94/195/8 93/197/7 222/198/594 221/196/593
f 93/197/7 137/201/595 223/202/596 222/198/594
f 137/201/595 98/205/12 224/206/597 223/202/596
f 98/205/12 97/207/11 225/208/598 224/206/597
f 97/207/11 141/211/599 226/212/600 225/208/598
f 141/211/599 102/215/16 227/216/601 226/212/600
f 102/215/16 101/217/15 228/218/602 227/216/601
f 101/217/15 145/221/603 229/222/604 228/218/602
f 145/221/603 106/225/20 230/226/605 229/222/604
f 106/225/20 105/227/19 231/228/606 230/226/605
f 105/227/19 149/231/607 232/232/608 231/228/606
f 149/231/607 110/235/24 233/236/609 232/232/608
f 110/235/24 109/237/23 234/238/610 233/236/609
f 109/237/23 153/241/611 235/242/612 234/238/610
f 153/241/611 114/245/28 236/246/613 235/242/612
f 114/245/28 113/247/27 237/248/614 236/246/613
f 113/247/27 157/251/615 238/252/616 237/248/614
f 157/251/615 118/255/32 239/256/617 238/252/616
f 118/255/32 117/257/31 240/258/618 239/256/617
f 117/257/31 161/261/619 241/262/620 240/258/618
f 161/261/619 122/265/36 242/266/621 241/262/620
f 122/265/36 121/267/35 243/268/622 242/266/621
f 121/267/35 165/271/623 244/272/624 243/268/622
f 165/271/623 126/275/40 245/276/625 244/272/624
f 126/275/40 125/277/39 246/278/626 245/276/625
f 125/277/39 169/281/627 247/282/628 246/278/626
f 169/281/627 130/285/44 248/286/629 247/282/628
f 130/285/44 129/287/43 249/288/630 248/286/629
s 44
f 54/167/343 250/171/496 249/172/495 129/168/344
s 13
f 53/486/151 251/485/213 250/490/215 54/491/152
f 52/481/631 252/480/211 251/485/213 53/486/151
f 51/478/148 253/477/209 252/480/211 52/481/631
f 50/473/147 254/472/207 253/477/209 51/478/148
f 49/468/632 255/467/205 254/472/207 50/473/147
f 48/465/144 256/464/203 255/467/205 49/468/632
f 47/460/143 257/459/201 256/464/203 48/465/144
f 46/455/633 258/454/199 257/459/201 47/460/143
f 45/452/140 259/451/197 258/454/199 46/455/633
f 44/447/139 260/446/195 259/451/197 45/452/140
f 43/442/634 261/441/193 260/446/195 44/447/139
f 42/439/136 262/438/191 261/441/193 43/442/634
f 41/434/135 263/433/189 262/438/191 42/439/136
f 40/429/635 264/428/187 263/433/189 41/434/135
f 39/426/132 265/425/185 264/428/187 40/429/635
f 38/421/131 266/420/183 265/425/185 39/426/132
f 37/416/636 267/415/181 266/420/183 38/421/131
f 36/413/128 268/412/179 267/415/181 37/416/636
f 35/408/127 269/407/177 268/412/179 36/413/128
f 34/403/637 270/402/175 269/407/177 35/408/127
f 33/400/124 271/399/173 270/402/175 34/403/637
f 32/395/123 272/394/171 271/399/173 33/400/124
f 31/390/638 273/389/169 272/394/171 32/395/123
f 30/387/120 274/386/167 273/389/169 31/390/638
f 29/382/119 275/381/165 274/386/167 30/387/120
f 28/377/639 276/376/163 275/381/165 29/382/119
f 27/374/116 277/373/161 276/376/163 28/377/639
f 26/371/115 278/370/159 277/373/161 27/374/116
f 25/368/640 279/367/157 278/370/159 26/371/115
f 24/360/112 280/364/153 279/367/157 25/368/640
f 23/359/111 217/363/154 280/364/153 24/360/112
s 47
f 218/637/641 219/638/642 282/639/643 281/640/644
s 46
f 131/544/352 132/543/351 284/545/645 283/546/646
s 25
f 132/18/356 218/15/355 281/19/647 284/20/648
s 47
f 219/638/642 220/641/649 285/642/650 282/639/643
s 46
f 134/548/362 131/544/352 283/546/646 286/549/651
s 47
f 220/641/649 221/643/652 287/644/653 285/642/650
s 46
f 135/551/368 134/548/362 286/549/651 288/552/654
s 47
f 221/643/652 222/645/655 289/646/656 287/644/653
s 46
f 136/554/370 135/551/368 288/552/654 290/555/657
s 47
f 222/645/655 223/647/658 291/648/659 289/646/656
s 46
f 138/557/376 136/554/370 290/555/657 292/558/660
s 47
f 223/647/658 224/649/661 293/650/662 291/648/659
s 46
f 139/560/382 138/557/376 292/558/660 294/561/663
s 47
f 224/649/661 225/651/664 295/652/665 293/650/662
s 46
f 140/563/384 139/560/382 294/561/663 296/564/666
s 47
f 225/651/664 226/653/667 297/654/668 295/652/665
s 46
f 142/566/390 140/563/384 296/564/666 298/567/669
s 47
f 226/653/667 227/655/670 299/656/671 297/654/668
s 46
f 143/569/396 142/566/390 298/567/669 300/570/672
s 47
f 227/655/670 228/657/673 301/658/674 299/656/671
s 46
f 144/572/398 143/569/396 300/570/672 302/573/675
s 47
f 228/657/673 229/659/676 303/660/677 301/658/674
s 46
f 146/575/404 144/572/398 302/573/675 304/576/678
s 47
f 229/659/676 230/661/679 305/662/680 303/660/677
s 46
f 147/578/410 146/575/404 304/576/678 306/579/681
s 47
f 230/661/679 231/663/682 307/664/683 305/662/680
s 46
f 148/581/412 147/578/410 306/579/681 308/582/684
s 47
f 231/663/682 232/665/685 309/666/686 307/664/683
s 46
f 150/584/418 148/581/412 308/582/684 310/585/687
s 47
f 232/665/685 233/667/688 311/668/689 309/666/686
s 46
f 151/587/424 150/584/418 310/585/687 312/588/690
s 47
f 233/667/688 234/669/691 313/670/692 311/668/689
s 46
f 152/590/426 151/587/424 312/588/690 314/591/693
s 47
f 234/669/691 235/671/694 315/672/695 313/670/692
s 46
f 154/593/432 152/590/426 314/591/693 316/594/696
s 47
f 235/671/694 236/673/697 317/674/698 315/672/695
s 46
f 155/596/438 154/593/432 316/594/696 318/597/699
s 47
f 236/673/697 237/675/700 319/676/701 317/674/698
s 46
f 156/599/440 155/596/438 318/597/699 320/600/702
s 47
f 237/675/700 238/677/703 321/678/704 319/676/701
s 46
f 158/602/446 156/599/440 320/600/702 322/603/705
s 47
f 238/677/703 239/679/706 323/680/707 321/678/704
s 46
f 159/605/452 158/602/446 322/603/705 324/606/708
s 47
f 239/679/706 240/681/709 325/682/710 323/680/707
s 46
f 160/608/454 159/605/452 324/606/708 326/609/711
s 47
f 240/681/709 241/683/712 327/684/713 325/682/710
s 46
f 162/611/460 160/608/454 326/609/711 328/612/714
s 47
f 241/683/712 242/685/715 329/686/716 327/684/713
s 46
f 163/614/466 162/611/460 328/612/714 330/615/717
s 47
f 242/685/715 243/687/718 331/688/719 329/686/716
s 46
f 164/617/468 163/614/466 330/615/717 332/618/720
s 47
f 243/687/718 244/689/721 333/690/722 331/688/719
s 46
f 166/620/474 164/617/468 332/618/720 334/621/723
s 47
f 244/689/721 245/691/724 335/692/725 333/690/722
s 46
f 167/623/480 166/620/474 334/621/723 336/624/726
s 47
f 245/691/724 246/693/727 337/694/728 335/692/725
s 46
f 168/626/482 167/623/480 336/624/726 338/627/729
s 47
f 246/693/727 247/695/730 339/696/731 337/694/728
s 46
f 170/629/488 168/626/482 338/627/729 340/630/732
s 47
f 247/695/730 248/697/733 341/698/734 339/696/731
s 46
f 171/632/494 170/629/488 340/630/732 342/633/735
s 47
f 248/697/733 249/699/736 343/700/737 341/698/734
s 44
f 249/172/495 172/174/498 344/175/738 343/176/739
s 46
f 172/635/500 171/632/494 342/633/735 344/636/740
g default
v 0.055393 0.195029 -0.198024
v 0.021158 0.195029 -0.222897
v -0.021158 0.195029 -0.222897
v -0.055393 0.195029 -0.198024
v -0.068469 0.195029 -0.157779
v -0.055393 0.195029 -0.117534
v -0.021158 0.195029 -0.092661
v 0.021158 0.195029 -0.092661
v 0.055393 0.195029 -0.117534
v 0.068469 0.195029 -0.157779
v 0.038997 5.178937 -0.186112
v 0.014896 5.178937 -0.203623
v -0.014896 5.178937 -0.203623
v -0.038997 5.178937 -0.186112
v -0.048203 5.178937 -0.157779
v -0.038997 5.178937 -0.129446
v -0.014896 5.178937 -0.111935
v 0.014896 5.178937 -0.111935
v 0.038997 5.178937 -0.129446
v 0.048203 5.178937 -0.157779
v -0.000000 5.178937 -0.157779
v 0.035758 0.322535 -0.183758
v 0.013658 0.322535 -0.199815
v -0.013658 0.322535 -0.199815
v -0.035758 0.322535 -0.183758
v -0.044199 0.322535 -0.157779
v -0.035758 0.322535 -0.131799
v -0.013658 0.322535 -0.115743
v 0.013658 0.322535 -0.115743
v 0.035758 0.322535 -0.131799
v 0.044199 0.322535 -0.157779
v 0.046611 0.195029 -0.191644
v 0.017804 0.195029 -0.212573
v 0.000000 0.195029 -0.157779
v -0.017804 0.195029 -0.212573
v -0.046611 0.195029 -0.191644
v -0.057614 0.195029 -0.157779
v -0.046611 0.195029 -0.123914
v -0.017804 0.195029 -0.102984
v 0.017804 0.195029 -0.102984
v 0.046611 0.195029 -0.123914
v 0.057614 0.195029 -0.157779
v 0.052823 0.082307 -0.207451
v 0.020176 0.082307 -0.207322
v 0.046611 0.082307 -0.201610
v 0.017804 0.082307 -0.201496
v -0.020176 0.082307 -0.207322
v -0.017804 0.082307 -0.201496
v -0.052823 0.082307 -0.207451
v -0.046611 0.082307 -0.201610
v -0.052823 0.082307 -0.108107
v -0.020176 0.082307 -0.108235
v -0.046611 0.082307 -0.113949
v -0.017804 0.082307 -0.114061
v 0.020176 0.082307 -0.108235
v 0.017804 0.082307 -0.114061
v 0.052823 0.082307 -0.108107
v 0.046611 0.082307 -0.113948
v 0.052823 0.271419 -0.196157
v 0.020176 0.271419 -0.219875
v -0.020176 0.271419 -0.219875
v -0.052823 0.271419 -0.196157
v -0.065292 0.271419 -0.157779
v -0.052823 0.271419 -0.119401
v -0.020176 0.271419 -0.095682
v 0.020176 0.271419 -0.095682
v 0.052823 0.271419 -0.119401
v 0.065292 0.271419 -0.157779
v 0.035758 2.684735 -0.183758
v 0.044199 2.684735 -0.157779
v 0.035758 2.684735 -0.131799
v 0.013658 2.684735 -0.115743
v -0.013658 2.684735 -0.115743
v -0.035758 2.684735 -0.131799
v -0.044199 2.684735 -0.157779
v -0.035758 2.684735 -0.183758
v -0.013658 2.684735 -0.199815
v 0.013658 2.684735 -0.199815
v 0.035758 4.871651 -0.183758
v 0.044199 4.871651 -0.157779
v 0.035758 4.871651 -0.131799
v 0.013658 4.871651 -0.115743
v -0.013658 4.871651 -0.115743
v -0.035758 4.871651 -0.131799
v -0.044199 4.871651 -0.157779
v -0.035758 4.871651 -0.183758
v -0.013658 4.871651 -0.199815
v 0.013658 4.871651 -0.199815
v 0.038997 4.882787 -0.186112
v 0.048203 4.882787 -0.157779
v 0.038997 4.882787 -0.129446
v 0.014896 4.882787 -0.111935
v -0.014896 4.882787 -0.111935
v -0.038997 4.882787 -0.129446
v -0.048203 4.882787 -0.157779
v -0.038997 4.882787 -0.186112
v -0.014896 4.882787 -0.203623
v 0.014896 4.882787 -0.203623
vt 0.985138 0.370597
vt 0.960868 0.447073
vt 0.926433 0.422762
vt 0.942985 0.370514
vt 0.897026 0.495676
vt 0.882843 0.455985
vt 0.816837 0.498681
vt 0.828079 0.458093
vt 0.737834 0.438416
vt 0.782240 0.428290
vt 0.719536 0.360064
vt 0.761560 0.363364
vt 0.749665 0.285664
vt 0.782111 0.312574
vt 0.817088 0.242165
vt 0.828150 0.282840
vt 0.897259 0.245357
vt 0.882915 0.284993
vt 0.961008 0.294077
vt 0.926477 0.318252
vt 0.924781 0.730496
vt 0.909079 0.643489
vt 0.924717 0.647543
vt 0.945063 0.735570
vt 0.923053 0.860312
vt 0.943702 0.855802
vt 0.904965 0.946845
vt 0.920714 0.943216
vt 0.652517 0.307377
vt 0.898226 0.976589
vt 0.945493 0.960863
vt 0.673368 0.308025
vt 0.800992 0.977035
vt 0.754557 0.959092
vt 0.781861 0.859708
vt 0.795673 0.947035
vt 0.780125 0.942651
vt 0.761698 0.854185
vt 0.786552 0.729979
vt 0.765806 0.734003
vt 0.806722 0.643896
vt 0.790892 0.647144
vt 0.645980 0.307473
vt 0.814210 0.614358
vt 0.766568 0.628874
vt 0.625155 0.308697
vt 0.903125 0.613598
vt 0.949927 0.630562
vt 0.871160 0.728275
vt 0.980644 0.742171
vt 0.869434 0.861057
vt 0.978364 0.850450
vt 0.835420 0.863120
vt 0.726269 0.846770
vt 0.735656 0.131323
vt 0.735656 0.084664
vt 0.799086 0.084664
vt 0.799086 0.131323
vt 0.735656 0.038004
vt 0.799086 0.038004
vt 0.857809 0.084664
vt 0.857809 0.131323
vt 0.735656 0.160160
vt 0.799086 0.160160
vt 0.735656 0.009167
vt 0.799086 0.009167
vt 0.857809 0.038004
vt 0.857809 0.160160
vt 0.857809 0.009167
vt 0.866983 0.130083
vt 0.866983 0.083423
vt 0.930413 0.083423
vt 0.930413 0.130083
vt 0.866983 0.036764
vt 0.930413 0.036764
vt 0.989136 0.083423
vt 0.989136 0.130083
vt 0.866983 0.158920
vt 0.930413 0.158920
vt 0.866983 0.007927
vt 0.930413 0.007927
vt 0.989136 0.036764
vt 0.989136 0.158920
vt 0.989136 0.007927
vt 0.529825 0.200192
vt 0.529825 0.099728
vt 0.545525 0.099728
vt 0.545525 0.200192
vt 0.529825 0.037638
vt 0.545525 0.037637
vt 0.529825 0.300657
vt 0.545525 0.300657
vt 0.529825 0.362747
vt 0.545525 0.362747
vt 0.513270 0.200193
vt 0.513270 0.099728
vt 0.528970 0.099728
vt 0.528970 0.200193
vt 0.513270 0.037637
vt 0.528970 0.037637
vt 0.513270 0.300657
vt 0.528970 0.300657
vt 0.513270 0.362748
vt 0.528970 0.362748
vt 0.893200 0.313400
vt 0.918227 0.347847
vt 0.852705 0.369136
vt 0.918227 0.390425
vt 0.852705 0.300243
vt 0.893200 0.424871
vt 0.812211 0.313400
vt 0.852705 0.438029
vt 0.787184 0.347847
vt 0.812211 0.424871
vt 0.787184 0.390425
vt 0.636842 0.431554
vt 0.573771 0.452047
vt 0.568057 0.444183
vt 0.636842 0.421833
vt 0.534791 0.505699
vt 0.525546 0.502695
vt 0.699913 0.452047
vt 0.705627 0.444183
vt 0.534791 0.572016
vt 0.525546 0.575019
vt 0.738894 0.505699
vt 0.748139 0.502695
vt 0.573771 0.625667
vt 0.568057 0.633532
vt 0.738894 0.572016
vt 0.748139 0.575019
vt 0.636842 0.646160
vt 0.636842 0.655881
vt 0.699913 0.625667
vt 0.705627 0.633532
vt 0.725164 0.196427
vt 0.651776 0.196427
vt 0.651776 0.101544
vt 0.725164 0.101544
vt 0.651776 0.013703
vt 0.725164 0.013703
vt 0.569835 0.016391
vt 0.641673 0.016391
vt 0.641673 0.109270
vt 0.569835 0.109270
vt 0.641673 0.195256
vt 0.569835 0.195256
vt 0.697532 0.969453
vt 0.697532 0.876794
vt 0.711303 0.876794
vt 0.711303 0.969453
vt 0.707141 0.764736
vt 0.707141 0.857395
vt 0.693369 0.857395
vt 0.693369 0.764736
vt 0.840164 0.730461
vt 0.731026 0.738535
vt 0.966536 0.290195
vt 0.991892 0.370601
vt 0.899549 0.239002
vt 0.815306 0.235650
vt 0.744460 0.281360
vt 0.712802 0.359536
vt 0.744281 0.459129
vt 0.815046 0.505195
vt 0.899308 0.502034
vt 0.966391 0.450961
vt 0.749433 0.454778
vt 0.774003 0.416612
vt 0.731991 0.441775
vt 0.560798 0.511653
vt 0.590965 0.470132
vt 0.639776 0.537314
vt 0.639776 0.454272
vt 0.560798 0.562976
vt 0.688587 0.470132
vt 0.590965 0.604497
vt 0.718755 0.511653
vt 0.639776 0.620357
vt 0.718755 0.562976
vt 0.688587 0.604497
vt 0.625432 0.386158
vt 0.607864 0.374908
vt 0.675234 0.385464
vt 0.692484 0.373731
vt 0.680036 0.230851
vt 0.696524 0.243631
vt 0.616354 0.231737
vt 0.600226 0.244969
vn 0.587740 0.012227 -0.808958
vn 0.587740 0.012227 -0.808958
vn 0.587784 0.000000 -0.809018
vn 0.587784 0.000000 -0.809018
vn 0.000000 0.012227 -0.999925
vn 0.000000 0.012227 -0.999925
vn 0.000000 0.000000 -1.000000
vn 0.000000 0.000000 -1.000000
vn -0.587740 0.012227 -0.808958
vn -0.587740 0.012227 -0.808958
vn -0.587784 0.000000 -0.809018
vn -0.587784 0.000000 -0.809018
vn -0.950986 0.012227 -0.308993
vn -0.950986 0.012227 -0.308993
vn -0.951057 0.000000 -0.309016
vn -0.951057 0.000000 -0.309016
vn -0.950985 0.012227 0.308994
vn -0.950985 0.012227 0.308994
vn -0.951057 0.000000 0.309017
vn -0.951057 0.000000 0.309017
vn -0.587740 0.012227 0.808957
vn -0.587740 0.012227 0.808957
vn -0.587784 0.000000 0.809018
vn -0.587784 0.000000 0.809018
vn 0.000000 0.012227 0.999925
vn 0.000000 0.012227 0.999925
vn 0.000000 0.000000 1.000000
vn 0.000000 0.000000 1.000000
vn 0.587740 0.012227 0.808957
vn 0.587740 0.012227 0.808957
vn 0.587784 0.000000 0.809018
vn 0.587784 0.000000 0.809018
vn 0.950985 0.012227 0.308994
vn 0.950985 0.012227 0.308994
vn 0.951057 0.000000 0.309017
vn 0.951057 0.000000 0.309017
vn 0.950986 0.012227 -0.308993
vn 0.950986 0.012227 -0.308993
vn 0.951057 0.000000 -0.309016
vn 0.951057 0.000000 -0.309016
vn 0.000000 -1.000000 -0.000005
vn 0.000000 -1.000000 -0.000003
vn 0.000000 -1.000000 0.000000
vn 0.000000 -1.000000 0.000003
vn 0.000000 -1.000000 0.000004
vn 0.000000 -1.000000 0.000001
vn 0.000000 -1.000000 -0.000003
vn 0.000000 -1.000000 0.000000
vn 0.000000 -1.000000 0.000005
vn 0.000000 -1.000000 -0.000000
vn 0.000000 -1.000000 -0.000001
vn 0.000000 1.000000 0.000004
vn 0.000000 1.000000 0.000004
vn 0.000000 1.000000 0.000001
vn 0.000000 1.000000 0.000002
vn 0.000000 1.000000 0.000002
vn 0.000000 1.000000 0.000004
vn 0.000000 1.000000 0.000000
vn 0.000000 1.000000 -0.000004
vn 0.000000 1.000000 -0.000002
vn 0.000000 1.000000 0.000002
vn 0.000000 1.000000 0.000004
vn 0.582525 0.133461 -0.801781
vn 0.582525 0.133462 -0.801781
vn 0.000000 0.133462 -0.991054
vn 0.000000 0.133462 -0.991054
vn -0.582526 0.133462 -0.801780
vn -0.582526 0.133461 -0.801780
vn -0.942548 0.133462 -0.306253
vn -0.942548 0.133462 -0.306253
vn -0.942548 0.133462 0.306253
vn -0.942548 0.133462 0.306253
vn -0.582526 0.133461 0.801780
vn -0.582526 0.133462 0.801780
vn 0.000000 0.133462 0.991054
vn 0.000000 0.133462 0.991054
vn 0.582526 0.133462 0.801780
vn 0.582526 0.133461 0.801780
vn 0.942548 0.133462 0.306253
vn 0.942548 0.133462 0.306253
vn 0.942548 0.133462 -0.306252
vn 0.942548 0.133462 -0.306252
vn 0.000000 -1.000000 -0.000004
vn 0.000000 -1.000000 0.000028
vn 0.000000 -1.000000 0.000028
vn 0.000000 -1.000000 -0.000023
vn 0.000000 -1.000000 -0.000028
vn 0.000000 -1.000000 -0.000036
vn 0.000000 -1.000000 -0.000014
vn 0.000000 -1.000000 -0.000014
vn 0.000000 -1.000000 0.000003
vn 0.000000 -1.000000 0.000018
vn 0.000000 -1.000000 -0.000012
vn 0.000000 -1.000000 0.000000
vn 0.000000 -1.000000 0.000000
vn 0.000000 -1.000000 0.000000
vn 0.000000 -1.000000 0.000000
vn 0.000000 -1.000000 0.000039
vn 0.000000 -1.000000 0.000023
vn 0.000000 -1.000000 0.000069
vn 0.000000 -1.000000 0.000069
vn 0.000000 -1.000000 -0.000003
vn 0.000000 -1.000000 -0.000018
vn 0.000000 -1.000000 0.000012
vn 0.471390 0.004174 -0.881915
vn 0.493690 0.010761 -0.869571
vn 0.346826 -0.031027 -0.937416
vn 0.346826 -0.031027 -0.937416
vn 0.630097 -0.073679 0.773013
vn 0.630097 -0.073679 0.773013
vn 0.630097 -0.073679 0.773013
vn 0.630097 -0.073679 0.773013
vn -0.339800 0.004634 0.940486
vn -0.339800 0.004634 0.940486
vn -0.339800 0.004634 0.940486
vn -0.339800 0.004634 0.940486
vn -0.000001 -0.073216 -0.997316
vn -0.000001 -0.073216 -0.997316
vn -0.000001 -0.136868 -0.990589
vn -0.000001 -0.136868 -0.990589
vn 0.000001 0.097797 0.995206
vn 0.000001 0.097797 0.995206
vn 0.000001 0.097797 0.995206
vn 0.000001 0.097797 0.995206
vn -0.493690 0.010760 -0.869571
vn -0.471389 0.004174 -0.881915
vn -0.346824 -0.031028 -0.937417
vn -0.346824 -0.031028 -0.937417
vn 0.339802 0.004635 0.940486
vn 0.339802 0.004635 0.940486
vn 0.339802 0.004635 0.940486
vn 0.339802 0.004635 0.940486
vn -0.630102 -0.073678 0.773009
vn -0.630102 -0.073678 0.773009
vn -0.630102 -0.073678 0.773009
vn -0.630102 -0.073678 0.773009
vn -0.471393 0.004172 0.881914
vn -0.493693 0.010759 0.869570
vn -0.346831 -0.031031 0.937414
vn -0.346831 -0.031031 0.937414
vn -0.630101 -0.073674 -0.773010
vn -0.630101 -0.073674 -0.773010
vn -0.630101 -0.073674 -0.773010
vn -0.630101 -0.073674 -0.773010
vn 0.339808 0.004638 -0.940483
vn 0.339808 0.004638 -0.940483
vn 0.339808 0.004638 -0.940483
vn 0.339808 0.004638 -0.940483
vn -0.000001 -0.073216 0.997316
vn -0.000001 -0.073216 0.997316
vn -0.000002 -0.136868 0.990589
vn -0.000002 -0.136868 0.990589
vn 0.000003 0.097798 -0.995206
vn 0.000003 0.097798 -0.995206
vn 0.000003 0.097798 -0.995206
vn 0.000003 0.097798 -0.995206
vn 0.493691 0.010760 0.869571
vn 0.471391 0.004174 0.881914
vn 0.346826 -0.031027 0.937416
vn 0.346826 -0.031027 0.937416
vn -0.339802 0.004634 -0.940486
vn -0.339802 0.004634 -0.940486
vn -0.339802 0.004634 -0.940486
vn -0.339802 0.004634 -0.940486
vn 0.630100 -0.073678 -0.773011
vn 0.630100 -0.073678 -0.773011
vn 0.630100 -0.073678 -0.773011
vn 0.630100 -0.073678 -0.773011
vn -0.950313 0.039521 -0.308776
vn -0.950313 0.039521 -0.308776
vn -0.950313 0.039521 0.308776
vn -0.950313 0.039521 0.308776
vn 0.950313 0.039521 0.308777
vn 0.950313 0.039521 0.308777
vn 0.950313 0.039522 -0.308775
vn 0.950314 0.039522 -0.308775
vn 0.951055 -0.002170 -0.309016
vn 0.951055 -0.002170 -0.309016
vn 0.951054 -0.002170 0.309016
vn 0.951054 -0.002170 0.309016
vn 0.587783 -0.002170 0.809016
vn 0.587783 -0.002170 0.809016
vn 0.000000 -0.002170 0.999998
vn 0.000000 -0.002170 0.999998
vn -0.587783 -0.002170 0.809016
vn -0.587783 -0.002170 0.809016
vn -0.951054 -0.002170 0.309016
vn -0.951054 -0.002170 0.309016
vn -0.951055 -0.002170 -0.309016
vn -0.951055 -0.002170 -0.309016
vn -0.587782 -0.002170 -0.809016
vn -0.587782 -0.002170 -0.809016
vn 0.000000 -0.002170 -0.999998
vn 0.000000 -0.002170 -0.999998
vn 0.587782 -0.002170 -0.809016
vn 0.587782 -0.002170 -0.809016
vn 0.951013 -0.009585 -0.309002
vn 0.951013 -0.009585 -0.309002
vn 0.951013 -0.009585 0.309003
vn 0.951013 -0.009585 0.309003
vn 0.587758 -0.009585 0.808980
vn 0.587758 -0.009585 0.808980
vn 0.000000 -0.009585 0.999954
vn 0.000000 -0.009585 0.999954
vn -0.587758 -0.009585 0.808980
vn -0.587758 -0.009585 0.808980
vn -0.951013 -0.009585 0.309003
vn -0.951013 -0.009585 0.309003
vn -0.951013 -0.009585 -0.309002
vn -0.951013 -0.009585 -0.309003
vn -0.587758 -0.009585 -0.808980
vn -0.587758 -0.009585 -0.808980
vn 0.000000 -0.009585 -0.999954
vn 0.000000 -0.009585 -0.999954
vn 0.587758 -0.009585 -0.808980
vn 0.587758 -0.009585 -0.808980
vn 0.951057 0.000000 -0.309016
vn 0.951057 0.000000 -0.309016
vn 0.951056 -0.000000 0.309017
vn 0.951056 -0.000000 0.309017
vn 0.587785 0.000000 0.809017
vn 0.587785 0.000000 0.809017
vn 0.000000 0.000000 1.000000
vn 0.000000 0.000000 1.000000
vn -0.587785 0.000000 0.809017
vn -0.587785 0.000000 0.809017
vn -0.951056 0.000000 0.309017
vn -0.951056 0.000000 0.309017
vn -0.951057 0.000000 -0.309017
vn -0.951057 0.000000 -0.309017
vn -0.587785 -0.000000 -0.809017
vn -0.587785 -0.000000 -0.809017
vn 0.000000 -0.000000 -1.000000
vn 0.000000 -0.000000 -1.000000
vn 0.587785 -0.000000 -0.809017
vn 0.587785 -0.000000 -0.809017
s 1
g Pitchfork pCylinder6
usemtl initialShadingGroup
f 366/774/741 367/780/742 422/781/743 413/775/744
s 2
f 367/836/745 368/837/746 421/838/747 422/839/748
s 3
f 368/763/749 369/755/750 420/758/751 421/764/752
s 4
f 369/755/753 370/756/754 419/757/755 420/758/756
s 5
f 370/756/757 371/759/758 418/760/759 419/757/760
s 6
f 371/759/761 372/765/762 417/766/763 418/760/764
s 7
f 372/842/765 373/843/766 416/844/767 417/845/768
s 8
f 373/778/769 374/770/770 415/773/771 416/779/772
s 9
f 374/770/773 375/771/774 414/772/775 415/773/776
s 10
f 375/771/777 366/774/778 413/775/779 414/772/780
s 11
f 377/871/781 376/872/782 378/873/783
f 379/875/784 377/871/781 378/873/783
f 380/877/785 379/875/784 378/873/783
f 381/879/786 380/877/785 378/873/783
f 382/881/787 381/879/786 378/873/783
f 383/880/788 382/881/787 378/873/783
f 384/878/789 383/880/788 378/873/783
f 385/876/790 384/878/789 378/873/783
f 386/874/791 385/876/790 378/873/783
f 376/872/782 386/874/791 378/873/783
s 12
f 355/805/792 356/806/793 365/807/794
f 356/806/793 357/808/795 365/807/794
f 357/808/795 358/810/796 365/807/794
f 358/810/796 359/812/797 365/807/794
f 359/812/797 360/814/798 365/807/794
f 360/814/798 361/815/799 365/807/794
f 361/815/799 362/813/800 365/807/794
f 362/813/800 363/811/801 365/807/794
f 363/811/801 364/809/802 365/807/794
f 364/809/802 355/805/792 365/807/794
s 1
f 403/701/803 404/702/804 367/703/742 366/704/741
s 2
f 404/702/805 405/705/806 368/706/746 367/703/745
s 3
f 405/705/807 406/707/808 369/708/750 368/706/749
s 4
f 406/707/809 407/868/810 370/710/754 369/708/753
s 5
f 407/709/811 408/711/812 371/712/758 370/869/757
s 6
f 408/711/813 409/713/814 372/714/762 371/712/761
s 7
f 409/713/815 410/715/816 373/716/766 372/714/765
s 8
f 410/715/817 411/717/818 374/718/770 373/716/769
s 9
f 411/717/819 412/719/820 375/720/774 374/718/773
s 10
f 412/719/821 403/701/822 366/704/778 375/720/777
s 13
f 388/721/823 387/722/824 389/723/825 390/724/826
f 391/725/827 388/721/823 390/724/826 392/726/828
f 393/727/829 391/725/827 392/726/828 394/728/830
s 11
f 349/729/831 348/886/832 380/887/785 381/732/786
f 350/884/833 349/729/831 381/732/786 382/885/787
s 14
f 396/735/834 395/736/835 397/737/836 398/738/837
f 399/739/838 396/735/834 398/738/837 400/740/839
f 401/741/840 399/739/838 400/740/839 402/742/841
s 11
f 354/743/842 353/882/843 385/883/790 386/746/791
f 345/888/844 354/743/842 386/746/791 376/889/782
s 1
f 346/749/845 345/747/846 387/722/847 388/721/848
s off
f 345/747/849 376/748/850 389/723/851 387/722/852
f 376/748/853 377/750/854 390/724/855 389/723/856
s 2
f 347/751/857 346/749/858 388/721/859 391/725/860
s off
f 377/750/861 379/752/862 392/726/863 390/724/864
s 3
f 348/730/865 347/751/866 391/725/867 393/727/868
s off
f 379/752/869 380/731/870 394/728/871 392/726/872
f 380/731/873 348/730/874 393/727/875 394/728/876
s 6
f 351/753/877 350/733/878 395/736/879 396/735/880
s off
f 350/733/881 382/734/882 397/737/883 395/736/884
f 382/734/885 383/754/886 398/738/887 397/737/888
s 7
f 352/856/889 351/753/890 396/735/891 399/739/892
s off
f 383/754/893 384/857/894 400/740/895 398/738/896
s 8
f 353/744/897 352/856/898 399/739/899 401/741/900
s off
f 384/857/901 385/745/902 402/742/903 400/740/904
f 385/745/905 353/744/906 401/741/907 402/742/908
s 1
f 345/859/846 346/867/845 404/702/804 403/701/803
s 2
f 346/867/858 347/866/857 405/705/806 404/702/805
s 3
f 347/866/866 348/865/865 406/707/808 405/705/807
s 4
f 348/865/909 349/864/910 407/868/810 406/707/809
s 5
f 349/870/911 350/863/912 408/711/812 407/709/811
s 6
f 350/863/878 351/862/877 409/713/814 408/711/813
s 7
f 351/862/890 352/861/889 410/715/816 409/713/815
s 8
f 352/861/898 353/860/897 411/717/818 410/715/817
s 9
f 353/860/913 354/858/914 412/719/820 411/717/819
s 10
f 354/858/915 345/859/916 403/701/822 412/719/821
f 414/772/780 413/775/779 423/782/917 424/776/918
s 9
f 415/773/776 414/772/775 424/776/919 425/777/920
s 8
f 416/779/772 415/773/771 425/777/921 426/783/922
s 7
f 417/845/768 416/844/767 426/846/923 427/847/924
s 6
f 418/760/764 417/766/763 427/769/925 428/767/926
s 5
f 419/757/760 418/760/759 428/767/927 429/761/928
s 4
f 420/758/756 419/757/755 429/761/929 430/762/930
s 3
f 421/764/752 420/758/751 430/762/931 431/768/932
s 2
f 422/839/748 421/838/747 431/840/933 432/841/934
s 1
f 413/775/744 422/781/743 432/784/935 423/782/936
s 10
f 424/816/918 423/817/917 433/818/937 434/819/938
s 9
f 425/822/920 424/816/919 434/819/939 435/823/940
s 8
f 426/826/922 425/822/921 435/823/941 436/827/942
s 7
f 427/830/924 426/826/923 436/827/943 437/831/944
s 6
f 428/834/926 427/830/925 437/831/945 438/835/946
s 5
f 429/832/928 428/834/927 438/835/947 439/833/948
s 4
f 430/828/930 429/832/929 439/833/949 440/829/950
s 3
f 431/824/932 430/828/931 440/829/951 441/825/952
s 2
f 432/820/934 431/824/933 441/825/953 442/821/954
s 1
f 423/817/936 432/820/935 442/821/955 433/818/956
s 10
f 434/785/938 433/786/937 355/787/957 364/788/958
s 9
f 435/791/940 434/785/939 364/788/959 363/792/960
s 8
f 436/793/942 435/791/941 363/792/961 362/794/962
s 7
f 437/848/944 436/849/943 362/850/963 361/851/964
s 6
f 438/796/946 437/799/945 361/800/965 360/797/966
s 5
f 439/795/948 438/796/947 360/797/967 359/798/968
s 4
f 440/801/950 439/795/949 359/798/969 358/802/970
s 3
f 441/803/952 440/801/951 358/802/971 357/804/972
s 2
f 442/852/954 441/853/953 357/854/973 356/855/974
s 1
f 433/786/956 442/789/955 356/790/975 355/787/976
