# This file uses centimeters as units for non-parametric coordinates.

mtllib Shovel.mtl
g default
v 0.124051 9.336355 -0.038656
v 0.077638 9.336355 -0.104189
v 0.001570 9.409841 -0.129925
v -0.075098 9.336355 -0.106035
v -0.123081 9.336355 -0.041642
v -0.124051 9.336355 0.038656
v -0.077638 9.336355 0.104189
v -0.001570 9.409841 0.129925
v 0.075098 9.336355 0.106035
v 0.123081 9.336355 0.041642
v 0.000485 9.409841 -0.040149
v -0.000485 9.409841 0.040149
v 0.423143 10.840952 -0.018369
v 0.424217 10.840952 -0.063060
v 0.514566 10.781315 -0.022888
v 0.471248 10.814684 -0.066221
v 0.422183 10.840952 0.021603
v 0.513660 10.781315 0.030208
v 0.421110 10.840952 0.066293
v 0.468875 10.814684 0.072787
v -0.425856 10.841858 -0.069491
v -0.473622 10.815590 -0.075984
v -0.518407 10.782221 -0.033406
v -0.426930 10.841858 -0.024801
v -0.519313 10.782221 0.019690
v -0.427889 10.841858 0.015171
v -0.475993 10.815590 0.063021
v -0.428962 10.841858 0.059860
v 0.407805 10.671157 -0.042096
v 0.406834 10.671157 0.038205
v 0.405748 10.671157 0.089695
v 0.509281 10.671157 0.104091
v 0.578633 10.671157 0.039698
v 0.579692 10.671157 -0.040603
v 0.511965 10.671157 -0.106138
v 0.408890 10.671157 -0.093382
v -0.408056 10.671157 -0.092311
v -0.511589 10.671157 -0.106463
v -0.580941 10.671157 -0.042069
v -0.581999 10.671157 0.038229
v -0.514270 10.671157 0.103761
v -0.411196 10.671157 0.090763
v -0.410111 10.671157 0.039723
v -0.409141 10.671157 -0.040576
v 0.333267 9.679353 -0.040649
v 0.438966 10.003756 -0.041122
v 0.436588 10.328159 -0.041596
v 0.435193 10.328159 0.038704
v 0.436884 10.003756 0.039177
v 0.330201 9.679353 0.039649
v 0.436578 10.334868 0.128471
v 0.434555 10.003756 0.128953
v 0.320295 9.672645 0.129435
v 0.548026 10.337423 0.104577
v 0.528607 10.003756 0.105063
v 0.413268 9.670089 0.105549
v 0.614128 10.330714 0.040194
v 0.619507 10.003756 0.040670
v 0.530004 9.676797 0.041146
v 0.615425 10.330483 -0.040106
v 0.621348 10.003756 -0.039629
v 0.532436 9.677030 -0.039153
v 0.551514 10.337036 -0.105650
v 0.533422 10.003756 -0.105163
v 0.419472 9.670475 -0.104677
v 0.441029 10.334713 -0.131383
v 0.441297 10.003756 -0.130900
v 0.330376 9.672799 -0.130416
v -0.320886 9.672757 -0.130033
v -0.435708 10.003756 -0.130139
v -0.438269 10.334754 -0.130245
v -0.549719 10.337296 -0.106356
v -0.529761 10.003756 -0.106249
v -0.413881 9.670216 -0.106142
v -0.615782 10.330541 -0.041960
v -0.620659 10.003755 -0.041856
v -0.530675 9.676970 -0.041751
v -0.617114 10.330389 0.038338
v -0.622502 10.003757 0.038442
v -0.533054 9.677123 0.038547
v -0.553261 10.337041 0.103868
v -0.534573 10.003756 0.103975
v -0.419991 9.670471 0.104082
v -0.442742 10.334652 0.129605
v -0.442450 10.003756 0.129711
v -0.330917 9.672859 0.129817
v -0.438243 10.328000 0.039832
v -0.440119 10.003756 0.039936
v -0.333940 9.679511 0.040040
v -0.436847 10.328000 -0.040466
v -0.438037 10.003756 -0.040362
v -0.330873 9.679511 -0.040259
v 0.124051 9.225466 -0.038656
v 0.077638 9.225466 -0.104189
v 0.001570 9.225466 -0.129925
v -0.075098 9.225466 -0.106035
v -0.123081 9.225466 -0.041642
v -0.124051 9.225466 0.038656
v -0.077638 9.225466 0.104189
v -0.001570 9.225466 0.129925
v 0.075098 9.225466 0.106035
v 0.123081 9.225466 0.041642
v 0.346254 10.677201 -0.016904
v -0.347641 10.677197 -0.016383
v -0.348561 10.677201 0.014081
v 0.345334 10.677197 0.013561
v -0.349297 10.677236 0.048122
v 0.344443 10.677178 0.047632
v -0.351195 10.869554 0.044737
v 0.342464 10.868901 0.048908
v -0.349915 10.869572 0.011284
v 0.343742 10.868883 0.015489
v -0.348554 10.869607 -0.018622
v 0.345103 10.868846 -0.014416
v -0.346805 10.869669 -0.052018
v 0.346866 10.868782 -0.047889
v -0.346398 10.677212 -0.050436
v 0.347498 10.677185 -0.050972
v 0.124051 5.374369 -0.038656
v 0.077638 5.374369 -0.104189
v 0.001570 5.374369 -0.129925
v -0.075098 5.374369 -0.106035
v -0.123081 5.374369 -0.041642
v -0.124051 5.374369 0.038656
v -0.077638 5.374369 0.104189
v -0.001570 5.374369 0.129925
v 0.075098 5.374369 0.106035
v 0.123081 5.374369 0.041642
v 0.124051 7.980029 -0.038656
v 0.123081 7.980029 0.041642
v 0.075098 7.980029 0.106035
v -0.001570 7.980029 0.129925
v -0.077638 7.980029 0.104189
v -0.124051 7.980029 0.038656
v -0.123081 7.980029 -0.041642
v -0.075098 7.980029 -0.106035
v 0.001570 7.980029 -0.129925
v 0.077638 7.980029 -0.104189
vt 0.900888 0.703646
vt 0.915087 0.703646
vt 0.915087 0.723254
vt 0.900888 0.723254
vt 0.900888 0.022664
vt 0.915087 0.022664
vt 0.926675 0.703646
vt 0.926675 0.723254
vt 0.915068 0.783512
vt 0.900869 0.783484
vt 0.889502 0.703646
vt 0.889502 0.723254
vt 0.926675 0.022664
vt 0.889502 0.022664
vt 0.926656 0.782335
vt 0.900850 0.841269
vt 0.915049 0.841269
vt 0.889483 0.782290
vt 0.926637 0.841269
vt 0.889464 0.841269
vt 0.900832 0.899054
vt 0.915031 0.899027
vt 0.926618 0.900203
vt 0.889445 0.900249
vt 0.915012 0.959284
vt 0.900813 0.959284
vt 0.926599 0.959284
vt 0.889426 0.959284
vt 0.911733 0.978924
vt 0.902344 0.978924
vt 0.919395 0.984824
vt 0.894815 0.984824
vt 0.903866 0.989469
vt 0.910934 0.989469
vt 0.918836 0.989469
vt 0.895964 0.989469
vt 0.953099 0.703646
vt 0.967298 0.703646
vt 0.967298 0.723254
vt 0.953099 0.723254
vt 0.953099 0.022664
vt 0.967298 0.022664
vt 0.978886 0.703646
vt 0.978886 0.723254
vt 0.967386 0.783495
vt 0.953187 0.783454
vt 0.941713 0.703646
vt 0.941713 0.723254
vt 0.978886 0.022664
vt 0.941713 0.022664
vt 0.978973 0.782336
vt 0.953271 0.841269
vt 0.967470 0.841269
vt 0.941799 0.782268
vt 0.979059 0.841269
vt 0.941885 0.841269
vt 0.953355 0.899085
vt 0.967555 0.899044
vt 0.979145 0.900203
vt 0.941971 0.900271
vt 0.967643 0.959284
vt 0.953443 0.959284
vt 0.979231 0.959284
vt 0.942057 0.959284
vt 0.964510 0.978763
vt 0.955121 0.978763
vt 0.972173 0.984664
vt 0.947592 0.984664
vt 0.963711 0.989309
vt 0.956643 0.989309
vt 0.971614 0.989309
vt 0.948740 0.989309
vt 0.839705 0.438066
vt 0.839791 0.379268
vt 0.854345 0.379268
vt 0.854259 0.438066
vt 0.823431 0.439254
vt 0.823519 0.379268
vt 0.839877 0.320470
vt 0.854431 0.320470
vt 0.870617 0.379268
vt 0.870530 0.439282
vt 0.854169 0.500234
vt 0.839615 0.500234
vt 0.830319 0.500234
vt 0.823606 0.319283
vt 0.839967 0.271622
vt 0.854521 0.271622
vt 0.870704 0.319255
vt 0.863501 0.500234
vt 0.823696 0.271622
vt 0.870793 0.271622
vt 0.822284 0.679677
vt 0.838556 0.678471
vt 0.838575 0.740668
vt 0.829324 0.740668
vt 0.822265 0.619702
vt 0.838537 0.619702
vt 0.853110 0.678471
vt 0.853129 0.740668
vt 0.822246 0.559728
vt 0.838518 0.560933
vt 0.853091 0.619702
vt 0.869382 0.679695
vt 0.862506 0.740668
vt 0.822226 0.512056
vt 0.838498 0.512056
vt 0.853072 0.560933
vt 0.869363 0.619702
vt 0.853052 0.512056
vt 0.869344 0.559709
vt 0.869324 0.512056
vt 0.853320 0.789603
vt 0.853414 0.915371
vt 0.847242 0.915146
vt 0.847145 0.789378
vt 0.858842 0.789770
vt 0.858936 0.915538
vt 0.839653 0.926321
vt 0.849029 0.926518
vt 0.839459 0.778251
vt 0.848754 0.778448
vt 0.863308 0.778623
vt 0.865017 0.789932
vt 0.865106 0.915671
vt 0.863584 0.926694
vt 0.872641 0.778820
vt 0.872835 0.926890
vt 0.812907 0.918793
vt 0.812150 0.793068
vt 0.818208 0.792837
vt 0.818970 0.918561
vt 0.808999 0.778814
vt 0.817099 0.778620
vt 0.823628 0.792590
vt 0.824390 0.918315
vt 0.818265 0.932694
vt 0.810166 0.932888
vt 0.824345 0.778445
vt 0.829695 0.792270
vt 0.830443 0.917998
vt 0.825510 0.932520
vt 0.832445 0.778251
vt 0.833610 0.932325
vt 0.774473 0.305967
vt 0.761082 0.305967
vt 0.761082 0.273509
vt 0.774473 0.286445
vt 0.774473 0.983938
vt 0.761082 0.983938
vt 0.747585 0.305967
vt 0.747585 0.286445
vt 0.818967 0.227216
vt 0.834652 0.227625
vt 0.747585 0.983938
vt 0.687943 0.227670
vt 0.704314 0.227223
vt 0.854712 0.168952
vt 0.838494 0.168952
vt 0.684100 0.168952
vt 0.667543 0.168952
vt 0.857897 0.110279
vt 0.838447 0.110688
vt 0.683650 0.110681
vt 0.664029 0.110233
vt 0.832789 0.051458
vt 0.850935 0.051458
vt 0.670742 0.051458
vt 0.688969 0.051458
vt 0.835487 0.021567
vt 0.843767 0.026191
vt 0.677426 0.026032
vt 0.685835 0.021407
vt 0.821981 0.050397
vt 0.821870 0.016667
vt 0.699751 0.016511
vt 0.699823 0.050393
vt 0.623816 0.694533
vt 0.637208 0.694533
vt 0.637208 0.726994
vt 0.623816 0.714057
vt 0.623816 0.016511
vt 0.637208 0.016511
vt 0.650706 0.694533
vt 0.650706 0.714057
vt 0.579223 0.773301
vt 0.563541 0.772881
vt 0.650706 0.016511
vt 0.710244 0.772814
vt 0.693876 0.773264
vt 0.543368 0.831559
vt 0.559587 0.831559
vt 0.713992 0.831559
vt 0.730551 0.831559
vt 0.540078 0.890237
vt 0.559536 0.889816
vt 0.714348 0.889854
vt 0.733970 0.890304
vt 0.565090 0.949061
vt 0.546942 0.949061
vt 0.727148 0.949061
vt 0.708920 0.949061
vt 0.561962 0.979115
vt 0.553681 0.974490
vt 0.720034 0.974331
vt 0.711625 0.978955
vt 0.575987 0.950131
vt 0.575653 0.983991
vt 0.697779 0.983876
vt 0.698127 0.950121
vt 0.967298 0.483418
vt 0.953099 0.483418
vt 0.650706 0.475262
vt 0.941713 0.483418
vt 0.637208 0.475262
vt 0.926675 0.483418
vt 0.623816 0.475262
vt 0.915087 0.483418
vt 0.900888 0.483418
vt 0.747585 0.525222
vt 0.889502 0.483418
vt 0.761082 0.525222
vt 0.978886 0.483418
vt 0.774473 0.525222
vn 0.816061 0.000000 -0.577966
vn 0.816061 0.000000 -0.577966
vn 0.616694 -0.473355 -0.628986
vn 0.584192 -0.518582 -0.624333
vn 0.320487 0.000000 -0.947253
vn 0.320487 0.000000 -0.947253
vn 0.215286 -0.189622 -0.957964
vn 0.235535 -0.155182 -0.959397
vn -0.297502 0.000000 -0.954721
vn -0.297502 0.000000 -0.954721
vn -0.217654 -0.140787 -0.965819
vn -0.198854 -0.172029 -0.964813
vn -0.801855 0.000000 -0.597519
vn -0.801855 0.000000 -0.597519
vn -0.572781 -0.506309 -0.644649
vn -0.605543 -0.460228 -0.649237
vn -0.999927 0.000000 -0.012084
vn -0.999927 0.000000 -0.012084
vn -0.741222 -0.671129 -0.013230
vn -0.742169 -0.670082 -0.013234
vn -0.816061 0.000000 0.577966
vn -0.816061 0.000000 0.577966
vn -0.616859 -0.473090 0.629023
vn -0.584256 -0.518473 0.624364
vn -0.320487 0.000000 0.947253
vn -0.320487 0.000000 0.947253
vn -0.215668 -0.188697 0.958061
vn -0.235804 -0.154483 0.959443
vn 0.297502 0.000000 0.954721
vn 0.297502 0.000000 0.954721
vn 0.218147 -0.139701 0.965865
vn 0.199440 -0.170756 0.964918
vn 0.801855 0.000000 0.597519
vn 0.801855 0.000000 0.597519
vn 0.573255 -0.505081 0.645192
vn 0.606026 -0.458942 0.649696
vn 0.999927 0.000000 0.012084
vn 0.999927 0.000000 0.012084
vn 0.741603 -0.670711 0.013090
vn 0.742667 -0.669533 0.013095
vn -0.528149 0.847868 0.046682
vn -0.528149 0.847868 0.046682
vn -0.541478 0.840704 0.004369
vn -0.538967 0.842232 0.012612
vn 0.528717 0.846147 0.067043
vn 0.539300 0.841446 0.033524
vn 0.541791 0.840132 0.025300
vn 0.528717 0.846147 0.067043
vn -0.541791 0.840132 -0.025294
vn -0.539300 0.841447 -0.033513
vn 0.538967 0.842232 -0.012614
vn 0.541478 0.840704 -0.004372
vn -0.528717 0.846149 -0.067008
vn -0.528717 0.846149 -0.067008
vn 0.528149 0.847868 -0.046682
vn 0.528149 0.847868 -0.046682
vn 0.711437 0.152074 -0.686099
vn 0.712313 0.171190 -0.680665
vn 0.696106 0.422326 -0.580583
vn 0.696106 0.422326 -0.580583
vn 0.034843 0.092565 -0.995097
vn -0.058822 0.102096 -0.993034
vn -0.260179 0.141585 -0.955123
vn -0.066060 0.213164 -0.974781
vn 0.979744 0.199744 0.014270
vn 0.980519 0.195907 0.014280
vn 0.861213 0.508085 0.012694
vn 0.861213 0.508085 0.012694
vn -0.081532 0.085470 0.992999
vn 0.013306 0.083054 0.996456
vn -0.107174 0.162685 0.980840
vn -0.284405 0.103684 0.953081
vn 0.696077 0.159913 0.699932
vn 0.694787 0.139344 0.705588
vn 0.688564 0.384861 0.614624
vn 0.688564 0.384861 0.614624
vn 0.081346 0.083963 -0.993143
vn -0.013847 0.081021 -0.996616
vn 0.106291 0.159201 -0.981508
vn 0.281147 0.104307 -0.953979
vn -0.696127 0.152889 -0.701450
vn -0.694872 0.133997 -0.706539
vn -0.690955 0.367186 -0.622701
vn -0.690955 0.367186 -0.622701
vn -0.980890 0.194025 -0.014493
vn -0.981754 0.189599 -0.014506
vn -0.871289 0.490603 -0.012823
vn -0.871289 0.490603 -0.012823
vn -0.711506 0.150946 0.686275
vn -0.712310 0.167874 0.681493
vn -0.698036 0.411763 0.585830
vn -0.698036 0.411763 0.585830
vn -0.033295 0.095433 0.994879
vn 0.060419 0.105493 0.992583
vn 0.257605 0.147685 0.954897
vn 0.066854 0.217050 0.973869
vn -0.998664 -0.042696 -0.029105
vn -0.986834 0.159845 -0.024656
vn -0.986293 0.162558 -0.028304
vn -0.999105 -0.041280 -0.009207
vn -0.809742 0.586457 -0.019663
vn -0.810617 0.584919 -0.027756
vn -0.134369 0.027212 -0.990558
vn -0.236746 -0.048963 -0.970337
vn -0.234583 -0.040131 -0.971267
vn -0.134957 0.026990 -0.990484
vn -0.201048 -0.166163 -0.965386
vn -0.223245 -0.126474 -0.966523
vn -0.996401 -0.084623 -0.004938
vn -0.996005 -0.084824 -0.027898
vn -0.999232 -0.039180 -0.000036
vn -0.996237 -0.086445 0.006219
vn 0.133756 0.029345 0.990580
vn 0.134487 0.029071 0.990489
vn 0.663220 0.033452 0.747677
vn 0.659603 0.027618 0.751107
vn 0.997945 0.061793 0.016927
vn 0.997954 0.061661 0.016935
vn 0.677729 0.027677 -0.734791
vn 0.681214 0.033707 -0.731308
vn 0.152853 0.027571 -0.987864
vn 0.151380 0.028125 -0.988075
vn -0.998314 -0.041828 -0.040235
vn -0.995290 -0.086868 -0.043026
vn -0.663372 0.030990 -0.747647
vn -0.659727 0.025141 -0.751085
vn -0.998047 0.060064 -0.017182
vn -0.998057 0.059889 -0.017192
vn -0.677871 0.027859 0.734653
vn -0.681312 0.033797 0.731212
vn -0.152075 0.029251 0.987936
vn -0.150922 0.029686 0.988100
vn 0.998376 -0.039967 0.040587
vn 0.998735 -0.040892 0.029277
vn 0.996165 -0.082870 0.028084
vn 0.995439 -0.084912 0.043488
vn 0.999176 -0.039556 0.009120
vn 0.996562 -0.082713 0.004830
vn 0.999294 -0.037579 -0.000145
vn 0.996397 -0.084568 -0.006405
vn -0.628599 0.777495 -0.019127
vn -0.631338 0.775405 -0.012627
vn -0.632085 0.774838 -0.009744
vn -0.792413 0.609316 -0.028562
vn 0.223535 -0.124581 0.966702
vn 0.201578 -0.164447 0.965569
vn 0.534577 -0.293460 0.792533
vn 0.533643 -0.442350 0.720799
vn 0.804169 -0.594118 0.018338
vn 0.799857 -0.599916 0.018174
vn 0.546699 -0.456313 -0.702068
vn 0.551206 -0.306816 -0.775910
vn 0.219135 -0.183261 -0.958329
vn 0.244715 -0.139529 -0.959503
vn -0.626858 0.778820 -0.022122
vn -0.795811 0.605307 -0.017008
vn -0.534189 -0.295546 -0.792020
vn -0.533130 -0.444167 -0.720061
vn -0.803202 -0.595425 -0.018341
vn -0.799462 -0.600441 -0.018203
vn -0.546745 -0.456365 0.701998
vn -0.551206 -0.306026 0.776222
vn -0.219426 -0.182211 0.958463
vn -0.244902 -0.138367 0.959624
vn 0.626291 0.779275 0.022113
vn 0.628032 0.777952 0.019117
vn 0.809087 0.587365 0.019517
vn 0.794695 0.606776 0.016808
vn 0.630780 0.775859 0.012638
vn 0.809888 0.585926 0.027812
vn 0.631533 0.775287 0.009775
vn 0.791704 0.610231 0.028682
vn -0.985517 0.166893 -0.030061
vn 0.236779 -0.046814 0.970435
vn 0.234621 -0.038041 0.971342
vn 0.571208 -0.101262 0.814535
vn 0.580327 -0.089046 0.809501
vn 0.991629 -0.127110 0.022682
vn 0.991728 -0.126344 0.022666
vn 0.599408 -0.092986 -0.795024
vn 0.590638 -0.105105 -0.800062
vn 0.256716 -0.043186 -0.965522
vn 0.259399 -0.052420 -0.964347
vn -0.986769 0.160472 -0.023147
vn -0.571055 -0.103633 -0.814344
vn -0.580215 -0.091403 -0.809318
vn -0.991439 -0.128583 -0.022697
vn -0.991499 -0.128121 -0.022689
vn -0.599504 -0.092502 0.795008
vn -0.590549 -0.104835 0.800163
vn -0.256690 -0.041869 0.965586
vn -0.259412 -0.051230 0.964407
vn 0.986470 0.162319 0.023012
vn 0.986572 0.161463 0.024602
vn 0.986023 0.164181 0.028351
vn 0.985265 0.168362 0.030105
vn 0.816061 0.000000 -0.577966
vn 0.816061 0.000000 -0.577966
vn 0.816061 0.000000 -0.577966
vn 0.816061 0.000000 -0.577966
vn 0.320487 0.000000 -0.947253
vn 0.320487 0.000000 -0.947253
vn 0.320487 0.000000 -0.947253
vn 0.320487 0.000000 -0.947253
vn -0.297502 0.000000 -0.954721
vn -0.297502 0.000000 -0.954721
vn -0.297502 0.000000 -0.954721
vn -0.297502 0.000000 -0.954721
vn -0.801855 0.000000 -0.597519
vn -0.801855 0.000000 -0.597519
vn -0.801855 0.000000 -0.597519
vn -0.801855 0.000000 -0.597519
vn -0.999927 0.000000 -0.012084
vn -0.999927 0.000000 -0.012084
vn -0.999927 0.000000 -0.012084
vn -0.999927 0.000000 -0.012084
vn -0.816061 0.000000 0.577966
vn -0.816061 0.000000 0.577966
vn -0.816061 0.000000 0.577966
vn -0.816061 0.000000 0.577966
vn -0.320487 0.000000 0.947253
vn -0.320487 0.000000 0.947253
vn -0.320487 0.000000 0.947253
vn -0.320487 0.000000 0.947253
vn 0.297502 0.000000 0.954721
vn 0.297502 0.000000 0.954721
vn 0.297502 0.000000 0.954721
vn 0.297502 0.000000 0.954721
vn 0.801855 0.000000 0.597519
vn 0.801855 0.000000 0.597519
vn 0.801855 0.000000 0.597519
vn 0.801855 0.000000 0.597519
vn 0.999927 0.000000 0.012084
vn 0.999927 0.000000 0.012084
vn 0.999927 0.000000 0.012084
vn 0.999927 0.000000 0.012084
vn -0.011968 -0.999928 -0.000231
vn 0.012013 -0.999928 0.000249
vn 0.012631 -0.999920 0.000330
vn -0.013565 -0.999908 -0.000334
vn -0.011955 -0.999929 -0.000130
vn 0.012055 -0.999927 0.000356
vn -0.012751 -0.999919 -0.000119
vn 0.013367 -0.999911 0.000548
vn 0.032898 0.015519 0.999338
vn -0.039876 0.011988 0.999133
vn -0.030578 0.010359 0.999479
vn 0.025000 0.013285 0.999599
vn -0.046188 0.998932 -0.001374
vn 0.045424 0.998967 0.001329
vn 0.042212 0.999108 0.001283
vn -0.040351 0.999185 -0.001242
vn 0.042133 0.999111 0.001383
vn -0.040424 0.999182 -0.001329
vn 0.049076 0.998794 0.001668
vn -0.042631 0.999090 -0.001445
vn 0.031195 0.009257 -0.999470
vn -0.024319 0.011091 -0.999643
vn -0.033219 0.013463 -0.999358
vn 0.039448 0.010798 -0.999163
vn -0.331286 0.943463 -0.011247
vn -0.332592 0.943007 -0.010948
vn -0.335311 0.942052 -0.010214
vn -0.336253 0.941720 -0.009907
vn 0.097022 -0.995280 0.002127
vn 0.098522 -0.995133 0.002172
vn 0.099115 -0.995073 0.002519
vn 0.096437 -0.995336 0.002451
vn -0.098502 -0.995134 -0.002153
vn -0.097006 -0.995282 -0.002134
vn -0.096418 -0.995338 -0.002476
vn 0.333836 0.942579 0.009864
vn 0.334757 0.942249 0.010223
vn 0.337467 0.941272 0.011118
vn 0.338793 0.940791 0.011501
vn -0.099096 -0.995075 -0.002502
s 1
g polySurface1 Shovel
usemtl initialShadingGroup
f 93/38/1 94/43/2 2/44/3 1/39/4
s 2
f 94/145/5 95/146/6 3/147/7 2/148/8
f 95/146/9 96/151/10 4/152/11 3/147/12
s 4
f 96/11/13 97/1/14 5/4/15 4/12/16
s 5
f 97/1/17 98/2/18 6/3/19 5/4/20
s 6
f 98/2/21 99/7/22 7/8/23 6/3/24
s 7
f 99/178/25 100/179/26 8/180/27 7/181/28
f 100/179/29 101/184/30 9/185/31 8/180/32
s 9
f 101/47/33 102/37/34 10/40/35 9/48/36
s 10
f 102/37/37 93/38/38 1/39/39 10/40/40
s 11
f 21/36/41 22/32/42 23/30/43 24/33/44
s 12
f 14/71/45 13/69/46 15/65/47 16/67/48
s 11
f 24/33/44 23/30/43 25/29/49 26/34/50
s 12
f 15/65/47 13/69/46 17/70/51 18/66/52
s 11
f 26/34/50 25/29/49 27/31/53 28/35/54
s 12
f 18/66/52 17/70/51 19/72/55 20/68/56
s 1
f 34/61/57 35/63/58 16/67/59 15/65/60
s 2
f 35/167/61 36/166/62 14/170/63 16/171/64
s 10
f 33/62/65 34/61/66 15/65/67 18/66/68
s 7
f 31/202/69 32/201/70 20/205/71 19/206/72
s 9
f 32/64/73 33/62/74 18/66/75 20/68/76
s 2
f 37/169/77 38/168/78 22/172/79 21/173/80
s 4
f 38/28/81 39/26/82 23/30/83 22/32/84
s 5
f 39/26/85 40/25/86 25/29/87 23/30/88
s 6
f 40/25/89 41/27/90 27/31/91 25/29/92
s 7
f 41/200/93 42/199/94 28/203/95 27/204/96
s 23
f 47/73/97 46/74/98 49/75/99 48/76/100
f 46/74/98 45/79/101 50/80/102 49/75/99
s 2
f 71/164/103 70/160/104 73/161/105 72/165/106
f 70/160/104 69/157/107 74/156/108 73/161/105
s 23
f 47/73/97 48/76/100 30/83/109 29/84/110
f 48/76/100 51/82/111 31/90/112 30/83/109
s 7
f 51/197/113 54/198/114 32/201/70 31/202/69
s 9
f 54/60/115 57/57/116 33/62/74 32/64/73
s 10
f 57/57/117 60/58/118 34/61/66 33/62/65
s 1
f 60/58/119 63/59/120 35/63/58 34/61/57
s 2
f 63/162/121 66/163/122 36/166/62 35/167/61
s 23
f 66/77/123 47/73/97 29/84/110 36/85/124
s 2
f 71/164/103 72/165/106 38/168/78 37/169/77
s 4
f 72/24/125 75/21/126 39/26/82 38/28/81
s 5
f 75/21/127 78/22/128 40/25/86 39/26/85
s 6
f 78/22/129 81/23/130 41/27/90 40/25/89
s 7
f 81/195/131 84/196/132 42/199/94 41/200/93
s 25
f 84/93/133 87/94/134 43/95/135 42/96/136
f 87/94/134 90/99/137 44/100/138 43/95/135
f 90/99/137 71/104/139 37/105/140 44/100/138
s 23
f 11/87/141 12/88/142 50/80/102 45/79/101
f 12/88/142 8/92/143 53/89/144 50/80/102
s 7
f 8/180/32 9/185/31 56/189/145 53/190/146
s 9
f 9/48/36 10/40/35 59/46/147 56/54/148
s 10
f 10/40/40 1/39/39 62/45/149 59/46/150
s 1
f 1/39/4 2/44/3 65/51/151 62/45/152
s 2
f 2/148/8 3/147/7 68/153/153 65/154/154
s 23
f 3/91/155 11/87/141 45/79/101 68/86/156
s 2
f 3/147/12 4/152/11 74/156/108 69/157/107
s 4
f 4/12/16 5/4/15 77/10/157 74/18/158
s 5
f 5/4/20 6/3/19 80/9/159 77/10/160
s 6
f 6/3/24 7/8/23 83/15/161 80/9/162
s 7
f 7/181/28 8/180/27 86/186/163 83/187/164
s 25
f 8/106/165 12/107/166 89/102/167 86/101/168
f 12/107/166 11/110/169 92/108/170 89/102/167
f 11/110/169 3/112/171 69/111/172 92/108/170
s 23
f 48/76/100 49/75/99 52/81/173 51/82/111
f 49/75/99 50/80/102 53/89/144 52/81/173
s 7
f 51/197/113 52/193/174 55/194/175 54/198/114
f 52/193/174 53/190/146 56/189/145 55/194/175
s 9
f 54/60/115 55/56/176 58/52/177 57/57/116
f 55/56/176 56/54/148 59/46/147 58/52/177
s 10
f 57/57/117 58/52/178 61/53/179 60/58/118
f 58/52/178 59/46/150 62/45/149 61/53/179
s 1
f 60/58/119 61/53/180 64/55/181 63/59/120
f 61/53/180 62/45/152 65/51/151 64/55/181
s 2
f 63/162/121 64/158/182 67/159/183 66/163/122
f 64/158/182 65/154/154 68/153/153 67/159/183
s 23
f 45/79/101 46/74/98 67/78/184 68/86/156
f 46/74/98 47/73/97 66/77/123 67/78/184
s 4
f 72/24/125 73/20/185 76/16/186 75/21/126
f 73/20/185 74/18/158 77/10/157 76/16/186
s 5
f 75/21/127 76/16/187 79/17/188 78/22/128
f 76/16/187 77/10/160 80/9/159 79/17/188
s 6
f 78/22/129 79/17/189 82/19/190 81/23/130
f 79/17/189 80/9/162 83/15/161 82/19/190
s 7
f 81/195/131 82/191/191 85/192/192 84/196/132
f 82/191/191 83/187/164 86/186/163 85/192/192
s 25
f 84/93/133 85/97/193 88/98/194 87/94/134
f 85/97/193 86/101/168 89/102/167 88/98/194
f 87/94/134 88/98/194 91/103/195 90/99/137
f 88/98/194 89/102/167 92/108/170 91/103/195
f 69/111/172 70/109/196 91/103/195 92/108/170
f 70/109/196 71/104/139 90/99/137 91/103/195
s 1
f 119/42/197 120/49/198 138/223/199 129/211/200
s 2
f 120/149/201 121/150/202 137/222/203 138/224/204
f 121/150/205 122/155/206 136/220/207 137/222/208
s 4
f 122/14/209 123/5/210 135/219/211 136/221/212
s 5
f 123/5/213 124/6/214 134/218/215 135/219/216
s 6
f 124/6/217 125/13/218 133/216/219 134/218/220
s 7
f 125/182/221 126/183/222 132/215/223 133/217/224
f 126/183/225 127/188/226 131/213/227 132/215/228
s 9
f 127/50/229 128/41/230 130/212/231 131/214/232
s 10
f 128/41/233 119/42/234 129/211/235 130/212/236
s 27
f 103/113/237 104/114/238 117/115/239 118/116/240
f 104/114/238 103/113/237 106/117/241 105/118/242
f 105/118/242 106/117/241 108/124/243 107/125/244
s 7
f 107/207/245 108/210/246 110/209/247 109/208/248
s 28
f 109/129/249 110/130/250 112/131/251 111/132/252
f 111/132/252 112/131/251 114/135/253 113/136/254
f 113/136/254 114/135/253 116/140/255 115/141/256
s 2
f 115/176/257 116/175/258 118/174/259 117/177/260
f 21/173/80 115/176/257 117/177/260 37/169/77
s 28
f 21/144/261 24/142/262 113/136/254 115/141/256
f 24/142/262 26/137/263 111/132/252 113/136/254
f 26/137/263 28/138/264 109/129/249 111/132/252
s 7
f 28/203/95 42/199/94 107/207/245 109/208/248
s 27
f 44/120/265 104/114/238 105/118/242 43/126/266
f 43/126/266 105/118/242 107/125/244 42/128/267
f 37/119/268 117/115/239 104/114/238 44/120/265
f 106/117/241 103/113/237 29/122/269 30/123/270
f 108/124/243 106/117/241 30/123/270 31/127/271
s 7
f 110/209/247 108/210/246 31/202/69 19/206/72
s 28
f 112/131/251 110/130/250 19/133/272 17/134/273
f 114/135/253 112/131/251 17/134/273 13/139/274
f 116/140/255 114/135/253 13/139/274 14/143/275
s 2
f 118/174/259 116/175/258 14/170/63 36/166/62
s 27
f 103/113/237 118/116/240 36/121/276 29/122/269
s 10
f 130/212/236 129/211/235 93/38/38 102/37/37
s 9
f 131/214/232 130/212/231 102/37/34 101/47/33
s 7
f 132/215/228 131/213/227 101/184/30 100/179/29
f 133/217/224 132/215/223 100/179/26 99/178/25
s 6
f 134/218/220 133/216/219 99/7/22 98/2/21
s 5
f 135/219/216 134/218/215 98/2/18 97/1/17
s 4
f 136/221/212 135/219/211 97/1/14 96/11/13
s 2
f 137/222/208 136/220/207 96/151/10 95/146/9
f 138/224/204 137/222/203 95/146/6 94/145/5
s 1
f 129/211/200 138/223/199 94/43/2 93/38/1
g default
v 0.129449 3.926005 -0.040338
v 0.081016 3.926005 -0.108722
v 0.001638 3.926005 -0.135578
v -0.078365 3.926005 -0.110648
v -0.128436 3.926005 -0.043454
v -0.129449 3.926005 0.040338
v -0.081016 3.926005 0.108722
v -0.001638 3.926005 0.135578
v 0.078365 3.926005 0.110648
v 0.128436 3.926005 0.043454
v 0.124770 6.969763 -0.038880
v 0.078088 6.969763 -0.104793
v 0.001579 6.969763 -0.130678
v -0.075533 6.969763 -0.106649
v -0.123794 6.969763 -0.041884
v -0.124770 6.969763 0.038880
v -0.078088 6.969763 0.104793
v -0.001579 6.969763 0.130678
v 0.075533 6.969763 0.106649
v 0.123794 6.969763 0.041884
v -0.129449 3.828992 0.026706
v -0.081016 3.828992 0.071980
v -0.001638 3.828992 0.117947
v 0.078365 3.828992 0.073255
v 0.128436 3.828992 0.028769
v -0.128436 3.828992 -0.028769
v 0.129449 3.828992 -0.026706
v -0.078365 3.828992 -0.073255
v 0.001638 3.828992 -0.089760
v 0.081016 3.828992 -0.071980
v -0.892289 3.541025 -0.247079
v -0.558446 3.645350 -0.116656
v -0.011294 3.726419 0.102163
v 0.540171 3.645350 -0.115798
v 0.885308 3.541025 -0.245690
v -0.885309 3.541025 -0.284398
v 0.892289 3.541025 -0.283010
v -0.540171 3.645350 -0.214360
v 0.011294 3.726419 -0.060384
v 0.558446 3.645350 -0.213502
v -0.940189 1.915867 -0.290972
v -0.552241 1.510727 -0.147351
v -0.003451 1.138951 -0.026513
v -0.011169 1.138951 0.007191
v 0.534169 1.510727 -0.147351
v 0.932833 1.915867 -0.289462
v -0.932834 1.915867 -0.331573
v 0.003451 1.138951 -0.056659
v 0.940189 1.915867 -0.330063
v -0.534169 1.510727 -0.238228
v 0.011169 1.138951 -0.090363
v 0.552241 1.510727 -0.238227
v -0.931946 2.649801 -0.247078
v -0.924656 2.649801 -0.284398
v -0.564179 2.701964 -0.214360
v 0.011796 2.742498 -0.081177
v 0.583265 2.701964 -0.213502
v 0.931946 2.649801 -0.283010
v 0.924655 2.649801 -0.245691
v 0.564179 2.701964 -0.115798
v -0.011796 2.742498 0.039591
v -0.583265 2.701964 -0.116656
v 0.127109 5.447884 -0.039609
v 0.079552 5.447884 -0.106757
v 0.001609 5.447884 -0.133128
v -0.076949 5.447884 -0.108649
v -0.126115 5.447884 -0.042669
v -0.127109 5.447884 0.039609
v -0.079552 5.447884 0.106757
v -0.001609 5.447884 0.133128
v 0.076949 5.447884 0.108649
v 0.126115 5.447884 0.042669
vt 0.035902 0.458513
vt 0.050234 0.458587
vt 0.047087 0.979225
vt 0.033269 0.979149
vt 0.038470 0.441946
vt 0.047993 0.442000
vt 0.064567 0.458631
vt 0.060903 0.979315
vt 0.021571 0.458392
vt 0.019452 0.979086
vt 0.026994 0.441368
vt 0.059356 0.441593
vt 0.104715 0.460371
vt 0.119043 0.460676
vt 0.107524 0.981196
vt 0.093709 0.980897
vt 0.107548 0.443848
vt 0.117070 0.444055
vt 0.133374 0.460950
vt 0.121336 0.981508
vt 0.090387 0.460020
vt 0.079895 0.980612
vt 0.096083 0.443086
vt 0.128438 0.443831
vt 0.483715 0.367063
vt 0.477242 0.366431
vt 0.481826 0.240702
vt 0.488850 0.241390
vt 0.467596 0.518812
vt 0.461133 0.518178
vt 0.525434 0.031519
vt 0.520191 0.030815
vt 0.488262 0.142381
vt 0.514388 0.029671
vt 0.462517 0.356163
vt 0.456013 0.356083
vt 0.465179 0.230641
vt 0.472237 0.230728
vt 0.459332 0.508732
vt 0.452838 0.508650
vt 0.394844 0.029671
vt 0.400128 0.029916
vt 0.406043 0.029924
vt 0.451227 0.135796
vt 0.504565 0.323456
vt 0.513563 0.326474
vt 0.508493 0.471648
vt 0.502089 0.470566
vt 0.523864 0.321460
vt 0.518967 0.409697
vt 0.499096 0.313521
vt 0.499084 0.406782
vt 0.542166 0.466657
vt 0.532942 0.468891
vt 0.548441 0.323451
vt 0.554441 0.320966
vt 0.551839 0.472578
vt 0.556762 0.381922
vt 0.379927 0.520998
vt 0.365660 0.520253
vt 0.370194 0.000154
vt 0.384007 0.000267
vt 0.379600 0.539055
vt 0.361952 0.548438
vt 0.351353 0.520744
vt 0.356382 0.000028
vt 0.456476 0.580359
vt 0.363443 0.565994
vt 0.348596 0.549103
vt 0.459049 0.735140
vt 0.362743 0.727705
vt 0.269557 0.579463
vt 0.512259 0.597944
vt 0.517369 0.744102
vt 0.453740 0.930638
vt 0.361373 0.991026
vt 0.265617 0.734210
vt 0.519600 0.864690
vt 0.268920 0.929746
vt 0.211776 0.596504
vt 0.205294 0.742601
vt 0.201934 0.863161
vt 0.156125 0.475685
vt 0.169618 0.476079
vt 0.164179 0.966832
vt 0.151153 0.966694
vt 0.154987 0.458880
vt 0.173344 0.431259
vt 0.183128 0.475986
vt 0.177205 0.966982
vt 0.081331 0.399637
vt 0.172118 0.415004
vt 0.187293 0.430408
vt 0.080277 0.254147
vt 0.172136 0.261781
vt 0.264082 0.400360
vt 0.026162 0.382644
vt 0.022709 0.245258
vt 0.084679 0.069978
vt 0.171696 0.012931
vt 0.264425 0.254019
vt 0.197605 0.431500
vt 0.320643 0.382098
vt 0.020170 0.131787
vt 0.259563 0.069702
vt 0.323638 0.244786
vt 0.325710 0.131291
vt 0.566109 0.499956
vt 0.526218 0.590615
vt 0.588577 0.386910
vt 0.594370 0.388103
vt 0.535140 0.180801
vt 0.570163 0.274704
vt 0.113284 0.720936
vt 0.127355 0.721229
vt 0.382018 0.260523
vt 0.367932 0.260407
vt 0.353861 0.260279
vt 0.020511 0.718739
vt 0.034586 0.718831
vt 0.048660 0.718906
vt 0.062735 0.718973
vt 0.153621 0.721244
vt 0.166897 0.721385
vt 0.180168 0.721538
vt 0.085141 0.720316
vt 0.099212 0.720634
vt 0.375238 0.549264
vt 0.365587 0.538107
vt 0.351500 0.538849
vt 0.169762 0.460346
vt 0.184550 0.459161
vt 0.159416 0.430388
vn -0.174241 -0.527470 -0.831514
vn -0.596088 -0.782745 -0.178855
vn -0.032101 -0.799761 -0.599459
vn -0.028821 -0.546016 -0.837279
vn 0.649923 -0.754990 0.087123
vn 0.199194 -0.551370 -0.810132
vn -0.625292 -0.777879 -0.062569
vn 0.004751 -0.862960 0.505250
vn 0.657908 -0.722373 0.212918
vn -0.546735 -0.443899 0.709954
vn 0.066810 -0.464074 0.883273
vn 0.503740 -0.360098 0.785223
vn 0.816060 0.001531 -0.577965
vn 0.816060 0.001531 -0.577965
vn 0.816060 0.001531 -0.577965
vn 0.816060 0.001531 -0.577965
vn 0.320487 0.001531 -0.947252
vn 0.320487 0.001531 -0.947252
vn 0.320487 0.001531 -0.947252
vn 0.320487 0.001531 -0.947252
vn -0.297501 0.001531 -0.954720
vn -0.297501 0.001531 -0.954720
vn -0.297502 0.001531 -0.954720
vn -0.297502 0.001531 -0.954720
vn -0.801854 0.001531 -0.597518
vn -0.801854 0.001531 -0.597518
vn -0.801854 0.001531 -0.597518
vn -0.801854 0.001531 -0.597518
vn -0.999926 0.001531 -0.012084
vn -0.999926 0.001531 -0.012084
vn -0.999926 0.001531 -0.012084
vn -0.999926 0.001531 -0.012084
vn -0.816060 0.001531 0.577965
vn -0.816060 0.001531 0.577965
vn -0.816060 0.001531 0.577965
vn -0.816060 0.001531 0.577965
vn -0.320487 0.001531 0.947252
vn -0.320487 0.001531 0.947252
vn -0.320487 0.001531 0.947252
vn -0.320487 0.001531 0.947252
vn 0.297501 0.001531 0.954720
vn 0.297501 0.001531 0.954720
vn 0.297502 0.001531 0.954720
vn 0.297502 0.001531 0.954720
vn 0.801854 0.001531 0.597518
vn 0.801854 0.001531 0.597518
vn 0.801854 0.001531 0.597518
vn 0.801854 0.001531 0.597518
vn 0.999926 0.001531 0.012084
vn 0.999926 0.001531 0.012084
vn 0.999926 0.001531 0.012084
vn 0.999926 0.001531 0.012084
vn -0.813736 -0.006041 0.581203
vn -0.813027 -0.008314 0.582167
vn -0.544466 0.444170 0.711527
vn -0.686252 0.141542 0.713459
vn -0.326409 -0.014023 0.945125
vn -0.327028 -0.015664 0.944885
vn -0.392595 -0.020383 0.919486
vn -0.395113 -0.048150 0.917370
vn 0.798655 -0.009022 0.601721
vn 0.799411 -0.006560 0.600748
vn 0.655990 0.055726 0.752709
vn 0.523127 0.300571 0.797493
vn 0.304352 -0.015943 0.952426
vn 0.303742 -0.014374 0.952646
vn 0.378733 -0.103274 0.919726
vn 0.377376 -0.086722 0.921991
vn -0.999925 0.001456 -0.012198
vn -0.999925 0.001457 -0.012197
vn -0.475015 0.879464 -0.030074
vn -0.526511 0.849638 -0.030038
vn 0.999925 0.001456 0.012198
vn 0.999925 0.001457 0.012198
vn 0.555106 0.831189 0.031329
vn 0.494492 0.868611 0.031494
vn -0.798655 -0.009022 -0.601722
vn -0.799411 -0.006560 -0.600749
vn -0.406785 0.716381 -0.566854
vn -0.300797 0.817790 -0.490653
vn -0.294459 -0.024918 -0.955339
vn -0.294873 -0.021426 -0.955296
vn 0.123759 -0.030193 -0.991853
vn 0.155274 0.003167 -0.987866
vn 0.317718 -0.020926 -0.947954
vn 0.317249 -0.024607 -0.948023
vn -0.153406 -0.021195 -0.987936
vn -0.110045 -0.062008 -0.991990
vn 0.813736 -0.006041 -0.581203
vn 0.813027 -0.008314 -0.582167
vn 0.323151 0.831093 -0.452612
vn 0.431628 0.729985 -0.529923
vn -0.467598 0.555678 0.687440
vn -0.467598 0.555678 0.687440
vn -0.389928 0.005914 0.920826
vn -0.389928 0.005914 0.920826
vn 0.456122 0.394796 0.797552
vn 0.456122 0.394796 0.797552
vn 0.375710 -0.067930 0.924244
vn 0.375710 -0.067930 0.924244
vn -0.345153 0.938076 -0.029730
vn -0.345153 0.938076 -0.029730
vn 0.363758 0.930966 0.031337
vn 0.363758 0.930966 0.031337
vn -0.206634 0.884980 -0.417269
vn -0.206634 0.884980 -0.417269
vn 0.205388 0.056935 -0.977023
vn 0.205389 0.056935 -0.977023
vn -0.207289 0.030364 -0.977809
vn -0.207289 0.030364 -0.977809
vn 0.221806 0.899949 -0.375357
vn 0.221806 0.899949 -0.375357
vn -0.315971 -0.021303 0.948530
vn -0.363044 -0.018527 0.931588
vn -0.365321 -0.040355 0.930007
vn -0.288920 -0.027079 0.956970
vn -0.000608 -0.026896 0.999638
vn 0.000241 -0.025840 0.999666
vn 0.351379 -0.018800 0.936044
vn 0.310206 -0.021522 0.950426
vn 0.285290 -0.027230 0.958054
vn 0.353694 -0.040574 0.934481
vn -0.981912 0.033936 -0.186272
vn -0.981932 0.033602 -0.186225
vn -0.982547 0.022448 -0.184654
vn -0.982547 0.022448 -0.184654
vn 0.982232 0.022705 0.186294
vn 0.982196 0.023696 0.186359
vn 0.982791 -0.000436 0.184723
vn 0.982791 -0.000436 0.184723
vn 0.214558 0.019844 -0.976510
vn 0.234620 0.012804 -0.972003
vn 0.244236 0.017508 -0.969558
vn 0.227317 0.038486 -0.973060
vn 0.000462 0.011658 -0.999932
vn 0.000871 0.014769 -0.999891
vn -0.236978 0.012951 -0.971429
vn -0.246008 0.017893 -0.969103
vn -0.219190 0.020121 -0.975475
vn -0.231585 0.038982 -0.972033
vn -0.981282 0.043494 -0.187599
vn -0.981282 0.043494 -0.187599
vn 0.196157 -0.006774 -0.980549
vn 0.231268 0.003220 -0.972885
vn 0.000949 0.007570 -0.999971
vn -0.233371 0.003064 -0.972383
vn -0.201133 -0.007069 -0.979538
vn 0.981278 0.043494 0.187621
vn 0.981278 0.043494 0.187621
vn 0.347816 0.012011 0.937486
vn 0.322792 -0.015098 0.946350
vn -0.000527 -0.028272 0.999600
vn -0.328586 -0.014891 0.944357
vn -0.359492 0.012634 0.933063
s 1
g Shovel polySurface2
usemtl initialShadingGroup
f 180/332/277 179/333/278 181/334/279 182/335/280
f 184/336/281 183/337/282 182/335/280 181/334/279
f 181/255/279 179/252/278 185/251/283 186/256/284
f 184/261/281 181/265/279 186/266/284 187/262/285
f 186/256/284 185/251/283 188/257/286 189/258/287
f 187/262/285 186/266/284 189/267/287 190/268/288
s 2
f 201/338/289 202/339/290 150/244/291 149/239/292
s 3
f 202/340/293 203/341/294 151/285/295 150/286/296
s 4
f 203/341/297 204/342/298 152/290/299 151/285/300
s 5
f 204/343/301 205/344/302 153/228/303 152/234/304
s 6
f 205/344/305 206/345/306 154/227/307 153/228/308
s 7
f 206/345/309 207/346/310 155/232/311 154/227/312
s 8
f 207/347/313 208/348/314 156/309/315 155/310/316
s 9
f 208/348/317 209/349/318 157/314/319 156/309/320
s 10
f 209/350/321 210/351/322 158/240/323 157/246/324
s 11
f 210/351/325 201/338/326 149/239/327 158/240/328
s 7
f 145/231/329 144/226/330 159/230/331 160/236/332
s 8
f 146/308/333 145/307/334 160/311/335 161/355/336
s 10
f 148/237/337 147/245/338 162/247/339 163/241/340
s 9
f 147/313/341 146/308/342 161/355/343 162/356/344
s 6
f 144/226/345 143/225/346 164/229/347 159/230/348
s 11
f 139/238/349 148/237/350 163/241/351 165/242/352
s 5
f 143/225/353 142/233/354 166/235/355 164/229/356
s 4
f 142/289/357 141/284/358 167/353/359 166/354/360
s 3
f 141/284/361 140/283/362 168/287/363 167/353/364
s 2
f 140/243/365 139/238/366 165/242/367 168/248/368
s 7
f 160/275/332 159/269/331 169/272/369 170/276/370
s 8
f 161/312/336 160/357/335 170/315/371 171/316/372
s 10
f 163/326/340 162/317/339 172/320/373 173/327/374
s 9
f 162/317/344 161/312/343 171/316/375 172/320/376
s 6
f 159/269/348 164/270/347 174/271/377 169/272/378
s 11
f 165/277/352 163/278/351 173/279/379 175/280/380
s 5
f 164/270/356 166/273/355 176/274/381 174/271/382
s 4
f 166/293/360 167/288/359 177/292/383 176/296/384
s 3
f 167/288/364 168/352/363 178/291/385 177/292/386
s 2
f 168/281/368 165/277/367 175/280/387 178/282/388
s 12
f 200/318/389 191/322/390 179/328/391 180/323/392
f 199/319/393 200/318/389 180/323/392 182/324/394
f 197/330/395 198/325/396 183/329/397 184/331/398
f 198/325/396 199/319/393 182/324/394 183/329/397
s 14
f 191/249/399 192/250/400 185/251/401 179/252/402
s 15
f 196/259/403 197/260/404 184/261/405 187/262/406
s 16
f 192/305/407 193/301/408 188/303/409 185/306/410
f 193/301/408 194/295/411 189/300/412 188/303/409
f 194/295/411 195/294/413 190/299/414 189/300/412
f 195/294/413 196/298/415 187/302/416 190/299/414
s 14
f 169/253/417 174/254/418 192/250/400 191/249/399
s 16
f 174/304/419 176/296/420 193/301/408 192/305/407
f 176/296/420 177/292/421 194/295/411 193/301/408
f 177/292/421 178/291/422 195/294/413 194/295/411
f 178/291/422 175/297/423 196/298/415 195/294/413
s 15
f 175/263/424 173/264/425 197/260/404 196/259/403
s 12
f 173/327/426 172/320/427 198/325/396 197/330/395
f 172/320/427 171/316/428 199/319/393 198/325/396
f 171/316/428 170/315/429 200/318/389 199/319/393
f 170/315/429 169/321/430 191/322/390 200/318/389
s 2
f 139/238/366 140/243/365 202/339/290 201/338/289
s 3
f 140/283/362 141/284/361 203/341/294 202/340/293
s 4
f 141/284/358 142/289/357 204/342/298 203/341/297
s 5
f 142/233/354 143/225/353 205/344/302 204/343/301
s 6
f 143/225/346 144/226/345 206/345/306 205/344/305
s 7
f 144/226/330 145/231/329 207/346/310 206/345/309
s 8
f 145/307/334 146/308/333 208/348/314 207/347/313
s 9
f 146/308/342 147/313/341 209/349/318 208/348/317
s 10
f 147/245/338 148/237/337 210/351/322 209/350/321
s 11
f 148/237/350 139/238/349 201/338/326 210/351/325
