# This file uses centimeters as units for non-parametric coordinates.

mtllib Spade.mtl
g default
v 0.049480 0.195534 3.086612
v -0.049480 0.195534 3.086612
v -0.098959 0.195534 3.172313
v -0.049480 0.195534 3.258014
v 0.049480 0.195534 3.258014
v 0.098959 0.195534 3.172313
v 0.072024 7.138774 3.047564
v -0.072024 7.138774 3.047563
v -0.144048 7.138774 3.172313
v -0.072024 7.138774 3.297062
v 0.072024 7.138774 3.297062
v 0.144048 7.138774 3.172313
v -0.036012 7.166735 3.109938
v -0.093631 7.150997 3.184788
v -0.057619 7.150997 3.247163
v 0.036012 7.166735 3.234688
v 0.093631 7.150997 3.159838
v 0.057619 7.150997 3.097463
v -0.075869 0.195534 3.178026
v -0.042882 0.195534 3.235161
v -0.032986 0.195534 3.115179
v 0.032986 0.195534 3.229447
v 0.075869 0.195534 3.166600
v 0.042882 0.195534 3.109465
vt 0.952966 0.565788
vt 0.923290 0.565788
vt 0.908452 0.591488
vt 0.923290 0.617189
vt 0.952966 0.617188
vt 0.967804 0.591488
vt 0.734579 0.687464
vt 0.767437 0.687464
vt 0.800296 0.687464
vt 0.833154 0.687464
vt 0.866012 0.687464
vt 0.898870 0.687464
vt 0.931729 0.687464
vt 0.734579 0.983930
vt 0.767437 0.983930
vt 0.800296 0.983930
vt 0.833154 0.983930
vt 0.866012 0.983930
vt 0.898870 0.983930
vt 0.931729 0.983930
vt 0.835756 0.563337
vt 0.791847 0.563337
vt 0.769893 0.601363
vt 0.791847 0.639390
vt 0.835756 0.639390
vt 0.857711 0.601363
vt 0.791847 0.639390
vt 0.769893 0.601363
vt 0.791847 0.563337
vt 0.835756 0.563337
vt 0.857711 0.601363
vt 0.835756 0.639390
vt 0.923290 0.617189
vt 0.908452 0.591488
vt 0.923290 0.565788
vt 0.952966 0.617188
vt 0.967804 0.591488
vt 0.952966 0.565788
vn 0.000001 -0.005624 -0.999984
vn 0.000001 -0.005624 -0.999984
vn 0.000001 -0.005624 -0.999984
vn 0.000001 -0.005624 -0.999984
vn -0.866012 -0.005624 -0.499992
vn -0.866012 -0.005624 -0.499992
vn -0.866012 -0.005624 -0.499992
vn -0.866012 -0.005624 -0.499992
vn -0.866012 -0.005624 0.499992
vn -0.866012 -0.005624 0.499992
vn -0.866012 -0.005624 0.499992
vn -0.866012 -0.005624 0.499992
vn 0.000000 -0.005624 0.999984
vn 0.000000 -0.005624 0.999984
vn 0.000000 -0.005624 0.999984
vn 0.000000 -0.005624 0.999984
vn 0.866012 -0.005624 0.499992
vn 0.866012 -0.005624 0.499992
vn 0.866012 -0.005624 0.499992
vn 0.866012 -0.005624 0.499992
vn 0.866012 -0.005624 -0.499992
vn 0.866012 -0.005624 -0.499992
vn 0.866012 -0.005624 -0.499992
vn 0.866012 -0.005624 -0.499992
vn 0.000000 -1.000000 0.000000
vn 0.000000 -1.000000 -0.000000
vn 0.000000 -1.000000 -0.000000
vn 0.000000 -1.000000 0.000000
vn 0.000000 -1.000000 0.000000
vn 0.000000 -1.000000 -0.000000
vn -0.077608 0.987881 -0.134420
vn -0.238068 0.970789 0.029880
vn -0.144910 0.970789 0.191233
vn 0.077608 0.987881 0.134418
vn 0.238068 0.970788 -0.029886
vn 0.144910 0.970788 -0.191238
vn -0.141167 0.959317 -0.244504
vn -0.308746 0.949526 -0.055470
vn -0.106335 0.949527 0.295112
vn 0.141167 0.959317 0.244505
vn 0.308746 0.949526 0.055467
vn 0.106335 0.949526 -0.295115
vn 0.000000 -1.000000 0.000001
vn 0.000000 -1.000000 0.000000
vn 0.000000 -1.000000 -0.000000
vn 0.000000 -1.000000 0.000001
vn 0.000000 -1.000000 0.000000
vn 0.000000 -1.000000 -0.000000
s off
g pCylinder1 Spade
usemtl initialShadingGroup
f 1/7/1 2/8/2 8/15/3 7/14/4
f 2/8/5 3/9/6 9/16/7 8/15/8
f 3/9/9 4/10/10 10/17/11 9/16/12
f 4/10/13 5/11/14 11/18/15 10/17/16
f 5/11/17 6/12/18 12/19/19 11/18/20
f 6/12/21 1/13/22 7/20/23 12/19/24
s 1
f 20/33/25 19/34/26 21/35/27 22/36/28
f 23/37/29 22/36/28 21/35/27 24/38/30
s 2
f 13/27/31 14/28/32 15/29/33 16/30/34
f 13/27/31 16/30/34 17/31/35 18/32/36
f 8/24/37 9/23/38 14/28/32 13/27/31
f 9/23/38 10/22/39 15/29/33 14/28/32
f 10/22/39 11/21/40 16/30/34 15/29/33
f 11/21/40 12/26/41 17/31/35 16/30/34
f 12/26/41 7/25/42 18/32/36 17/31/35
f 7/25/42 8/24/37 13/27/31 18/32/36
s 1
f 4/4/43 3/3/44 19/34/26 20/33/25
f 3/3/44 2/2/45 21/35/27 19/34/26
f 5/5/46 4/4/43 20/33/25 22/36/28
f 6/6/47 5/5/46 22/36/28 23/37/29
f 2/2/45 1/1/48 24/38/30 21/35/27
f 1/1/48 6/6/47 23/37/29 24/38/30
g default
v -1.278734 0.577144 3.589817
v 0.722378 0.445078 3.589817
v -1.272099 0.606920 3.589817
v 0.722378 0.555002 3.589817
v -1.272099 0.606920 2.754809
v 0.722378 0.555002 2.754809
v -1.278734 0.577144 2.754809
v 0.722378 0.445078 2.754809
v -0.131230 0.393152 3.589817
v 0.131230 0.393152 3.589817
v 0.131230 0.393152 2.754809
v -0.131230 0.393152 2.754809
v 0.131230 0.503076 2.754809
v -0.131230 0.503076 2.754809
v 0.131230 0.503076 3.589817
v -0.131230 0.503076 3.589817
v 0.175041 0.393152 3.816307
v 0.175041 0.503076 3.816307
v 0.722382 0.445078 3.816307
v 0.722382 0.555002 3.816307
v 0.175041 0.503076 2.528319
v 0.175041 0.393152 2.528319
v 0.722382 0.555002 2.528319
v 0.722382 0.445078 2.528319
v -1.141912 0.604784 2.528319
v -0.175041 0.503076 2.528319
v -0.175041 0.393152 2.528319
v -1.148547 0.575007 2.528319
v -0.175041 0.393152 3.816307
v -1.148547 0.575007 3.816307
v -0.175041 0.503076 3.816307
v -1.141912 0.604784 3.816307
v -1.304646 0.607454 3.322599
v -1.304646 0.607454 3.022026
v -0.131230 0.503076 3.022026
v -0.131230 0.503076 3.322599
v 0.131230 0.503076 3.022026
v 0.131230 0.503076 3.322599
v 0.722378 0.555002 3.022026
v 0.722378 0.555002 3.322599
v 0.722378 0.445078 3.022026
v 0.722378 0.445078 3.322599
v 0.131230 0.393152 3.022026
v 0.131230 0.393152 3.322599
v -0.131230 0.393152 3.022026
v -0.131230 0.393152 3.322599
v -1.311281 0.577678 3.022026
v -1.311281 0.577678 3.322599
v 1.685904 0.629926 3.467724
v 1.685904 0.667613 3.467724
v 1.685908 0.667613 3.627984
v 1.685908 0.629926 3.627984
v 1.685904 0.667613 2.876902
v 1.685904 0.629926 2.876902
v 1.685908 0.629926 2.716642
v 1.685908 0.667613 2.716642
v 1.685904 0.667613 3.249403
v 1.685904 0.667613 3.095223
v 1.685904 0.629926 3.249403
v 1.685904 0.629926 3.095223
v -0.754060 0.450877 2.754809
v -0.768511 0.451483 2.528319
v -0.761876 0.527639 2.528319
v -0.747425 0.527032 2.754809
v -0.747425 0.527032 3.022026
v -0.747425 0.527032 3.322599
v -0.747425 0.527032 3.589817
v -0.761876 0.527639 3.816307
v -0.768511 0.451483 3.816307
v -0.754060 0.450877 3.589817
v -0.754060 0.450877 3.322599
v -0.754060 0.450877 3.022026
vt 0.225883 0.158389
vt 0.232959 0.001429
vt 0.275649 0.003354
vt 0.268573 0.160314
vt 0.225158 0.243894
vt 0.267773 0.244300
vt 0.174878 0.243468
vt 0.175603 0.157963
vt 0.230672 0.419164
vt 0.200518 0.418876
vt 0.119048 0.157484
vt 0.118323 0.242989
vt 0.159621 0.418554
vt 0.130611 0.418308
vt 0.068769 0.157058
vt 0.068044 0.242563
vt 0.025427 0.242246
vt 0.026052 0.158258
vt 0.089714 0.417937
vt 0.059560 0.417713
vt 0.064354 0.000000
vt 0.021637 0.001201
vt 0.337761 0.005220
vt 0.337372 0.090727
vt 0.294754 0.090577
vt 0.295049 0.006588
vt 0.388042 0.005449
vt 0.387652 0.090956
vt 0.359386 0.363932
vt 0.329230 0.363827
vt 0.444209 0.091214
vt 0.444599 0.005707
vt 0.359197 0.417800
vt 0.329041 0.417694
vt 0.429192 0.364275
vt 0.400181 0.364142
vt 0.494879 0.005936
vt 0.494490 0.091443
vt 0.428946 0.418142
vt 0.399935 0.418009
vt 0.537577 0.007693
vt 0.537106 0.091681
vt 0.443493 0.248332
vt 0.493774 0.248561
vt 0.564256 0.768297
vt 0.564245 0.714429
vt 0.594400 0.714423
vt 0.594412 0.768290
vt 0.587157 0.441298
vt 0.629775 0.441288
vt 0.207340 0.592770
vt 0.222330 0.436363
vt 0.264868 0.440443
vt 0.249858 0.596840
vt 0.247754 0.651548
vt 0.205160 0.648728
vt 0.200004 0.768909
vt 0.243528 0.764973
vt 0.154877 0.646637
vt 0.157180 0.590735
vt 0.149696 0.768252
vt 0.098323 0.644247
vt 0.100750 0.588349
vt 0.093221 0.765855
vt 0.048039 0.642086
vt 0.050612 0.586116
vt 0.043038 0.762268
vt 0.005361 0.641295
vt 0.007899 0.586579
vt 0.000000 0.754675
vt 0.048899 0.429003
vt 0.006168 0.429471
vt 0.314211 0.604662
vt 0.314066 0.708519
vt 0.266905 0.709707
vt 0.267016 0.606237
vt 0.369753 0.708460
vt 0.369781 0.604697
vt 0.314447 0.912282
vt 0.266425 0.907418
vt 0.369930 0.913645
vt 0.432308 0.604681
vt 0.432378 0.708429
vt 0.313705 0.959280
vt 0.265318 0.954760
vt 0.432295 0.913663
vt 0.369686 0.960699
vt 0.488061 0.708466
vt 0.487893 0.604641
vt 0.487777 0.912247
vt 0.432572 0.960635
vt 0.535224 0.709640
vt 0.535087 0.606197
vt 0.535796 0.907360
vt 0.488547 0.959231
vt 0.536928 0.954696
vt 0.304182 0.440778
vt 0.348740 0.440778
vt 0.348740 0.580014
vt 0.304182 0.580014
vt 0.458001 0.365532
vt 0.458001 0.308975
vt 0.476853 0.308975
vt 0.476853 0.365532
vt 0.458001 0.258694
vt 0.476853 0.258694
vt 0.476853 0.415814
vt 0.458001 0.415814
vt 0.471690 0.485336
vt 0.471690 0.535456
vt 0.454983 0.535456
vt 0.454983 0.485336
vt 0.471690 0.580014
vt 0.454983 0.580014
vt 0.454983 0.440778
vt 0.471690 0.440778
vt 0.370465 0.440778
vt 0.387172 0.440778
vt 0.387172 0.580014
vt 0.370465 0.580014
vt 0.431193 0.580014
vt 0.414486 0.580014
vt 0.414486 0.440778
vt 0.431193 0.440778
vt 0.685117 0.308319
vt 0.686486 0.207414
vt 0.711088 0.255421
vt 0.709720 0.356326
vt 0.758722 0.425780
vt 0.758253 0.460375
vt 0.513385 0.424537
vt 0.511254 0.267432
vt 0.549560 0.192686
vt 0.551690 0.349791
vt 0.625124 0.030686
vt 0.625854 0.084549
vt 0.202736 0.844069
vt 0.202102 0.913980
vt 0.175134 0.891304
vt 0.175608 0.790391
vt 0.219302 0.984883
vt 0.219736 0.957549
vt 0.650019 0.704578
vt 0.640178 0.596171
vt 0.675475 0.509436
vt 0.688994 0.665974
vt 0.628173 0.774423
vt 0.632310 0.816785
vt 0.535024 0.578361
vt 0.533133 0.421252
vt 0.604113 0.259426
vt 0.604762 0.313290
vt 0.656244 0.431700
vt 0.659651 0.274617
vt 0.726827 0.540349
vt 0.725659 0.594204
vt 0.046540 0.879933
vt 0.047347 0.779022
vt 0.091313 0.949076
vt 0.091037 0.983672
vt 0.622708 0.346874
vt 0.622010 0.189756
vt 0.691861 0.028484
vt 0.692100 0.082351
vn 0.000000 0.000000 1.000000
vn 0.000000 0.000000 1.000000
vn 0.000000 0.000000 1.000000
vn 0.000000 0.000000 1.000000
vn 0.000000 0.000000 -1.000000
vn 0.000000 0.000000 -1.000000
vn 0.000000 0.000000 -1.000000
vn 0.000000 0.000000 -1.000000
vn 0.000000 0.000000 1.000000
vn 0.000000 0.000000 1.000000
vn 0.022088 0.000000 0.999756
vn 0.167114 0.000000 0.985938
vn 0.000000 0.000000 -1.000000
vn 0.000000 0.000000 -1.000000
vn 0.167114 0.000000 -0.985938
vn 0.022088 0.000000 -0.999756
vn 0.000000 0.000000 -1.000000
vn 0.000000 0.000000 -1.000000
vn 0.000000 0.000000 -1.000000
vn 0.000000 0.000000 -1.000000
vn -0.000000 0.000000 1.000000
vn -0.000000 0.000000 1.000000
vn -0.000000 0.000000 1.000000
vn -0.000000 0.000000 1.000000
vn -0.981801 0.000000 0.189914
vn -0.981801 0.000000 0.189914
vn -0.981801 0.000000 0.189914
vn -0.981801 0.000000 0.189914
vn 0.071456 -0.997439 -0.003130
vn 0.129881 -0.991527 -0.002336
vn 0.146978 -0.989133 -0.003753
vn 0.090838 -0.995827 -0.008786
vn 1.000000 0.000000 -0.000022
vn 1.000000 0.000000 -0.000022
vn 1.000000 0.000000 -0.000022
vn 1.000000 0.000000 -0.000022
vn -0.100212 0.994963 0.002317
vn -0.071456 0.997439 0.003130
vn -0.090838 0.995827 0.008786
vn -0.104946 0.994470 0.003881
vn -0.981801 0.000000 -0.189914
vn -0.981801 0.000000 -0.189914
vn -0.981801 0.000000 -0.189914
vn -0.981801 0.000000 -0.189914
vn -0.071456 0.997439 -0.003130
vn -0.100212 0.994963 -0.002317
vn -0.104946 0.994470 -0.003881
vn -0.090838 0.995827 -0.008786
vn 1.000000 0.000000 0.000022
vn 1.000000 0.000000 0.000022
vn 1.000000 0.000000 0.000022
vn 1.000000 0.000000 0.000022
vn 0.129881 -0.991527 0.002336
vn 0.071456 -0.997439 0.003130
vn 0.090838 -0.995827 0.008786
vn 0.146978 -0.989133 0.003753
vn 0.098229 0.995040 0.015714
vn 0.092339 0.995690 0.008618
vn 0.031931 0.999489 -0.001379
vn 0.040297 0.999180 -0.003845
vn 0.981801 0.000000 -0.189914
vn 0.981801 0.000000 -0.189914
vn 0.981801 0.000000 -0.189914
vn 0.981801 0.000000 -0.189914
vn -0.075944 -0.997104 0.003955
vn -0.161678 -0.986761 -0.012783
vn -0.171366 -0.984946 -0.022680
vn -0.094981 -0.995420 0.010884
vn -0.927288 0.206622 -0.312160
vn -0.930417 0.207319 -0.302230
vn -0.850497 0.189512 -0.490653
vn -0.850497 0.189512 -0.490653
vn -0.171366 -0.984946 0.022680
vn -0.161678 -0.986761 0.012783
vn -0.075944 -0.997104 -0.003955
vn -0.094981 -0.995420 -0.010884
vn 0.981801 0.000000 0.189914
vn 0.981801 0.000000 0.189914
vn 0.981801 0.000000 0.189914
vn 0.981801 0.000000 0.189914
vn 0.031931 0.999489 0.001379
vn 0.092339 0.995690 -0.008618
vn 0.098229 0.995040 -0.015714
vn 0.040297 0.999180 0.003845
vn -0.930417 0.207319 0.302230
vn -0.927288 0.206622 0.312160
vn -0.850497 0.189511 0.490653
vn -0.850497 0.189511 0.490653
vn -0.974543 0.217149 0.055790
vn -0.974543 0.217149 -0.055790
vn -0.974513 0.217143 -0.056342
vn -0.974513 0.217143 0.056342
vn 0.089073 0.996023 0.001745
vn 0.089073 0.996024 -0.001745
vn 0.027254 0.999629 0.000000
vn 0.027254 0.999629 0.000000
vn -0.060719 0.998155 0.000000
vn -0.060719 0.998155 0.000000
vn -0.098471 0.995140 0.000000
vn -0.098471 0.995140 0.000000
vn 1.000000 0.000000 0.000000
vn 1.000000 0.000000 0.000000
vn 1.000000 0.000000 0.000000
vn 1.000000 0.000000 0.000000
vn 0.127069 -0.991894 0.000000
vn 0.127069 -0.991894 0.000000
vn 0.060719 -0.998155 0.000000
vn 0.060719 -0.998155 0.000000
vn -0.065067 -0.997881 0.000000
vn -0.065067 -0.997881 0.000000
vn -0.155375 -0.987852 0.002841
vn -0.155375 -0.987852 -0.002841
vn 1.000000 0.000000 0.000000
vn 1.000000 0.000000 0.000000
vn 1.000000 0.000000 0.000000
vn 1.000000 0.000000 0.000000
vn 1.000000 0.000000 0.000000
vn 1.000000 0.000000 0.000000
vn 1.000000 0.000000 0.000000
vn 1.000000 0.000000 0.000000
vn -0.125710 0.000000 -0.992067
vn -0.125710 0.000000 -0.992067
vn -0.125710 0.000000 -0.992067
vn -0.125710 0.000000 -0.992067
vn -0.116084 0.993240 0.000002
vn -0.116084 0.993239 0.000002
vn 0.191822 0.000000 0.981430
vn 0.191822 0.000000 0.981430
vn 0.188410 -0.982090 -0.000003
vn 0.188410 -0.982091 -0.000003
vn -0.125710 0.000000 0.992067
vn -0.125710 0.000000 0.992067
vn -0.125710 0.000000 0.992067
vn -0.125710 0.000000 0.992067
vn 0.188410 -0.982091 0.000003
vn 0.188410 -0.982091 0.000003
vn 0.191822 0.000000 -0.981430
vn 0.191822 0.000000 -0.981430
vn -0.116084 0.993239 -0.000002
vn -0.116084 0.993239 -0.000002
vn -0.116084 0.993239 0.000000
vn -0.116084 0.993239 0.000000
vn 0.075749 0.000000 0.997127
vn 0.075749 0.000000 0.997127
vn 0.075749 0.000000 0.997127
vn 0.075749 0.000000 0.997127
vn 0.188410 -0.982090 0.000000
vn 0.188410 -0.982090 0.000000
vn 0.075749 0.000000 -0.997127
vn 0.075749 0.000000 -0.997127
vn 0.075749 0.000000 -0.997127
vn 0.075749 0.000000 -0.997127
vn -0.242858 -0.969487 -0.033398
vn -0.265586 -0.961920 -0.064608
vn 0.000000 0.000000 -1.000000
vn 0.000000 0.000000 -1.000000
vn 0.156084 0.987529 0.020581
vn 0.170877 0.984466 0.040334
vn 0.144556 0.989490 0.003641
vn 0.144556 0.989490 -0.003641
vn 0.156084 0.987529 -0.020581
vn 0.170877 0.984466 -0.040334
vn 0.000000 0.000000 1.000000
vn 0.000000 0.000000 1.000000
vn -0.242858 -0.969487 0.033398
vn -0.265586 -0.961920 0.064608
vn -0.224585 -0.974436 0.005928
vn -0.224585 -0.974436 -0.005928
s off
g Spade pCube1
usemtl initialShadingGroup
f 33/155/49 34/156/50 39/157/51 40/158/52
f 35/159/53 36/160/54 38/161/55 37/162/56
s 1
f 42/163/57 41/164/58 43/165/59 44/166/60
s 2
f 46/169/61 45/170/62 47/171/63 48/172/64
s 3
f 86/175/65 87/176/66 50/177/67 51/178/68
s 4
f 92/181/69 93/182/70 53/183/71 55/184/72
s off
f 39/39/73 34/40/74 41/41/75 42/42/76
s 5
f 34/61/77 26/62/78 43/63/79 41/64/80
s off
f 73/67/81 74/71/82 75/72/83 76/68/84
s 6
f 28/43/85 39/39/86 42/42/87 44/44/88
s off
f 35/59/89 37/53/90 45/56/91 46/60/92
s 6
f 37/53/93 30/54/94 47/55/95 45/56/96
s off
f 77/83/97 78/84/98 79/85/99 80/86/100
s 5
f 32/76/101 35/75/102 46/79/103 48/80/104
s 6
f 87/93/105 88/94/106 38/89/107 50/92/108
s off
f 38/89/109 36/90/110 51/91/111 50/92/112
s 5
f 36/111/113 85/112/114 86/113/115 51/114/116
s 11
f 31/117/117 29/122/118 49/123/119 52/118/120
s 5
f 93/130/121 94/126/122 33/127/123 53/131/124
s off
f 33/109/125 40/104/126 55/107/127 53/110/128
s 6
f 40/104/129 91/103/130 92/106/131 55/107/132
s 11
f 27/133/133 25/128/134 54/132/135 56/134/136
f 57/129/137 58/125/138 71/119/139 72/124/140
s 6
f 89/97/141 90/100/142 60/101/143 59/98/144
f 59/139/144 60/140/143 62/141/145 61/142/146
f 61/49/146 62/46/145 64/45/147 63/50/148
s off
f 82/77/149 81/78/150 83/74/151 84/73/152
s 5
f 65/69/153 66/66/154 68/65/155 67/70/156
f 67/147/156 68/148/155 70/149/157 69/150/158
f 69/116/158 70/120/157 95/121/159 96/115/160
s off
f 63/81/161 65/69/162 32/76/163 30/82/164
s 11
f 31/117/117 71/119/139 58/125/138 29/122/118
s 5
f 67/147/156 69/150/158 36/153/113 35/154/102
s 6
f 37/145/93 38/146/107 59/139/144 61/142/146
f 37/53/93 61/49/146 63/50/148 30/54/94
s 5
f 65/69/153 67/70/156 35/75/102 32/76/101
f 96/115/160 85/112/114 36/111/113 69/116/158
s 6
f 88/94/106 89/97/141 59/98/144 38/89/107
f 90/100/142 91/103/130 40/104/129 60/101/143
f 62/141/145 60/140/143 40/143/129 39/144/86
f 64/45/147 62/46/145 39/39/86 28/43/85
s off
f 26/135/165 66/136/166 64/137/167 28/138/168
s 5
f 34/61/77 68/65/155 66/66/154 26/62/78
f 34/151/77 33/152/123 70/149/157 68/148/155
f 94/126/122 95/121/159 70/120/157 33/127/123
s 11
f 57/129/137 72/124/140 25/128/134 27/133/133
s off
f 26/187/169 28/188/170 74/189/171 73/190/172
s 6
f 28/43/85 44/44/88 75/47/173 74/48/174
s 1
f 44/166/60 43/165/59 76/167/175 75/168/176
s 5
f 43/63/79 26/62/78 73/67/177 76/68/178
s off
f 30/191/179 32/192/180 78/193/181 77/194/182
s 5
f 32/87/101 48/88/104 79/85/183 78/84/184
s 2
f 48/172/64 47/171/63 80/173/185 79/174/186
s 6
f 47/55/95 30/54/94 77/57/187 80/58/188
f 63/50/148 64/45/147 81/51/189 82/52/190
s off
f 64/195/191 66/196/192 83/197/193 81/198/194
s 5
f 66/66/154 65/69/153 84/73/195 83/74/196
s off
f 65/199/197 63/200/198 82/201/199 84/202/200
s 5
f 86/113/115 85/112/114 31/117/201 52/118/202
s 3
f 49/179/203 87/176/66 86/175/65 52/180/204
s 6
f 29/95/205 88/94/106 87/93/105 49/96/206
f 58/99/207 89/97/141 88/94/106 29/95/205
f 58/99/207 57/102/208 90/100/142 89/97/141
f 27/105/209 91/103/130 90/100/142 57/102/208
f 92/106/131 91/103/130 27/105/209 56/108/210
s 4
f 54/185/211 93/182/70 92/181/69 56/186/212
s 5
f 25/128/213 94/126/122 93/130/121 54/132/214
f 72/124/215 95/121/159 94/126/122 25/128/213
f 96/115/160 95/121/159 72/124/215 71/119/216
f 31/117/201 85/112/114 96/115/160 71/119/216
g default
v 0.079453 0.502008 3.034697
v -0.079452 0.502008 3.034697
v -0.158905 0.502008 3.172313
v -0.079453 0.502008 3.309929
v 0.079453 0.502008 3.309929
v 0.158905 0.502008 3.172313
v 0.079453 0.705297 3.034697
v -0.079452 0.705297 3.034697
v -0.158905 0.705297 3.172313
v -0.079453 0.705297 3.309929
v 0.079453 0.705297 3.309929
v 0.158905 0.705297 3.172313
v -0.039726 0.705297 3.103505
v -0.103288 0.705297 3.186075
v -0.063562 0.705297 3.254882
v 0.039726 0.705297 3.241121
v 0.103288 0.705297 3.158551
v 0.063562 0.705297 3.089744
v -0.121827 0.502008 3.181487
v -0.068859 0.502008 3.273231
v -0.052968 0.502008 3.080569
v 0.052968 0.502008 3.264057
v 0.121827 0.502008 3.163139
v 0.068859 0.502008 3.071395
vt 0.844616 0.343602
vt 0.788401 0.343602
vt 0.760293 0.392286
vt 0.788401 0.440970
vt 0.844616 0.440970
vt 0.872724 0.392286
vt 0.778111 0.020138
vt 0.811950 0.020138
vt 0.845790 0.020138
vt 0.879630 0.020138
vt 0.913469 0.020138
vt 0.947309 0.020138
vt 0.981149 0.020138
vt 0.778111 0.325458
vt 0.811950 0.325458
vt 0.845790 0.325458
vt 0.879630 0.325458
vt 0.913469 0.325458
vt 0.947309 0.325458
vt 0.981149 0.325458
vt 0.963993 0.343602
vt 0.907778 0.343602
vt 0.879670 0.392286
vt 0.907778 0.440970
vt 0.963993 0.440970
vt 0.992101 0.392286
vt 0.907778 0.440970
vt 0.879670 0.392286
vt 0.907778 0.343602
vt 0.963993 0.343602
vt 0.992101 0.392286
vt 0.963993 0.440970
vt 0.788401 0.440970
vt 0.760293 0.392286
vt 0.788401 0.343602
vt 0.844616 0.440970
vt 0.872724 0.392286
vt 0.844616 0.343602
vn 0.000001 0.000000 -1.000000
vn 0.000001 0.000000 -1.000000
vn 0.000001 0.000000 -1.000000
vn 0.000001 0.000000 -1.000000
vn -0.866025 0.000000 -0.500000
vn -0.866025 0.000000 -0.500000
vn -0.866025 0.000000 -0.500000
vn -0.866025 0.000000 -0.500000
vn -0.866025 0.000000 0.500000
vn -0.866025 0.000000 0.500000
vn -0.866025 0.000000 0.500000
vn -0.866025 0.000000 0.500000
vn 0.000000 0.000000 1.000000
vn 0.000000 0.000000 1.000000
vn 0.000000 0.000000 1.000000
vn 0.000000 0.000000 1.000000
vn 0.866025 0.000000 0.500000
vn 0.866025 0.000000 0.500000
vn 0.866025 0.000000 0.500000
vn 0.866025 0.000000 0.500000
vn 0.866025 0.000000 -0.500000
vn 0.866025 0.000000 -0.500000
vn 0.866025 0.000000 -0.500000
vn 0.866025 0.000000 -0.500000
vn 0.000000 -1.000000 0.000000
vn 0.000000 -1.000000 -0.000000
vn 0.000000 -1.000000 -0.000000
vn 0.000000 -1.000000 0.000000
vn 0.000000 -1.000000 0.000000
vn 0.000000 -1.000000 -0.000000
vn 0.000000 1.000000 -0.000000
vn 0.000000 1.000000 0.000000
vn 0.000000 1.000000 0.000000
vn 0.000000 1.000000 0.000000
vn 0.000000 1.000000 0.000000
vn 0.000000 1.000000 -0.000000
vn 0.000000 1.000000 -0.000000
vn 0.000000 1.000000 0.000000
vn 0.000000 1.000000 0.000000
vn 0.000000 1.000000 0.000000
vn 0.000000 1.000000 0.000000
vn 0.000000 1.000000 -0.000000
vn 0.000000 -1.000000 0.000000
vn 0.000000 -1.000000 0.000000
vn 0.000000 -1.000000 -0.000000
vn 0.000000 -1.000000 0.000000
vn 0.000000 -1.000000 0.000000
vn 0.000000 -1.000000 -0.000000
s off
g Spade pCylinder2
usemtl initialShadingGroup
f 97/209/217 98/210/218 104/217/219 103/216/220
f 98/210/221 99/211/222 105/218/223 104/217/224
f 99/211/225 100/212/226 106/219/227 105/218/228
f 100/212/229 101/213/230 107/220/231 106/219/232
f 101/213/233 102/214/234 108/221/235 107/220/236
f 102/214/237 97/215/238 103/222/239 108/221/240
s 1
f 116/235/241 115/236/242 117/237/243 118/238/244
f 119/239/245 118/238/244 117/237/243 120/240/246
s 2
f 109/229/247 110/230/248 111/231/249 112/232/250
f 109/229/247 112/232/250 113/233/251 114/234/252
f 104/226/253 105/225/254 110/230/248 109/229/247
f 105/225/254 106/224/255 111/231/249 110/230/248
f 106/224/255 107/223/256 112/232/250 111/231/249
f 107/223/256 108/228/257 113/233/251 112/232/250
f 108/228/257 103/227/258 114/234/252 113/233/251
f 103/227/258 104/226/253 109/229/247 114/234/252
s 1
f 100/206/259 99/205/260 115/236/242 116/235/241
f 99/205/260 98/204/261 117/237/243 115/236/242
f 101/207/262 100/206/259 116/235/241 118/238/244
f 102/208/263 101/207/262 118/238/244 119/239/245
f 98/204/261 97/203/264 120/240/246 117/237/243
f 97/203/264 102/208/263 119/239/245 120/240/246
