# This file uses centimeters as units for non-parametric coordinates.

mtllib Yard Cart.mtl
g default
v -0.726457 5.276974 3.191672
v -0.438829 5.276974 3.230330
v -0.688521 5.161638 2.909416
v -0.400893 5.161638 2.948075
v -0.192257 3.729874 -0.782877
v 0.095371 3.729874 -0.744218
v -0.163987 3.660870 -0.993214
v 0.123641 3.660870 -0.954555
v -0.555495 0.628686 1.919681
v -0.521363 0.357147 1.665730
v -0.479730 0.289821 1.355976
v -0.438098 0.357147 1.046222
v -0.401227 0.580719 0.771897
v -0.113599 0.580719 0.810555
v -0.150470 0.357147 1.084881
v -0.192102 0.289821 1.394635
v -0.233735 0.357147 1.704388
v -0.267867 0.628686 1.958340
v -0.099498 0.297941 0.705640
v -0.139189 0.074400 1.000949
v -0.192102 -0.000393 1.394635
v -0.250656 0.084986 1.830286
v -0.291858 0.360254 2.136837
v -0.387126 0.297941 0.666982
v -0.426817 0.074400 0.962290
v -0.479730 -0.000393 1.355976
v -0.538284 0.084986 1.791628
v -0.579486 0.360254 2.098179
v -0.334380 2.895162 2.453207
v -0.622008 2.895162 2.414549
v -0.652972 2.818614 2.644925
v -0.365344 2.818614 2.683584
v -0.009114 2.155297 0.033169
v -0.296742 2.155297 -0.005490
v -0.275556 1.979405 -0.163116
v 0.012072 1.979405 -0.124457
vt 0.787719 0.071013
vt 0.788039 0.042109
vt 0.790568 0.213978
vt 0.790087 0.231957
vt 0.786883 0.048161
vt 0.787139 0.019260
vt 0.793097 0.385848
vt 0.792456 0.392901
vt 0.785939 0.041279
vt 0.785939 0.011615
vt 0.784995 0.048161
vt 0.784612 0.020342
vt 0.784222 0.075916
vt 0.783678 0.048478
vt 0.782714 0.307582
vt 0.782012 0.299757
vt 0.780346 0.551036
vt 0.781206 0.539248
vt 0.799828 0.231957
vt 0.799348 0.213978
vt 0.801877 0.042109
vt 0.802197 0.071013
vt 0.796819 0.385848
vt 0.797459 0.392901
vt 0.803033 0.048161
vt 0.802777 0.019260
vt 0.803976 0.041279
vt 0.803976 0.011615
vt 0.804920 0.048161
vt 0.805304 0.020342
vt 0.805694 0.075916
vt 0.806238 0.048478
vt 0.807904 0.299757
vt 0.807202 0.307582
vt 0.809570 0.551036
vt 0.808710 0.539248
vt 0.845948 0.011615
vt 0.875612 0.011615
vt 0.875612 0.023404
vt 0.845948 0.023404
vt 0.875612 0.255070
vt 0.845948 0.255070
vt 0.875612 0.486736
vt 0.845948 0.486736
vt 0.845948 0.514491
vt 0.875612 0.514491
vt 0.845948 0.521372
vt 0.875612 0.521372
vt 0.878700 0.011615
vt 0.908365 0.011615
vt 0.908365 0.018668
vt 0.878700 0.018668
vt 0.908365 0.190538
vt 0.878700 0.190538
vt 0.908365 0.362407
vt 0.878700 0.362407
vt 0.908365 0.385256
vt 0.878700 0.385256
vt 0.908365 0.392901
vt 0.878700 0.392901
vt 0.911453 0.041349
vt 0.911453 0.018497
vt 0.941117 0.018497
vt 0.941117 0.041349
vt 0.911453 0.011615
vt 0.941117 0.011615
vt 0.941117 0.202293
vt 0.911453 0.202293
vt 0.941117 0.363237
vt 0.911453 0.363237
vt 0.813195 0.299757
vt 0.842859 0.299757
vt 0.842859 0.551036
vt 0.813195 0.551036
vt 0.813195 0.048478
vt 0.842859 0.048478
vt 0.842859 0.020342
vt 0.813195 0.020342
vt 0.842859 0.011615
vt 0.813195 0.011615
vn 0.050002 0.926876 -0.372021
vn 0.050002 0.926876 -0.372021
vn 0.050002 0.926876 -0.372021
vn 0.050002 0.926876 -0.372021
vn 0.041188 0.950995 -0.306450
vn 0.041188 0.950995 -0.306450
vn 0.041188 0.950995 -0.306450
vn 0.041188 0.950995 -0.306450
vn -0.114720 0.508242 0.853539
vn -0.058961 0.896708 0.438678
vn -0.058961 0.896708 0.438678
vn -0.114720 0.508242 0.853539
vn 0.000000 1.000000 -0.000000
vn 0.000000 1.000000 -0.000000
vn 0.068179 0.859088 -0.507266
vn 0.068179 0.859088 -0.507266
vn 0.127670 0.285320 -0.949891
vn 0.127670 0.285320 -0.949891
vn -0.119232 0.445889 0.887111
vn -0.119232 0.445889 0.887111
vn 0.119234 -0.445863 -0.887124
vn 0.119234 -0.445863 -0.887124
vn 0.114422 -0.512015 -0.851322
vn 0.114422 -0.512015 -0.851322
vn 0.991088 0.000000 0.133207
vn 0.991088 0.000000 0.133207
vn 0.991088 0.000000 0.133207
vn 0.991088 0.000000 0.133207
vn -0.991088 -0.000000 -0.133207
vn -0.991088 -0.000000 -0.133208
vn -0.991088 -0.000000 -0.133207
vn -0.991088 -0.000000 -0.133208
vn 0.130087 0.215146 -0.967879
vn 0.130087 0.215146 -0.967879
vn 0.130087 0.215146 -0.967879
vn 0.130087 0.215146 -0.967879
vn 0.991088 0.000000 0.133207
vn 0.991088 0.000000 0.133207
vn 0.991088 0.000000 0.133207
vn 0.991088 0.000000 0.133207
vn -0.129975 -0.218958 0.967039
vn -0.129975 -0.218958 0.967039
vn -0.129975 -0.218958 0.967039
vn -0.129975 -0.218958 0.967039
vn -0.991088 0.000000 -0.133207
vn -0.991088 0.000000 -0.133208
vn -0.991088 0.000000 -0.133207
vn -0.991088 0.000000 -0.133207
vn 0.991088 0.000000 0.133207
vn 0.991088 0.000000 0.133207
vn 0.991088 0.000000 0.133207
vn 0.991088 0.000000 0.133207
vn 0.991088 0.000000 0.133207
vn 0.991088 0.000000 0.133207
vn 0.991088 0.000000 0.133207
vn 0.991088 0.000000 0.133207
vn -0.057797 -0.900965 0.430025
vn -0.127054 -0.300408 0.945311
vn -0.127054 -0.300408 0.945311
vn -0.057797 -0.900965 0.430025
vn -0.001685 -0.999920 0.012536
vn -0.001685 -0.999920 0.012536
vn 0.052532 -0.918956 -0.390846
vn 0.052532 -0.918956 -0.390846
vn -0.991088 0.000000 -0.133208
vn -0.991088 0.000000 -0.133207
vn -0.991088 0.000000 -0.133207
vn -0.991088 0.000000 -0.133207
vn -0.991088 0.000000 -0.133207
vn -0.991088 -0.000000 -0.133207
vn -0.991088 -0.000000 -0.133207
vn -0.991088 -0.000000 -0.133207
vn -0.119232 0.445889 0.887111
vn -0.119232 0.445889 0.887111
vn -0.991088 -0.000000 -0.133207
vn -0.991088 -0.000000 -0.133207
vn 0.119234 -0.445863 -0.887124
vn 0.119234 -0.445863 -0.887124
vn 0.991088 0.000000 0.133207
vn 0.991088 0.000000 0.133207
s off
g pCube8 group1
usemtl initialShadingGroup
f 1/37/1 2/38/2 4/39/3 3/40/4
f 5/49/5 6/50/6 8/51/7 7/52/8
s 1
f 13/61/9 12/62/10 15/63/11 14/64/12
f 12/62/10 11/65/13 16/66/14 15/63/11
f 11/47/13 10/45/15 17/46/16 16/48/14
f 10/45/15 9/44/17 18/43/18 17/46/16
f 13/61/9 14/64/12 33/67/19 34/68/20
s 2
f 35/54/21 36/53/22 19/55/23 24/56/24
s 3
f 14/1/25 19/2/26 36/3/27 33/4/28
s 4
f 34/19/29 35/20/30 24/21/31 13/22/32
s 1
f 3/40/33 4/39/34 29/41/35 30/42/36
s 3
f 2/17/37 32/16/38 29/15/39 4/18/40
s 2
f 31/71/41 32/72/42 2/73/43 1/74/44
s 4
f 30/34/45 31/33/46 1/35/47 3/36/48
s 3
f 17/11/49 18/13/50 23/14/51 22/12/52
f 16/9/53 17/11/49 22/12/52 21/10/54
f 14/1/25 15/5/55 20/6/56 19/2/26
f 15/5/55 16/9/53 21/10/54 20/6/56
s 2
f 22/77/57 23/76/58 28/75/59 27/78/60
f 21/79/61 22/77/57 27/78/60 26/80/62
f 19/55/23 20/57/63 25/58/64 24/56/24
f 20/57/63 21/59/61 26/60/62 25/58/64
s 4
f 9/31/65 10/29/66 27/30/67 28/32/68
f 10/29/66 11/27/69 26/28/70 27/30/67
f 11/27/69 12/25/71 25/26/72 26/28/70
f 12/25/71 13/22/32 24/21/31 25/26/72
s 1
f 30/42/36 29/41/35 18/43/18 9/44/17
s 4
f 9/31/65 28/32/68 31/33/46 30/34/45
s 2
f 28/75/59 23/76/58 32/72/42 31/71/41
s 3
f 29/15/39 32/16/38 23/14/51 18/13/50
s 1
f 34/68/20 33/67/19 6/69/73 5/70/74
s 4
f 7/23/75 35/20/30 34/19/29 5/24/76
s 2
f 7/52/77 8/51/78 36/53/22 35/54/21
s 3
f 33/4/28 36/3/27 8/7/79 6/8/80
g default
v 6.312322 5.276974 3.230494
v 6.600012 5.276974 3.192299
v 6.274840 5.161638 2.948178
v 6.562531 5.161638 2.909983
v 5.784534 3.729874 -0.744911
v 6.072225 3.729874 -0.783106
v 5.756603 3.660870 -0.955294
v 6.044293 3.660870 -0.993488
v 6.143410 0.628686 1.958230
v 6.109689 0.357147 1.704224
v 6.068555 0.289821 1.394403
v 6.027424 0.357147 1.084582
v 5.990995 0.580719 0.810198
v 6.278686 0.580719 0.772003
v 6.315114 0.357147 1.046387
v 6.356246 0.289821 1.356208
v 6.397379 0.357147 1.666029
v 6.431101 0.628686 1.920035
v 6.264753 0.297941 0.667066
v 6.303968 0.074400 0.962438
v 6.356246 -0.000393 1.356208
v 6.414098 0.084986 1.791954
v 6.454804 0.360254 2.098571
v 5.977064 0.297941 0.705260
v 6.016278 0.074400 1.000632
v 6.068555 -0.000393 1.394403
v 6.126407 0.084986 1.830148
v 6.167115 0.360254 2.136765
v 6.175455 2.155297 -0.005552
v 5.887765 2.155297 0.032643
v 5.866834 1.979405 -0.125017
v 6.154524 1.979405 -0.163211
v 6.496816 2.895162 2.415009
v 6.209126 2.895162 2.453204
v 6.239717 2.818614 2.683630
v 6.527407 2.818614 2.645435
vt 0.901474 0.486273
vt 0.901794 0.457369
vt 0.904323 0.629239
vt 0.903843 0.647217
vt 0.900638 0.463421
vt 0.900894 0.434520
vt 0.906852 0.801108
vt 0.906211 0.808161
vt 0.899694 0.456539
vt 0.899694 0.426875
vt 0.898750 0.463421
vt 0.898367 0.435602
vt 0.897977 0.491176
vt 0.897433 0.463738
vt 0.896469 0.722842
vt 0.895767 0.715018
vt 0.894101 0.966297
vt 0.894961 0.954508
vt 0.913583 0.647217
vt 0.913103 0.629239
vt 0.915632 0.457369
vt 0.915952 0.486273
vt 0.910574 0.801108
vt 0.911215 0.808161
vt 0.916788 0.463421
vt 0.916532 0.434520
vt 0.917732 0.456539
vt 0.917732 0.426875
vt 0.918675 0.463421
vt 0.919059 0.435602
vt 0.919449 0.491176
vt 0.919993 0.463738
vt 0.921659 0.715018
vt 0.920957 0.722842
vt 0.923325 0.966297
vt 0.922465 0.954508
vt 0.959703 0.426875
vt 0.989367 0.426875
vt 0.989367 0.438664
vt 0.959703 0.438664
vt 0.989367 0.670330
vt 0.959703 0.670330
vt 0.989367 0.901996
vt 0.959703 0.901996
vt 0.959703 0.929751
vt 0.989367 0.929751
vt 0.959703 0.936633
vt 0.989367 0.936633
vt 0.818943 0.571144
vt 0.848607 0.571144
vt 0.848607 0.578197
vt 0.818943 0.578197
vt 0.848607 0.750067
vt 0.818943 0.750067
vt 0.848607 0.921936
vt 0.818943 0.921936
vt 0.848607 0.944785
vt 0.818943 0.944785
vt 0.848607 0.952430
vt 0.818943 0.952430
vt 0.851696 0.600878
vt 0.851696 0.578026
vt 0.881360 0.578026
vt 0.881360 0.600878
vt 0.851696 0.571144
vt 0.881360 0.571144
vt 0.881360 0.761822
vt 0.851696 0.761822
vt 0.881360 0.922766
vt 0.851696 0.922766
vt 0.926950 0.715018
vt 0.956614 0.715018
vt 0.956614 0.966297
vt 0.926950 0.966297
vt 0.926950 0.463738
vt 0.956614 0.463738
vt 0.956614 0.435602
vt 0.926950 0.435602
vt 0.956614 0.426875
vt 0.926950 0.426875
vn -0.049402 0.926876 -0.372101
vn -0.049402 0.926876 -0.372101
vn -0.049402 0.926876 -0.372101
vn -0.049402 0.926876 -0.372101
vn -0.040694 0.950995 -0.306516
vn -0.040694 0.950995 -0.306516
vn -0.040694 0.950995 -0.306516
vn -0.040694 0.950995 -0.306516
vn 0.113343 0.508242 0.853724
vn 0.058253 0.896709 0.438771
vn 0.058253 0.896707 0.438774
vn 0.113343 0.508242 0.853723
vn -0.000000 1.000000 -0.000000
vn 0.000000 1.000000 0.000001
vn -0.067361 0.859089 -0.507375
vn -0.067361 0.859088 -0.507376
vn -0.126138 0.285319 -0.950096
vn -0.126138 0.285320 -0.950096
vn 0.117801 0.445889 0.887303
vn 0.117801 0.445889 0.887303
vn -0.117802 -0.445863 -0.887316
vn -0.117802 -0.445863 -0.887316
vn -0.113049 -0.512015 -0.851505
vn -0.113048 -0.512015 -0.851505
vn 0.991302 -0.000000 -0.131608
vn 0.991301 -0.000002 -0.131611
vn 0.991302 -0.000000 -0.131608
vn 0.991302 -0.000000 -0.131610
vn -0.991302 -0.000000 0.131608
vn -0.991302 -0.000000 0.131607
vn -0.991302 0.000000 0.131610
vn -0.991302 -0.000000 0.131607
vn -0.128527 0.215146 -0.968087
vn -0.128527 0.215146 -0.968087
vn -0.128527 0.215146 -0.968087
vn -0.128527 0.215146 -0.968087
vn 0.991302 -0.000001 -0.131605
vn 0.991302 -0.000001 -0.131605
vn 0.991302 -0.000001 -0.131605
vn 0.991302 -0.000001 -0.131605
vn 0.128415 -0.218958 0.967247
vn 0.128415 -0.218958 0.967247
vn 0.128415 -0.218958 0.967247
vn 0.128415 -0.218958 0.967247
vn -0.991302 0.000001 0.131605
vn -0.991302 0.000000 0.131608
vn -0.991302 0.000001 0.131605
vn -0.991302 0.000001 0.131605
vn 0.991302 0.000003 -0.131607
vn 0.991302 -0.000001 -0.131605
vn 0.991302 0.000003 -0.131607
vn 0.991301 0.000001 -0.131611
vn 0.991302 -0.000000 -0.131609
vn 0.991302 -0.000001 -0.131609
vn 0.991301 -0.000002 -0.131611
vn 0.991302 -0.000002 -0.131606
vn 0.057103 -0.900965 0.430118
vn 0.125529 -0.300408 0.945514
vn 0.125529 -0.300408 0.945515
vn 0.057103 -0.900966 0.430116
vn 0.001665 -0.999920 0.012540
vn 0.001665 -0.999920 0.012539
vn -0.051901 -0.918955 -0.390931
vn -0.051901 -0.918956 -0.390930
vn -0.991302 -0.000000 0.131608
vn -0.991302 -0.000003 0.131608
vn -0.991301 0.000001 0.131611
vn -0.991302 -0.000003 0.131608
vn -0.991302 0.000001 0.131608
vn -0.991302 0.000001 0.131608
vn -0.991302 0.000001 0.131609
vn -0.991302 0.000001 0.131605
vn 0.117802 0.445889 0.887303
vn 0.117802 0.445889 0.887303
vn -0.991302 -0.000000 0.131608
vn -0.991302 -0.000000 0.131608
vn -0.117802 -0.445863 -0.887315
vn -0.117802 -0.445863 -0.887316
vn 0.991302 -0.000000 -0.131610
vn 0.991302 -0.000000 -0.131610
s off
g textureEditorIsolateSelectSet group1 pCube7
usemtl initialShadingGroup
f 37/117/81 38/118/82 40/119/83 39/120/84
f 41/129/85 42/130/86 44/131/87 43/132/88
s 1
f 49/141/89 48/142/90 51/143/91 50/144/92
f 48/142/90 47/145/93 52/146/94 51/143/91
f 47/127/93 46/125/95 53/126/96 52/128/94
f 46/125/95 45/124/97 54/123/98 53/126/96
f 49/141/89 50/144/92 65/147/99 66/148/100
s 2
f 67/134/101 68/133/102 55/135/103 60/136/104
s 3
f 50/81/105 55/82/106 68/83/107 65/84/108
s 4
f 66/99/109 67/100/110 60/101/111 49/102/112
s 1
f 39/120/113 40/119/114 69/121/115 70/122/116
s 3
f 38/97/117 72/96/118 69/95/119 40/98/120
s 2
f 71/151/121 72/152/122 38/153/123 37/154/124
s 4
f 70/114/125 71/113/126 37/115/127 39/116/128
s 3
f 53/91/129 54/93/130 59/94/131 58/92/132
f 52/89/133 53/91/129 58/92/132 57/90/134
f 50/81/105 51/85/135 56/86/136 55/82/106
f 51/85/135 52/89/133 57/90/134 56/86/136
s 2
f 58/157/137 59/156/138 64/155/139 63/158/140
f 57/159/141 58/157/137 63/158/140 62/160/142
f 55/135/103 56/137/143 61/138/144 60/136/104
f 56/137/143 57/139/141 62/140/142 61/138/144
s 4
f 45/111/145 46/109/146 63/110/147 64/112/148
f 46/109/146 47/107/149 62/108/150 63/110/147
f 47/107/149 48/105/151 61/106/152 62/108/150
f 48/105/151 49/102/112 60/101/111 61/106/152
s 1
f 66/148/100 65/147/99 42/149/153 41/150/154
s 4
f 43/103/155 67/100/110 66/99/109 41/104/156
s 2
f 43/132/157 44/131/158 68/133/102 67/134/101
s 3
f 65/84/108 68/83/107 44/87/159 42/88/160
s 1
f 70/122/116 69/121/115 54/123/98 45/124/97
s 4
f 45/111/145 64/112/148 71/113/126 70/114/125
s 2
f 64/155/139 59/156/138 72/152/122 71/151/121
s 3
f 69/95/119 72/96/118 59/94/131 54/93/130
g default
v 3.404108 2.504348 -6.404671
v 3.404108 2.090967 -6.705009
v 3.404108 1.580000 -6.705009
v 3.404108 1.166619 -6.404671
v 3.404108 1.008721 -5.918712
v 3.404108 1.166619 -5.432754
v 3.404108 1.580000 -5.132415
v 3.404108 2.090967 -5.132415
v 3.404108 2.504348 -5.432754
v 3.404108 2.662245 -5.918712
v 2.543382 2.504348 -6.404671
v 2.543382 2.090967 -6.705009
v 2.543382 1.580000 -6.705009
v 2.543382 1.166619 -6.404671
v 2.543382 1.008721 -5.918712
v 2.543382 1.166619 -5.432754
v 2.543382 1.580000 -5.132415
v 2.543382 2.090967 -5.132415
v 2.543382 2.504348 -5.432754
v 2.543382 2.662245 -5.918712
v 3.404108 1.888476 -5.957215
v 3.404108 1.855725 -5.981009
v 3.404108 1.815242 -5.981009
v 3.404108 1.782491 -5.957215
v 3.404108 1.769981 -5.918713
v 3.404109 1.782491 -5.880211
v 3.404108 1.815242 -5.856416
v 3.404109 1.855725 -5.856416
v 3.404109 1.888477 -5.880213
v 3.404109 1.900986 -5.918713
v 2.543382 1.888476 -5.957215
v 2.543382 1.855725 -5.981009
v 2.543382 1.815242 -5.981009
v 2.543382 1.782491 -5.957215
v 2.543382 1.769981 -5.918713
v 2.543382 1.782491 -5.880211
v 2.543382 1.815242 -5.856416
v 2.543381 1.855725 -5.856416
v 2.543382 1.888477 -5.880213
v 2.543382 1.900986 -5.918713
v 5.384337 1.888465 -5.957221
v 5.384337 1.855725 -5.981011
v 5.384337 1.835481 -5.918720
v 5.384337 1.815254 -5.981009
v 5.384337 1.782502 -5.957219
v 5.384337 1.769992 -5.918725
v 5.384338 1.782514 -5.880215
v 5.384337 1.815242 -5.856416
v 5.384338 1.855702 -5.856423
v 5.384339 1.888452 -5.880230
v 5.384338 1.900962 -5.918731
v 0.563153 1.888487 -5.957219
v 0.563153 1.855731 -5.981014
v 0.563153 1.835483 -5.918717
v 0.563153 1.815230 -5.981011
v 0.563153 1.782479 -5.957215
v 0.563153 1.769980 -5.918713
v 0.563153 1.782490 -5.880211
v 0.563153 1.815230 -5.856420
v 0.563152 1.855725 -5.856430
v 0.563153 1.888488 -5.880227
v 0.563153 1.900991 -5.918719
vt 0.687407 0.832110
vt 0.653059 0.807155
vt 0.610602 0.807155
vt 0.576254 0.832110
vt 0.563134 0.872489
vt 0.576254 0.912868
vt 0.610602 0.937823
vt 0.653059 0.937823
vt 0.687407 0.912868
vt 0.700527 0.872489
vt 0.274161 0.759278
vt 0.288980 0.759278
vt 0.303798 0.759278
vt 0.318617 0.759278
vt 0.333435 0.759278
vt 0.348254 0.759278
vt 0.363072 0.759278
vt 0.377890 0.759278
vt 0.392709 0.759278
vt 0.407527 0.759278
vt 0.422346 0.759278
vt 0.274161 0.982112
vt 0.288980 0.982112
vt 0.303798 0.982112
vt 0.318617 0.982112
vt 0.333435 0.982112
vt 0.348254 0.982112
vt 0.363072 0.982112
vt 0.377890 0.982112
vt 0.392709 0.982112
vt 0.407527 0.982112
vt 0.422346 0.982112
vt 0.704950 0.643278
vt 0.670601 0.618322
vt 0.628143 0.618322
vt 0.593794 0.643278
vt 0.580674 0.683657
vt 0.593794 0.724037
vt 0.628143 0.748993
vt 0.670601 0.748993
vt 0.704950 0.724037
vt 0.718070 0.683657
vt 0.631830 0.869741
vt 0.649372 0.680909
vt 0.653059 0.807155
vt 0.687407 0.832110
vt 0.610602 0.807155
vt 0.576254 0.832110
vt 0.563134 0.872489
vt 0.576254 0.912868
vt 0.610602 0.937823
vt 0.653059 0.937823
vt 0.687407 0.912868
vt 0.700527 0.872489
vt 0.704950 0.724037
vt 0.670601 0.748993
vt 0.628143 0.748993
vt 0.593794 0.724037
vt 0.580674 0.683657
vt 0.593794 0.643278
vt 0.628143 0.618322
vt 0.670601 0.618322
vt 0.704950 0.643278
vt 0.718070 0.683657
vt 0.653059 0.807155
vt 0.687407 0.832110
vt 0.610602 0.807155
vt 0.576254 0.832110
vt 0.563134 0.872489
vt 0.576254 0.912868
vt 0.610602 0.937823
vt 0.653059 0.937823
vt 0.687407 0.912868
vt 0.700527 0.872489
vt 0.704950 0.724037
vt 0.670601 0.748993
vt 0.628143 0.748993
vt 0.593794 0.724037
vt 0.580674 0.683657
vt 0.593794 0.643278
vt 0.628143 0.618322
vt 0.670601 0.618322
vt 0.704950 0.643278
vt 0.718070 0.683657
vn 0.000000 0.587785 -0.809017
vn 0.000000 0.587785 -0.809017
vn 0.000000 0.587785 -0.809017
vn 0.000000 0.587785 -0.809017
vn 0.000000 0.000000 -1.000000
vn 0.000000 0.000000 -1.000000
vn 0.000000 0.000000 -1.000000
vn 0.000000 0.000000 -1.000000
vn -0.000000 -0.587785 -0.809017
vn -0.000000 -0.587785 -0.809017
vn -0.000000 -0.587785 -0.809017
vn -0.000000 -0.587785 -0.809017
vn -0.000000 -0.951057 -0.309017
vn -0.000000 -0.951057 -0.309017
vn -0.000000 -0.951057 -0.309017
vn -0.000000 -0.951057 -0.309017
vn 0.000000 -0.951056 0.309017
vn 0.000000 -0.951056 0.309017
vn 0.000000 -0.951056 0.309017
vn 0.000000 -0.951056 0.309017
vn 0.000000 -0.587786 0.809017
vn 0.000000 -0.587786 0.809017
vn 0.000000 -0.587786 0.809017
vn 0.000000 -0.587786 0.809017
vn 0.000000 0.000001 1.000000
vn 0.000000 0.000001 1.000000
vn 0.000000 0.000001 1.000000
vn 0.000000 0.000001 1.000000
vn 0.000000 0.587785 0.809017
vn 0.000000 0.587785 0.809017
vn 0.000000 0.587785 0.809017
vn 0.000000 0.587785 0.809017
vn 0.000000 0.951056 0.309017
vn 0.000000 0.951056 0.309017
vn 0.000000 0.951056 0.309017
vn 0.000000 0.951056 0.309017
vn 0.000000 0.951056 -0.309017
vn 0.000000 0.951056 -0.309017
vn 0.000000 0.951056 -0.309017
vn 0.000000 0.951056 -0.309017
vn 1.000000 -0.000002 0.000006
vn 1.000000 -0.000011 -0.000006
vn 1.000000 -0.000004 -0.000005
vn 1.000000 0.000002 0.000008
vn 1.000000 0.000005 0.000004
vn 1.000000 0.000006 -0.000008
vn 1.000000 0.000015 -0.000011
vn 1.000000 0.000002 -0.000006
vn 1.000000 -0.000021 -0.000008
vn 1.000000 -0.000020 -0.000013
vn 1.000000 -0.000019 -0.000017
vn -1.000000 -0.000002 0.000000
vn -1.000000 0.000001 -0.000004
vn -1.000000 0.000000 -0.000004
vn -1.000000 0.000003 -0.000002
vn -1.000000 0.000002 -0.000002
vn -1.000000 0.000003 -0.000004
vn -1.000000 0.000003 -0.000004
vn -1.000000 -0.000007 -0.000002
vn -1.000000 -0.000004 -0.000013
vn -1.000000 0.000004 -0.000011
vn -1.000000 -0.000000 0.000004
vn 1.000000 -0.000000 -0.000000
vn 1.000000 0.000000 -0.000000
vn 1.000000 0.000000 -0.000000
vn 1.000000 -0.000000 -0.000000
vn 1.000000 0.000000 -0.000000
vn 1.000000 0.000000 -0.000000
vn 1.000000 -0.000000 -0.000000
vn 1.000000 -0.000000 -0.000000
vn 1.000000 -0.000000 -0.000000
vn 1.000000 -0.000000 -0.000000
vn 1.000000 -0.000000 0.000000
vn 1.000000 -0.000000 0.000000
vn 1.000000 -0.000000 0.000000
vn 1.000000 -0.000000 0.000000
vn 1.000000 -0.000000 0.000001
vn 1.000000 -0.000000 0.000001
vn 1.000000 0.000000 0.000000
vn 1.000000 0.000000 0.000000
vn 1.000000 0.000001 -0.000001
vn 1.000000 0.000001 -0.000001
vn -1.000000 -0.000000 0.000000
vn -1.000000 0.000000 0.000000
vn -1.000000 0.000000 0.000000
vn -1.000000 -0.000000 0.000000
vn -1.000000 0.000000 0.000000
vn -1.000000 0.000000 0.000000
vn -1.000000 0.000000 0.000000
vn -1.000000 0.000000 0.000000
vn -1.000000 0.000000 0.000000
vn -1.000000 0.000000 0.000000
vn -1.000000 0.000000 0.000000
vn -1.000000 0.000000 0.000000
vn -1.000000 -0.000001 0.000000
vn -1.000000 -0.000001 0.000000
vn -1.000000 0.000000 0.000000
vn -1.000000 0.000000 0.000000
vn -1.000000 0.000001 -0.000000
vn -1.000000 0.000001 -0.000000
vn -1.000000 -0.000000 -0.000000
vn -1.000000 -0.000000 -0.000000
vn 0.000000 0.587803 -0.809004
vn 0.000000 0.587803 -0.809004
vn 0.000000 0.587803 -0.809004
vn 0.000000 0.587803 -0.809004
vn -0.000000 -0.000024 -1.000000
vn -0.000000 -0.000024 -1.000000
vn -0.000000 -0.000024 -1.000000
vn -0.000000 -0.000024 -1.000000
vn 0.000002 -0.587730 -0.809057
vn 0.000002 -0.587730 -0.809057
vn 0.000002 -0.587730 -0.809057
vn 0.000002 -0.587730 -0.809057
vn 0.000004 -0.951050 -0.309037
vn 0.000004 -0.951050 -0.309037
vn 0.000004 -0.951050 -0.309037
vn 0.000004 -0.951050 -0.309037
vn 0.000009 -0.951023 0.309121
vn 0.000009 -0.951023 0.309121
vn 0.000009 -0.951023 0.309121
vn 0.000009 -0.951023 0.309121
vn 0.000004 -0.587950 0.808897
vn 0.000004 -0.587950 0.808897
vn 0.000004 -0.587950 0.808897
vn 0.000004 -0.587950 0.808897
vn 0.000002 0.000078 1.000000
vn 0.000002 0.000078 1.000000
vn 0.000002 0.000078 1.000000
vn 0.000002 0.000078 1.000000
vn 0.000012 0.587888 0.808943
vn 0.000012 0.587888 0.808943
vn 0.000012 0.587888 0.808943
vn 0.000012 0.587888 0.808943
vn 0.000014 0.951056 0.309019
vn 0.000014 0.951056 0.309019
vn 0.000014 0.951056 0.309019
vn 0.000014 0.951056 0.309019
vn 0.000007 0.951087 -0.308923
vn 0.000007 0.951087 -0.308923
vn 0.000007 0.951087 -0.308923
vn 0.000007 0.951087 -0.308923
vn 0.000004 0.587746 -0.809045
vn 0.000004 0.587746 -0.809045
vn 0.000004 0.587746 -0.809045
vn 0.000004 0.587746 -0.809045
vn 0.000002 -0.000034 -1.000000
vn 0.000002 -0.000034 -1.000000
vn 0.000002 -0.000034 -1.000000
vn 0.000002 -0.000034 -1.000000
vn 0.000004 -0.587789 -0.809014
vn 0.000004 -0.587789 -0.809014
vn 0.000004 -0.587789 -0.809014
vn 0.000004 -0.587789 -0.809014
vn 0.000003 -0.951096 -0.308895
vn 0.000003 -0.951096 -0.308895
vn 0.000003 -0.951096 -0.308895
vn 0.000003 -0.951096 -0.308895
vn 0.000001 -0.951059 0.309010
vn 0.000001 -0.951059 0.309010
vn 0.000001 -0.951059 0.309010
vn 0.000001 -0.951059 0.309010
vn 0.000001 -0.587813 0.808997
vn 0.000001 -0.587813 0.808997
vn 0.000001 -0.587813 0.808997
vn 0.000001 -0.587813 0.808997
vn -0.000004 0.000122 1.000000
vn -0.000004 0.000122 1.000000
vn -0.000004 0.000122 1.000000
vn -0.000004 0.000122 1.000000
vn -0.000004 0.587734 0.809054
vn -0.000004 0.587734 0.809054
vn -0.000004 0.587734 0.809054
vn -0.000004 0.587734 0.809054
vn 0.000002 0.951070 0.308975
vn 0.000002 0.951070 0.308975
vn 0.000002 0.951070 0.308975
vn 0.000002 0.951070 0.308975
vn 0.000004 0.951076 -0.308957
vn 0.000004 0.951076 -0.308957
vn 0.000004 0.951076 -0.308957
vn 0.000004 0.951076 -0.308957
s off
g group1 pCylinder5
usemtl initialShadingGroup
f 73/171/161 74/172/162 84/183/163 83/182/164
f 74/172/165 75/173/166 85/184/167 84/183/168
f 75/173/169 76/174/170 86/185/171 85/184/172
f 76/174/173 77/175/174 87/186/175 86/185/176
f 77/175/177 78/176/178 88/187/179 87/186/180
f 78/176/181 79/177/182 89/188/183 88/187/184
f 79/177/185 80/178/186 90/189/187 89/188/188
f 80/178/189 81/179/190 91/190/191 90/189/192
f 81/179/193 82/180/194 92/191/195 91/190/196
f 82/180/197 73/181/198 83/192/199 92/191/200
s 1
f 114/225/201 113/226/202 115/203/203
f 116/227/204 114/225/201 115/203/203
f 117/228/205 116/227/204 115/203/203
f 118/229/206 117/228/205 115/203/203
f 119/230/207 118/229/206 115/203/203
f 120/231/208 119/230/207 115/203/203
f 121/232/209 120/231/208 115/203/203
f 122/233/210 121/232/209 115/203/203
f 123/234/211 122/233/210 115/203/203
f 113/226/202 123/234/211 115/203/203
s 2
f 124/235/212 125/236/213 126/204/214
f 125/236/213 127/237/215 126/204/214
f 127/237/215 128/238/216 126/204/214
f 128/238/216 129/239/217 126/204/214
f 129/239/217 130/240/218 126/204/214
f 130/240/218 131/241/219 126/204/214
f 131/241/219 132/242/220 126/204/214
f 132/242/220 133/243/221 126/204/214
f 133/243/221 134/244/222 126/204/214
f 134/244/222 124/235/212 126/204/214
s 3
f 74/162/223 73/161/224 93/206/225 94/205/226
f 75/163/227 74/162/223 94/205/226 95/207/228
f 76/164/229 75/163/227 95/207/228 96/208/230
f 77/165/231 76/164/229 96/208/230 97/209/232
f 78/166/233 77/165/231 97/209/232 98/210/234
f 79/167/235 78/166/233 98/210/234 99/211/236
f 80/168/237 79/167/235 99/211/236 100/212/238
f 81/169/239 80/168/237 100/212/238 101/213/240
f 82/170/241 81/169/239 101/213/240 102/214/242
f 73/161/224 82/170/241 102/214/242 93/206/225
s 4
f 83/201/243 84/200/244 104/216/245 103/215/246
f 84/200/244 85/199/247 105/217/248 104/216/245
f 85/199/247 86/198/249 106/218/250 105/217/248
f 86/198/249 87/197/251 107/219/252 106/218/250
f 87/197/251 88/196/253 108/220/254 107/219/252
f 88/196/253 89/195/255 109/221/256 108/220/254
f 89/195/255 90/194/257 110/222/258 109/221/256
f 90/194/257 91/193/259 111/223/260 110/222/258
f 91/193/259 92/202/261 112/224/262 111/223/260
f 92/202/261 83/201/243 103/215/246 112/224/262
s off
f 94/205/263 93/206/264 113/226/265 114/225/266
f 95/207/267 94/205/268 114/225/269 116/227/270
f 96/208/271 95/207/272 116/227/273 117/228/274
f 97/209/275 96/208/276 117/228/277 118/229/278
f 98/210/279 97/209/280 118/229/281 119/230/282
f 99/211/283 98/210/284 119/230/285 120/231/286
f 100/212/287 99/211/288 120/231/289 121/232/290
f 101/213/291 100/212/292 121/232/293 122/233/294
f 102/214/295 101/213/296 122/233/297 123/234/298
f 93/206/299 102/214/300 123/234/301 113/226/302
f 103/215/303 104/216/304 125/236/305 124/235/306
f 104/216/307 105/217/308 127/237/309 125/236/310
f 105/217/311 106/218/312 128/238/313 127/237/314
f 106/218/315 107/219/316 129/239/317 128/238/318
f 107/219/319 108/220/320 130/240/321 129/239/322
f 108/220/323 109/221/324 131/241/325 130/240/326
f 109/221/327 110/222/328 132/242/329 131/241/330
f 110/222/331 111/223/332 133/243/333 132/242/334
f 111/223/335 112/224/336 134/244/337 133/243/338
f 112/224/339 103/215/340 124/235/341 134/244/342
g default
v 2.975043 2.319618 -6.183644
v 2.975043 2.106801 -6.396461
v 2.975043 1.816088 -6.474357
v 2.975043 1.525375 -6.396461
v 2.975043 1.312558 -6.183644
v 2.975043 1.234661 -5.892931
v 2.975043 1.312558 -5.602217
v 2.975043 1.525375 -5.389400
v 2.975043 1.816088 -5.311504
v 2.975043 2.106801 -5.389400
v 2.975043 2.319618 -5.602217
v 2.975043 2.397515 -5.892931
v 2.755733 2.370509 -6.213026
v 2.755733 2.136183 -6.447352
v 2.755733 1.816088 -6.533121
v 2.755733 1.495993 -6.447352
v 2.755733 1.261666 -6.213026
v 2.755733 1.175897 -5.892931
v 2.755733 1.261666 -5.572835
v 2.755733 1.495993 -5.338509
v 2.755733 1.816088 -5.252740
v 2.755733 2.136183 -5.338509
v 2.755733 2.370509 -5.572835
v 2.755733 2.456279 -5.892931
v 2.595187 2.509546 -6.293299
v 2.595187 2.216456 -6.586389
v 2.595187 1.816088 -6.693667
v 2.595187 1.415719 -6.586389
v 2.595187 1.122629 -6.293299
v 2.595187 1.015351 -5.892931
v 2.595187 1.122629 -5.492562
v 2.595187 1.415719 -5.199472
v 2.595187 1.816088 -5.092194
v 2.595187 2.216456 -5.199472
v 2.595187 2.509546 -5.492562
v 2.595187 2.616825 -5.892931
v 2.536423 2.699474 -6.402954
v 2.536423 2.326111 -6.776317
v 2.536423 1.816088 -6.912978
v 2.536423 1.306064 -6.776317
v 2.536423 0.932701 -6.402954
v 2.536423 0.796041 -5.892931
v 2.536423 0.932701 -5.382907
v 2.536423 1.306064 -5.009544
v 2.536423 1.816088 -4.872884
v 2.536423 2.326111 -5.009544
v 2.536423 2.699474 -5.382907
v 2.536423 2.836135 -5.892931
v 2.595187 2.889403 -6.512609
v 2.595187 2.435766 -6.966245
v 2.595187 1.816088 -7.132288
v 2.595187 1.196409 -6.966245
v 2.595187 0.742773 -6.512609
v 2.595187 0.576731 -5.892931
v 2.595187 0.742773 -5.273252
v 2.595187 1.196409 -4.819616
v 2.595187 1.816088 -4.653573
v 2.595187 2.435766 -4.819616
v 2.595187 2.889403 -5.273252
v 2.595187 3.055445 -5.892931
v 2.755733 3.028440 -6.592882
v 2.755733 2.516040 -7.105282
v 2.755733 1.816088 -7.292834
v 2.755733 1.116136 -7.105282
v 2.755733 0.603736 -6.592882
v 2.755733 0.416185 -5.892931
v 2.755733 0.603736 -5.192979
v 2.755733 1.116136 -4.680579
v 2.755733 1.816088 -4.493027
v 2.755733 2.516040 -4.680579
v 2.755733 3.028440 -5.192979
v 2.755733 3.215991 -5.892931
v 2.975043 3.079331 -6.622264
v 2.975043 2.545421 -7.156173
v 2.975043 1.816088 -7.351598
v 2.975043 1.086754 -7.156173
v 2.975043 0.552845 -6.622264
v 2.975043 0.357421 -5.892931
v 2.975043 0.552845 -5.163597
v 2.975043 1.086754 -4.629688
v 2.975043 1.816088 -4.434263
v 2.975043 2.545421 -4.629688
v 2.975043 3.079331 -5.163597
v 2.975043 3.274755 -5.892931
v 3.194353 3.028440 -6.592882
v 3.194353 2.516040 -7.105282
v 3.194353 1.816088 -7.292834
v 3.194353 1.116136 -7.105282
v 3.194353 0.603736 -6.592882
v 3.194353 0.416185 -5.892931
v 3.194353 0.603736 -5.192979
v 3.194353 1.116136 -4.680579
v 3.194353 1.816088 -4.493027
v 3.194353 2.516040 -4.680579
v 3.194353 3.028440 -5.192979
v 3.194353 3.215991 -5.892931
v 3.354899 2.889403 -6.512609
v 3.354899 2.435766 -6.966245
v 3.354899 1.816088 -7.132288
v 3.354899 1.196409 -6.966245
v 3.354899 0.742773 -6.512609
v 3.354899 0.576731 -5.892931
v 3.354899 0.742773 -5.273252
v 3.354899 1.196409 -4.819616
v 3.354899 1.816088 -4.653573
v 3.354899 2.435766 -4.819616
v 3.354899 2.889403 -5.273252
v 3.354899 3.055445 -5.892931
v 3.413663 2.699474 -6.402954
v 3.413663 2.326111 -6.776317
v 3.413663 1.816088 -6.912978
v 3.413663 1.306064 -6.776317
v 3.413663 0.932701 -6.402954
v 3.413663 0.796041 -5.892931
v 3.413663 0.932701 -5.382907
v 3.413663 1.306064 -5.009544
v 3.413663 1.816088 -4.872884
v 3.413663 2.326111 -5.009544
v 3.413663 2.699474 -5.382907
v 3.413663 2.836135 -5.892931
v 3.354899 2.509546 -6.293299
v 3.354899 2.216456 -6.586389
v 3.354899 1.816088 -6.693667
v 3.354899 1.415719 -6.586389
v 3.354899 1.122629 -6.293299
v 3.354899 1.015351 -5.892931
v 3.354899 1.122629 -5.492562
v 3.354899 1.415719 -5.199472
v 3.354899 1.816088 -5.092194
v 3.354899 2.216456 -5.199472
v 3.354899 2.509546 -5.492562
v 3.354899 2.616825 -5.892931
v 3.194353 2.370509 -6.213026
v 3.194353 2.136183 -6.447352
v 3.194353 1.816088 -6.533121
v 3.194353 1.495993 -6.447352
v 3.194353 1.261666 -6.213026
v 3.194353 1.175897 -5.892931
v 3.194353 1.261666 -5.572835
v 3.194353 1.495993 -5.338509
v 3.194353 1.816088 -5.252740
v 3.194353 2.136183 -5.338509
v 3.194353 2.370509 -5.572835
v 3.194353 2.456279 -5.892931
vt 0.040422 0.981124
vt 0.057817 0.981124
vt 0.075212 0.981124
vt 0.092606 0.981124
vt 0.110001 0.981124
vt 0.127396 0.981124
vt 0.144790 0.981124
vt 0.162185 0.981124
vt 0.179580 0.981124
vt 0.196974 0.981124
vt 0.214369 0.981124
vt 0.231764 0.981124
vt 0.249158 0.981124
vt 0.040422 0.963730
vt 0.057817 0.963730
vt 0.075212 0.963730
vt 0.092606 0.963730
vt 0.110001 0.963730
vt 0.127396 0.963730
vt 0.144790 0.963730
vt 0.162185 0.963730
vt 0.179580 0.963730
vt 0.196974 0.963730
vt 0.214369 0.963730
vt 0.231764 0.963730
vt 0.249158 0.963730
vt 0.040422 0.946335
vt 0.057817 0.946335
vt 0.075212 0.946335
vt 0.092606 0.946335
vt 0.110001 0.946335
vt 0.127396 0.946335
vt 0.144790 0.946335
vt 0.162185 0.946335
vt 0.179580 0.946335
vt 0.196974 0.946335
vt 0.214369 0.946335
vt 0.231764 0.946335
vt 0.249158 0.946335
vt 0.040422 0.928940
vt 0.057817 0.928940
vt 0.075212 0.928940
vt 0.092606 0.928940
vt 0.110001 0.928940
vt 0.127396 0.928940
vt 0.144790 0.928940
vt 0.162185 0.928940
vt 0.179580 0.928940
vt 0.196974 0.928940
vt 0.214369 0.928940
vt 0.231764 0.928940
vt 0.249158 0.928940
vt 0.040422 0.911546
vt 0.057817 0.911546
vt 0.075212 0.911546
vt 0.092606 0.911546
vt 0.110001 0.911546
vt 0.127396 0.911546
vt 0.144790 0.911546
vt 0.162185 0.911546
vt 0.179580 0.911546
vt 0.196974 0.911546
vt 0.214369 0.911546
vt 0.231764 0.911546
vt 0.249158 0.911546
vt 0.040422 0.894151
vt 0.057817 0.894151
vt 0.075212 0.894151
vt 0.092606 0.894151
vt 0.110001 0.894151
vt 0.127396 0.894151
vt 0.144790 0.894151
vt 0.162185 0.894151
vt 0.179580 0.894151
vt 0.196974 0.894151
vt 0.214369 0.894151
vt 0.231764 0.894151
vt 0.249158 0.894151
vt 0.040422 0.876756
vt 0.057817 0.876756
vt 0.075212 0.876756
vt 0.092606 0.876756
vt 0.110001 0.876756
vt 0.127396 0.876756
vt 0.144790 0.876756
vt 0.162185 0.876756
vt 0.179580 0.876756
vt 0.196974 0.876756
vt 0.214369 0.876756
vt 0.231764 0.876756
vt 0.249158 0.876756
vt 0.040422 0.859362
vt 0.057817 0.859362
vt 0.075212 0.859362
vt 0.092606 0.859362
vt 0.110001 0.859362
vt 0.127396 0.859362
vt 0.144790 0.859362
vt 0.162185 0.859362
vt 0.179580 0.859362
vt 0.196974 0.859362
vt 0.214369 0.859362
vt 0.231764 0.859362
vt 0.249158 0.859362
vt 0.040422 0.841967
vt 0.057817 0.841967
vt 0.075212 0.841967
vt 0.092606 0.841967
vt 0.110001 0.841967
vt 0.127396 0.841967
vt 0.144790 0.841967
vt 0.162185 0.841967
vt 0.179580 0.841967
vt 0.196974 0.841967
vt 0.214369 0.841967
vt 0.231764 0.841967
vt 0.249158 0.841967
vt 0.040422 0.824572
vt 0.057817 0.824572
vt 0.075212 0.824572
vt 0.092606 0.824572
vt 0.110001 0.824572
vt 0.127396 0.824572
vt 0.144790 0.824572
vt 0.162185 0.824572
vt 0.179580 0.824572
vt 0.196974 0.824572
vt 0.214369 0.824572
vt 0.231764 0.824572
vt 0.249158 0.824572
vt 0.040422 0.807178
vt 0.057817 0.807178
vt 0.075212 0.807178
vt 0.092606 0.807178
vt 0.110001 0.807178
vt 0.127396 0.807178
vt 0.144790 0.807178
vt 0.162185 0.807178
vt 0.179580 0.807178
vt 0.196974 0.807178
vt 0.214369 0.807178
vt 0.231764 0.807178
vt 0.249158 0.807178
vt 0.040422 0.789783
vt 0.057817 0.789783
vt 0.075212 0.789783
vt 0.092606 0.789783
vt 0.110001 0.789783
vt 0.127396 0.789783
vt 0.144790 0.789783
vt 0.162185 0.789783
vt 0.179580 0.789783
vt 0.196974 0.789783
vt 0.214369 0.789783
vt 0.231764 0.789783
vt 0.249158 0.789783
vt 0.040422 0.772388
vt 0.057817 0.772388
vt 0.075212 0.772388
vt 0.092606 0.772388
vt 0.110001 0.772388
vt 0.127396 0.772388
vt 0.144790 0.772388
vt 0.162185 0.772388
vt 0.179580 0.772388
vt 0.196974 0.772388
vt 0.214369 0.772388
vt 0.231764 0.772388
vt 0.249158 0.772388
vn -0.250563 -0.684550 0.684550
vn -0.250563 -0.684550 0.684550
vn -0.250563 -0.684550 0.684550
vn -0.250563 -0.684550 0.684550
vn -0.250563 -0.250563 0.935113
vn -0.250563 -0.250563 0.935113
vn -0.250563 -0.250563 0.935113
vn -0.250563 -0.250563 0.935113
vn -0.250563 0.250563 0.935113
vn -0.250563 0.250563 0.935113
vn -0.250563 0.250563 0.935113
vn -0.250563 0.250563 0.935113
vn -0.250563 0.684550 0.684550
vn -0.250563 0.684550 0.684550
vn -0.250563 0.684550 0.684550
vn -0.250563 0.684550 0.684550
vn -0.250563 0.935113 0.250563
vn -0.250563 0.935113 0.250563
vn -0.250563 0.935113 0.250563
vn -0.250563 0.935113 0.250563
vn -0.250563 0.935113 -0.250563
vn -0.250563 0.935113 -0.250563
vn -0.250563 0.935113 -0.250563
vn -0.250563 0.935113 -0.250563
vn -0.250563 0.684550 -0.684550
vn -0.250563 0.684550 -0.684550
vn -0.250563 0.684550 -0.684550
vn -0.250563 0.684550 -0.684550
vn -0.250563 0.250563 -0.935113
vn -0.250563 0.250563 -0.935113
vn -0.250563 0.250563 -0.935113
vn -0.250563 0.250563 -0.935113
vn -0.250563 -0.250563 -0.935113
vn -0.250563 -0.250563 -0.935113
vn -0.250563 -0.250563 -0.935113
vn -0.250563 -0.250563 -0.935113
vn -0.250563 -0.684550 -0.684550
vn -0.250563 -0.684550 -0.684550
vn -0.250563 -0.684550 -0.684550
vn -0.250563 -0.684550 -0.684550
vn -0.250563 -0.935113 -0.250563
vn -0.250563 -0.935113 -0.250563
vn -0.250563 -0.935113 -0.250563
vn -0.250563 -0.935113 -0.250563
vn -0.250563 -0.935113 0.250563
vn -0.250563 -0.935113 0.250563
vn -0.250563 -0.935113 0.250563
vn -0.250563 -0.935113 0.250563
vn -0.694746 -0.508590 0.508590
vn -0.694746 -0.508590 0.508590
vn -0.694746 -0.508590 0.508590
vn -0.694746 -0.508590 0.508590
vn -0.694746 -0.186157 0.694747
vn -0.694746 -0.186157 0.694747
vn -0.694746 -0.186157 0.694747
vn -0.694746 -0.186157 0.694747
vn -0.694746 0.186157 0.694747
vn -0.694746 0.186157 0.694747
vn -0.694746 0.186157 0.694747
vn -0.694746 0.186157 0.694747
vn -0.694746 0.508590 0.508590
vn -0.694746 0.508590 0.508590
vn -0.694746 0.508590 0.508590
vn -0.694746 0.508590 0.508590
vn -0.694747 0.694747 0.186157
vn -0.694747 0.694747 0.186157
vn -0.694747 0.694746 0.186157
vn -0.694747 0.694746 0.186157
vn -0.694747 0.694746 -0.186157
vn -0.694747 0.694746 -0.186157
vn -0.694747 0.694747 -0.186157
vn -0.694747 0.694747 -0.186157
vn -0.694746 0.508590 -0.508590
vn -0.694746 0.508590 -0.508590
vn -0.694746 0.508590 -0.508590
vn -0.694746 0.508590 -0.508590
vn -0.694746 0.186157 -0.694747
vn -0.694746 0.186157 -0.694747
vn -0.694746 0.186157 -0.694747
vn -0.694746 0.186157 -0.694747
vn -0.694746 -0.186157 -0.694747
vn -0.694746 -0.186157 -0.694747
vn -0.694746 -0.186157 -0.694747
vn -0.694746 -0.186157 -0.694747
vn -0.694746 -0.508590 -0.508590
vn -0.694746 -0.508590 -0.508590
vn -0.694746 -0.508590 -0.508590
vn -0.694746 -0.508590 -0.508590
vn -0.694747 -0.694747 -0.186157
vn -0.694747 -0.694747 -0.186157
vn -0.694747 -0.694746 -0.186157
vn -0.694747 -0.694746 -0.186157
vn -0.694747 -0.694746 0.186157
vn -0.694747 -0.694746 0.186157
vn -0.694747 -0.694747 0.186157
vn -0.694747 -0.694747 0.186157
vn -0.963611 -0.189015 0.189015
vn -0.963611 -0.189015 0.189015
vn -0.963611 -0.189015 0.189015
vn -0.963611 -0.189015 0.189015
vn -0.963611 -0.069184 0.258199
vn -0.963611 -0.069184 0.258199
vn -0.963611 -0.069184 0.258199
vn -0.963611 -0.069184 0.258199
vn -0.963611 0.069184 0.258199
vn -0.963611 0.069184 0.258199
vn -0.963611 0.069184 0.258199
vn -0.963611 0.069184 0.258199
vn -0.963611 0.189015 0.189015
vn -0.963611 0.189015 0.189015
vn -0.963611 0.189015 0.189015
vn -0.963611 0.189015 0.189015
vn -0.963611 0.258199 0.069184
vn -0.963611 0.258199 0.069184
vn -0.963611 0.258199 0.069184
vn -0.963611 0.258199 0.069184
vn -0.963611 0.258199 -0.069184
vn -0.963611 0.258199 -0.069184
vn -0.963611 0.258199 -0.069184
vn -0.963611 0.258199 -0.069184
vn -0.963611 0.189015 -0.189015
vn -0.963611 0.189015 -0.189015
vn -0.963611 0.189015 -0.189015
vn -0.963611 0.189015 -0.189015
vn -0.963611 0.069184 -0.258199
vn -0.963611 0.069184 -0.258199
vn -0.963611 0.069184 -0.258199
vn -0.963611 0.069184 -0.258199
vn -0.963611 -0.069184 -0.258199
vn -0.963611 -0.069184 -0.258199
vn -0.963611 -0.069184 -0.258199
vn -0.963611 -0.069184 -0.258199
vn -0.963611 -0.189015 -0.189015
vn -0.963611 -0.189015 -0.189015
vn -0.963611 -0.189015 -0.189015
vn -0.963611 -0.189015 -0.189015
vn -0.963611 -0.258199 -0.069184
vn -0.963611 -0.258199 -0.069184
vn -0.963611 -0.258199 -0.069184
vn -0.963611 -0.258199 -0.069184
vn -0.963611 -0.258199 0.069184
vn -0.963611 -0.258199 0.069184
vn -0.963611 -0.258199 0.069184
vn -0.963611 -0.258199 0.069184
vn -0.963611 0.189015 -0.189015
vn -0.963611 0.189015 -0.189015
vn -0.963611 0.189015 -0.189015
vn -0.963611 0.189015 -0.189015
vn -0.963611 0.069184 -0.258199
vn -0.963611 0.069184 -0.258199
vn -0.963611 0.069184 -0.258199
vn -0.963611 0.069184 -0.258199
vn -0.963611 -0.069184 -0.258199
vn -0.963611 -0.069184 -0.258199
vn -0.963611 -0.069184 -0.258199
vn -0.963611 -0.069184 -0.258199
vn -0.963611 -0.189015 -0.189015
vn -0.963611 -0.189015 -0.189015
vn -0.963611 -0.189015 -0.189015
vn -0.963611 -0.189015 -0.189015
vn -0.963611 -0.258199 -0.069184
vn -0.963611 -0.258199 -0.069184
vn -0.963611 -0.258199 -0.069184
vn -0.963611 -0.258199 -0.069184
vn -0.963611 -0.258199 0.069184
vn -0.963611 -0.258199 0.069184
vn -0.963611 -0.258199 0.069184
vn -0.963611 -0.258199 0.069184
vn -0.963611 -0.189015 0.189015
vn -0.963611 -0.189015 0.189015
vn -0.963611 -0.189015 0.189015
vn -0.963611 -0.189015 0.189015
vn -0.963611 -0.069184 0.258199
vn -0.963611 -0.069184 0.258199
vn -0.963611 -0.069184 0.258199
vn -0.963611 -0.069184 0.258199
vn -0.963611 0.069184 0.258199
vn -0.963611 0.069184 0.258199
vn -0.963611 0.069184 0.258199
vn -0.963611 0.069184 0.258199
vn -0.963611 0.189015 0.189015
vn -0.963611 0.189015 0.189015
vn -0.963611 0.189015 0.189015
vn -0.963611 0.189015 0.189015
vn -0.963611 0.258199 0.069184
vn -0.963611 0.258199 0.069184
vn -0.963611 0.258199 0.069184
vn -0.963611 0.258199 0.069184
vn -0.963611 0.258199 -0.069184
vn -0.963611 0.258199 -0.069184
vn -0.963611 0.258199 -0.069184
vn -0.963611 0.258199 -0.069184
vn -0.694747 0.508590 -0.508590
vn -0.694747 0.508590 -0.508590
vn -0.694747 0.508590 -0.508590
vn -0.694747 0.508590 -0.508590
vn -0.694747 0.186157 -0.694746
vn -0.694747 0.186157 -0.694746
vn -0.694747 0.186157 -0.694746
vn -0.694747 0.186157 -0.694746
vn -0.694747 -0.186157 -0.694746
vn -0.694747 -0.186157 -0.694746
vn -0.694747 -0.186157 -0.694746
vn -0.694747 -0.186157 -0.694746
vn -0.694747 -0.508590 -0.508590
vn -0.694747 -0.508590 -0.508590
vn -0.694747 -0.508590 -0.508590
vn -0.694747 -0.508590 -0.508590
vn -0.694747 -0.694746 -0.186157
vn -0.694747 -0.694746 -0.186157
vn -0.694747 -0.694746 -0.186157
vn -0.694747 -0.694746 -0.186157
vn -0.694747 -0.694746 0.186157
vn -0.694747 -0.694746 0.186157
vn -0.694747 -0.694746 0.186157
vn -0.694747 -0.694746 0.186157
vn -0.694747 -0.508590 0.508590
vn -0.694747 -0.508590 0.508590
vn -0.694747 -0.508590 0.508590
vn -0.694747 -0.508590 0.508590
vn -0.694747 -0.186157 0.694746
vn -0.694747 -0.186157 0.694746
vn -0.694747 -0.186157 0.694746
vn -0.694747 -0.186157 0.694746
vn -0.694747 0.186157 0.694746
vn -0.694747 0.186157 0.694746
vn -0.694747 0.186157 0.694746
vn -0.694747 0.186157 0.694746
vn -0.694747 0.508590 0.508590
vn -0.694747 0.508590 0.508590
vn -0.694747 0.508590 0.508590
vn -0.694747 0.508590 0.508590
vn -0.694747 0.694746 0.186157
vn -0.694747 0.694746 0.186157
vn -0.694747 0.694746 0.186157
vn -0.694747 0.694746 0.186157
vn -0.694747 0.694746 -0.186157
vn -0.694747 0.694746 -0.186157
vn -0.694747 0.694746 -0.186157
vn -0.694747 0.694746 -0.186157
vn -0.250563 0.684550 -0.684550
vn -0.250563 0.684550 -0.684550
vn -0.250563 0.684550 -0.684550
vn -0.250563 0.684550 -0.684550
vn -0.250563 0.250563 -0.935113
vn -0.250563 0.250563 -0.935113
vn -0.250563 0.250563 -0.935113
vn -0.250563 0.250563 -0.935113
vn -0.250563 -0.250563 -0.935113
vn -0.250563 -0.250563 -0.935113
vn -0.250563 -0.250563 -0.935113
vn -0.250563 -0.250563 -0.935113
vn -0.250563 -0.684550 -0.684550
vn -0.250563 -0.684550 -0.684550
vn -0.250563 -0.684550 -0.684550
vn -0.250563 -0.684550 -0.684550
vn -0.250563 -0.935113 -0.250563
vn -0.250563 -0.935113 -0.250563
vn -0.250563 -0.935113 -0.250563
vn -0.250563 -0.935113 -0.250563
vn -0.250563 -0.935113 0.250563
vn -0.250563 -0.935113 0.250563
vn -0.250563 -0.935113 0.250563
vn -0.250563 -0.935113 0.250563
vn -0.250563 -0.684550 0.684550
vn -0.250563 -0.684550 0.684550
vn -0.250563 -0.684550 0.684550
vn -0.250563 -0.684550 0.684550
vn -0.250563 -0.250563 0.935113
vn -0.250563 -0.250563 0.935113
vn -0.250563 -0.250563 0.935113
vn -0.250563 -0.250563 0.935113
vn -0.250563 0.250563 0.935113
vn -0.250563 0.250563 0.935113
vn -0.250563 0.250563 0.935113
vn -0.250563 0.250563 0.935113
vn -0.250563 0.684550 0.684550
vn -0.250563 0.684550 0.684550
vn -0.250563 0.684550 0.684550
vn -0.250563 0.684550 0.684550
vn -0.250563 0.935113 0.250563
vn -0.250563 0.935113 0.250563
vn -0.250563 0.935113 0.250563
vn -0.250563 0.935113 0.250563
vn -0.250563 0.935113 -0.250563
vn -0.250563 0.935113 -0.250563
vn -0.250563 0.935113 -0.250563
vn -0.250563 0.935113 -0.250563
vn 0.250563 0.684550 -0.684550
vn 0.250563 0.684550 -0.684550
vn 0.250563 0.684550 -0.684550
vn 0.250563 0.684550 -0.684550
vn 0.250563 0.250563 -0.935113
vn 0.250563 0.250563 -0.935113
vn 0.250563 0.250563 -0.935113
vn 0.250563 0.250563 -0.935113
vn 0.250563 -0.250563 -0.935113
vn 0.250563 -0.250563 -0.935113
vn 0.250563 -0.250563 -0.935113
vn 0.250563 -0.250563 -0.935113
vn 0.250563 -0.684550 -0.684550
vn 0.250563 -0.684550 -0.684550
vn 0.250563 -0.684550 -0.684550
vn 0.250563 -0.684550 -0.684550
vn 0.250563 -0.935113 -0.250563
vn 0.250563 -0.935113 -0.250563
vn 0.250563 -0.935113 -0.250563
vn 0.250563 -0.935113 -0.250563
vn 0.250563 -0.935113 0.250563
vn 0.250563 -0.935113 0.250563
vn 0.250563 -0.935113 0.250563
vn 0.250563 -0.935113 0.250563
vn 0.250563 -0.684550 0.684550
vn 0.250563 -0.684550 0.684550
vn 0.250563 -0.684550 0.684550
vn 0.250563 -0.684550 0.684550
vn 0.250563 -0.250563 0.935113
vn 0.250563 -0.250563 0.935113
vn 0.250563 -0.250563 0.935113
vn 0.250563 -0.250563 0.935113
vn 0.250563 0.250563 0.935113
vn 0.250563 0.250563 0.935113
vn 0.250563 0.250563 0.935113
vn 0.250563 0.250563 0.935113
vn 0.250563 0.684550 0.684550
vn 0.250563 0.684550 0.684550
vn 0.250563 0.684550 0.684550
vn 0.250563 0.684550 0.684550
vn 0.250563 0.935113 0.250563
vn 0.250563 0.935113 0.250563
vn 0.250563 0.935113 0.250563
vn 0.250563 0.935113 0.250563
vn 0.250563 0.935113 -0.250563
vn 0.250563 0.935113 -0.250563
vn 0.250563 0.935113 -0.250563
vn 0.250563 0.935113 -0.250563
vn 0.694747 0.508590 -0.508590
vn 0.694747 0.508590 -0.508590
vn 0.694747 0.508590 -0.508590
vn 0.694747 0.508590 -0.508590
vn 0.694747 0.186157 -0.694746
vn 0.694747 0.186157 -0.694746
vn 0.694747 0.186157 -0.694746
vn 0.694747 0.186157 -0.694746
vn 0.694747 -0.186157 -0.694746
vn 0.694747 -0.186157 -0.694746
vn 0.694747 -0.186157 -0.694746
vn 0.694747 -0.186157 -0.694746
vn 0.694747 -0.508590 -0.508590
vn 0.694747 -0.508590 -0.508590
vn 0.694747 -0.508590 -0.508590
vn 0.694747 -0.508590 -0.508590
vn 0.694747 -0.694747 -0.186157
vn 0.694747 -0.694747 -0.186157
vn 0.694747 -0.694747 -0.186157
vn 0.694747 -0.694747 -0.186157
vn 0.694747 -0.694746 0.186157
vn 0.694747 -0.694746 0.186157
vn 0.694747 -0.694746 0.186157
vn 0.694747 -0.694746 0.186157
vn 0.694747 -0.508590 0.508590
vn 0.694747 -0.508590 0.508590
vn 0.694747 -0.508590 0.508590
vn 0.694747 -0.508590 0.508590
vn 0.694747 -0.186157 0.694746
vn 0.694747 -0.186157 0.694746
vn 0.694747 -0.186157 0.694746
vn 0.694747 -0.186157 0.694746
vn 0.694747 0.186157 0.694746
vn 0.694747 0.186157 0.694746
vn 0.694747 0.186157 0.694746
vn 0.694747 0.186157 0.694746
vn 0.694747 0.508590 0.508590
vn 0.694747 0.508590 0.508590
vn 0.694747 0.508590 0.508590
vn 0.694747 0.508590 0.508590
vn 0.694747 0.694747 0.186157
vn 0.694747 0.694747 0.186157
vn 0.694747 0.694747 0.186157
vn 0.694747 0.694747 0.186157
vn 0.694747 0.694746 -0.186157
vn 0.694747 0.694746 -0.186157
vn 0.694747 0.694746 -0.186157
vn 0.694747 0.694746 -0.186157
vn 0.963611 0.189015 -0.189015
vn 0.963611 0.189015 -0.189015
vn 0.963611 0.189015 -0.189015
vn 0.963611 0.189015 -0.189015
vn 0.963611 0.069184 -0.258199
vn 0.963611 0.069184 -0.258199
vn 0.963611 0.069184 -0.258199
vn 0.963611 0.069184 -0.258199
vn 0.963611 -0.069184 -0.258199
vn 0.963611 -0.069184 -0.258199
vn 0.963611 -0.069184 -0.258199
vn 0.963611 -0.069184 -0.258199
vn 0.963611 -0.189015 -0.189015
vn 0.963611 -0.189015 -0.189015
vn 0.963611 -0.189015 -0.189015
vn 0.963611 -0.189015 -0.189015
vn 0.963611 -0.258199 -0.069184
vn 0.963611 -0.258199 -0.069184
vn 0.963611 -0.258199 -0.069184
vn 0.963611 -0.258199 -0.069184
vn 0.963611 -0.258199 0.069184
vn 0.963611 -0.258199 0.069184
vn 0.963611 -0.258199 0.069184
vn 0.963611 -0.258199 0.069184
vn 0.963611 -0.189015 0.189015
vn 0.963611 -0.189015 0.189015
vn 0.963611 -0.189015 0.189015
vn 0.963611 -0.189015 0.189015
vn 0.963611 -0.069184 0.258199
vn 0.963611 -0.069184 0.258199
vn 0.963611 -0.069184 0.258199
vn 0.963611 -0.069184 0.258199
vn 0.963611 0.069184 0.258199
vn 0.963611 0.069184 0.258199
vn 0.963611 0.069184 0.258199
vn 0.963611 0.069184 0.258199
vn 0.963611 0.189015 0.189015
vn 0.963611 0.189015 0.189015
vn 0.963611 0.189015 0.189015
vn 0.963611 0.189015 0.189015
vn 0.963611 0.258199 0.069184
vn 0.963611 0.258199 0.069184
vn 0.963611 0.258199 0.069184
vn 0.963611 0.258199 0.069184
vn 0.963611 0.258199 -0.069184
vn 0.963611 0.258199 -0.069184
vn 0.963611 0.258199 -0.069184
vn 0.963611 0.258199 -0.069184
vn 0.963611 -0.189015 0.189015
vn 0.963611 -0.189015 0.189015
vn 0.963611 -0.189015 0.189015
vn 0.963611 -0.189015 0.189015
vn 0.963611 -0.069184 0.258199
vn 0.963611 -0.069184 0.258199
vn 0.963611 -0.069184 0.258199
vn 0.963611 -0.069184 0.258199
vn 0.963611 0.069184 0.258199
vn 0.963611 0.069184 0.258199
vn 0.963611 0.069184 0.258199
vn 0.963611 0.069184 0.258199
vn 0.963611 0.189015 0.189015
vn 0.963611 0.189015 0.189015
vn 0.963611 0.189015 0.189015
vn 0.963611 0.189015 0.189015
vn 0.963611 0.258199 0.069184
vn 0.963611 0.258199 0.069184
vn 0.963611 0.258199 0.069184
vn 0.963611 0.258199 0.069184
vn 0.963611 0.258199 -0.069184
vn 0.963611 0.258199 -0.069184
vn 0.963611 0.258199 -0.069184
vn 0.963611 0.258199 -0.069184
vn 0.963611 0.189015 -0.189015
vn 0.963611 0.189015 -0.189015
vn 0.963611 0.189015 -0.189015
vn 0.963611 0.189015 -0.189015
vn 0.963611 0.069184 -0.258199
vn 0.963611 0.069184 -0.258199
vn 0.963611 0.069184 -0.258199
vn 0.963611 0.069184 -0.258199
vn 0.963611 -0.069184 -0.258199
vn 0.963611 -0.069184 -0.258199
vn 0.963611 -0.069184 -0.258199
vn 0.963611 -0.069184 -0.258199
vn 0.963611 -0.189015 -0.189015
vn 0.963611 -0.189015 -0.189015
vn 0.963611 -0.189015 -0.189015
vn 0.963611 -0.189015 -0.189015
vn 0.963611 -0.258199 -0.069184
vn 0.963611 -0.258199 -0.069184
vn 0.963611 -0.258199 -0.069184
vn 0.963611 -0.258199 -0.069184
vn 0.963611 -0.258199 0.069184
vn 0.963611 -0.258199 0.069184
vn 0.963611 -0.258199 0.069184
vn 0.963611 -0.258199 0.069184
vn 0.694746 -0.508590 0.508590
vn 0.694746 -0.508590 0.508590
vn 0.694746 -0.508590 0.508590
vn 0.694746 -0.508590 0.508590
vn 0.694746 -0.186157 0.694747
vn 0.694746 -0.186157 0.694747
vn 0.694746 -0.186157 0.694747
vn 0.694746 -0.186157 0.694747
vn 0.694746 0.186157 0.694747
vn 0.694746 0.186157 0.694747
vn 0.694746 0.186157 0.694747
vn 0.694746 0.186157 0.694747
vn 0.694746 0.508590 0.508590
vn 0.694746 0.508590 0.508590
vn 0.694746 0.508590 0.508590
vn 0.694746 0.508590 0.508590
vn 0.694747 0.694746 0.186157
vn 0.694747 0.694746 0.186157
vn 0.694747 0.694747 0.186157
vn 0.694747 0.694747 0.186157
vn 0.694747 0.694747 -0.186157
vn 0.694747 0.694747 -0.186157
vn 0.694747 0.694746 -0.186157
vn 0.694747 0.694746 -0.186157
vn 0.694746 0.508590 -0.508590
vn 0.694746 0.508590 -0.508590
vn 0.694746 0.508590 -0.508590
vn 0.694746 0.508590 -0.508590
vn 0.694746 0.186157 -0.694747
vn 0.694746 0.186157 -0.694747
vn 0.694746 0.186157 -0.694747
vn 0.694746 0.186157 -0.694747
vn 0.694746 -0.186157 -0.694747
vn 0.694746 -0.186157 -0.694747
vn 0.694746 -0.186157 -0.694747
vn 0.694746 -0.186157 -0.694747
vn 0.694746 -0.508590 -0.508590
vn 0.694746 -0.508590 -0.508590
vn 0.694746 -0.508590 -0.508590
vn 0.694746 -0.508590 -0.508590
vn 0.694747 -0.694746 -0.186157
vn 0.694747 -0.694746 -0.186157
vn 0.694747 -0.694747 -0.186157
vn 0.694747 -0.694747 -0.186157
vn 0.694747 -0.694747 0.186157
vn 0.694747 -0.694747 0.186157
vn 0.694747 -0.694746 0.186157
vn 0.694747 -0.694746 0.186157
vn 0.250563 -0.684550 0.684550
vn 0.250563 -0.684550 0.684550
vn 0.250563 -0.684550 0.684550
vn 0.250563 -0.684550 0.684550
vn 0.250563 -0.250563 0.935113
vn 0.250563 -0.250563 0.935113
vn 0.250563 -0.250563 0.935113
vn 0.250563 -0.250563 0.935113
vn 0.250563 0.250563 0.935113
vn 0.250563 0.250563 0.935113
vn 0.250563 0.250563 0.935113
vn 0.250563 0.250563 0.935113
vn 0.250563 0.684550 0.684550
vn 0.250563 0.684550 0.684550
vn 0.250563 0.684550 0.684550
vn 0.250563 0.684550 0.684550
vn 0.250563 0.935113 0.250563
vn 0.250563 0.935113 0.250563
vn 0.250563 0.935113 0.250563
vn 0.250563 0.935113 0.250563
vn 0.250563 0.935113 -0.250563
vn 0.250563 0.935113 -0.250563
vn 0.250563 0.935113 -0.250563
vn 0.250563 0.935113 -0.250563
vn 0.250563 0.684550 -0.684550
vn 0.250563 0.684550 -0.684550
vn 0.250563 0.684550 -0.684550
vn 0.250563 0.684550 -0.684550
vn 0.250563 0.250563 -0.935113
vn 0.250563 0.250563 -0.935113
vn 0.250563 0.250563 -0.935113
vn 0.250563 0.250563 -0.935113
vn 0.250563 -0.250563 -0.935113
vn 0.250563 -0.250563 -0.935113
vn 0.250563 -0.250563 -0.935113
vn 0.250563 -0.250563 -0.935113
vn 0.250563 -0.684550 -0.684550
vn 0.250563 -0.684550 -0.684550
vn 0.250563 -0.684550 -0.684550
vn 0.250563 -0.684550 -0.684550
vn 0.250563 -0.935113 -0.250563
vn 0.250563 -0.935113 -0.250563
vn 0.250563 -0.935113 -0.250563
vn 0.250563 -0.935113 -0.250563
vn 0.250563 -0.935113 0.250563
vn 0.250563 -0.935113 0.250563
vn 0.250563 -0.935113 0.250563
vn 0.250563 -0.935113 0.250563
s off
g group1 pTorus1
usemtl initialShadingGroup
f 136/246/343 135/245/344 147/258/345 148/259/346
f 137/247/347 136/246/348 148/259/349 149/260/350
f 138/248/351 137/247/352 149/260/353 150/261/354
f 139/249/355 138/248/356 150/261/357 151/262/358
f 140/250/359 139/249/360 151/262/361 152/263/362
f 141/251/363 140/250/364 152/263/365 153/264/366
f 142/252/367 141/251/368 153/264/369 154/265/370
f 143/253/371 142/252/372 154/265/373 155/266/374
f 144/254/375 143/253/376 155/266/377 156/267/378
f 145/255/379 144/254/380 156/267/381 157/268/382
f 146/256/383 145/255/384 157/268/385 158/269/386
f 135/257/387 146/256/388 158/269/389 147/270/390
f 148/259/391 147/258/392 159/271/393 160/272/394
f 149/260/395 148/259/396 160/272/397 161/273/398
f 150/261/399 149/260/400 161/273/401 162/274/402
f 151/262/403 150/261/404 162/274/405 163/275/406
f 152/263/407 151/262/408 163/275/409 164/276/410
f 153/264/411 152/263/412 164/276/413 165/277/414
f 154/265/415 153/264/416 165/277/417 166/278/418
f 155/266/419 154/265/420 166/278/421 167/279/422
f 156/267/423 155/266/424 167/279/425 168/280/426
f 157/268/427 156/267/428 168/280/429 169/281/430
f 158/269/431 157/268/432 169/281/433 170/282/434
f 147/270/435 158/269/436 170/282/437 159/283/438
f 160/272/439 159/271/440 171/284/441 172/285/442
f 161/273/443 160/272/444 172/285/445 173/286/446
f 162/274/447 161/273/448 173/286/449 174/287/450
f 163/275/451 162/274/452 174/287/453 175/288/454
f 164/276/455 163/275/456 175/288/457 176/289/458
f 165/277/459 164/276/460 176/289/461 177/290/462
f 166/278/463 165/277/464 177/290/465 178/291/466
f 167/279/467 166/278/468 178/291/469 179/292/470
f 168/280/471 167/279/472 179/292/473 180/293/474
f 169/281/475 168/280/476 180/293/477 181/294/478
f 170/282/479 169/281/480 181/294/481 182/295/482
f 159/283/483 170/282/484 182/295/485 171/296/486
f 172/285/487 171/284/488 183/297/489 184/298/490
f 173/286/491 172/285/492 184/298/493 185/299/494
f 174/287/495 173/286/496 185/299/497 186/300/498
f 175/288/499 174/287/500 186/300/501 187/301/502
f 176/289/503 175/288/504 187/301/505 188/302/506
f 177/290/507 176/289/508 188/302/509 189/303/510
f 178/291/511 177/290/512 189/303/513 190/304/514
f 179/292/515 178/291/516 190/304/517 191/305/518
f 180/293/519 179/292/520 191/305/521 192/306/522
f 181/294/523 180/293/524 192/306/525 193/307/526
f 182/295/527 181/294/528 193/307/529 194/308/530
f 171/296/531 182/295/532 194/308/533 183/309/534
f 184/298/535 183/297/536 195/310/537 196/311/538
f 185/299/539 184/298/540 196/311/541 197/312/542
f 186/300/543 185/299/544 197/312/545 198/313/546
f 187/301/547 186/300/548 198/313/549 199/314/550
f 188/302/551 187/301/552 199/314/553 200/315/554
f 189/303/555 188/302/556 200/315/557 201/316/558
f 190/304/559 189/303/560 201/316/561 202/317/562
f 191/305/563 190/304/564 202/317/565 203/318/566
f 192/306/567 191/305/568 203/318/569 204/319/570
f 193/307/571 192/306/572 204/319/573 205/320/574
f 194/308/575 193/307/576 205/320/577 206/321/578
f 183/309/579 194/308/580 206/321/581 195/322/582
f 196/311/583 195/310/584 207/323/585 208/324/586
f 197/312/587 196/311/588 208/324/589 209/325/590
f 198/313/591 197/312/592 209/325/593 210/326/594
f 199/314/595 198/313/596 210/326/597 211/327/598
f 200/315/599 199/314/600 211/327/601 212/328/602
f 201/316/603 200/315/604 212/328/605 213/329/606
f 202/317/607 201/316/608 213/329/609 214/330/610
f 203/318/611 202/317/612 214/330/613 215/331/614
f 204/319/615 203/318/616 215/331/617 216/332/618
f 205/320/619 204/319/620 216/332/621 217/333/622
f 206/321/623 205/320/624 217/333/625 218/334/626
f 195/322/627 206/321/628 218/334/629 207/335/630
f 208/324/631 207/323/632 219/336/633 220/337/634
f 209/325/635 208/324/636 220/337/637 221/338/638
f 210/326/639 209/325/640 221/338/641 222/339/642
f 211/327/643 210/326/644 222/339/645 223/340/646
f 212/328/647 211/327/648 223/340/649 224/341/650
f 213/329/651 212/328/652 224/341/653 225/342/654
f 214/330/655 213/329/656 225/342/657 226/343/658
f 215/331/659 214/330/660 226/343/661 227/344/662
f 216/332/663 215/331/664 227/344/665 228/345/666
f 217/333/667 216/332/668 228/345/669 229/346/670
f 218/334/671 217/333/672 229/346/673 230/347/674
f 207/335/675 218/334/676 230/347/677 219/348/678
f 220/337/679 219/336/680 231/349/681 232/350/682
f 221/338/683 220/337/684 232/350/685 233/351/686
f 222/339/687 221/338/688 233/351/689 234/352/690
f 223/340/691 222/339/692 234/352/693 235/353/694
f 224/341/695 223/340/696 235/353/697 236/354/698
f 225/342/699 224/341/700 236/354/701 237/355/702
f 226/343/703 225/342/704 237/355/705 238/356/706
f 227/344/707 226/343/708 238/356/709 239/357/710
f 228/345/711 227/344/712 239/357/713 240/358/714
f 229/346/715 228/345/716 240/358/717 241/359/718
f 230/347/719 229/346/720 241/359/721 242/360/722
f 219/348/723 230/347/724 242/360/725 231/361/726
f 232/350/727 231/349/728 243/362/729 244/363/730
f 233/351/731 232/350/732 244/363/733 245/364/734
f 234/352/735 233/351/736 245/364/737 246/365/738
f 235/353/739 234/352/740 246/365/741 247/366/742
f 236/354/743 235/353/744 247/366/745 248/367/746
f 237/355/747 236/354/748 248/367/749 249/368/750
f 238/356/751 237/355/752 249/368/753 250/369/754
f 239/357/755 238/356/756 250/369/757 251/370/758
f 240/358/759 239/357/760 251/370/761 252/371/762
f 241/359/763 240/358/764 252/371/765 253/372/766
f 242/360/767 241/359/768 253/372/769 254/373/770
f 231/361/771 242/360/772 254/373/773 243/374/774
f 244/363/775 243/362/776 255/375/777 256/376/778
f 245/364/779 244/363/780 256/376/781 257/377/782
f 246/365/783 245/364/784 257/377/785 258/378/786
f 247/366/787 246/365/788 258/378/789 259/379/790
f 248/367/791 247/366/792 259/379/793 260/380/794
f 249/368/795 248/367/796 260/380/797 261/381/798
f 250/369/799 249/368/800 261/381/801 262/382/802
f 251/370/803 250/369/804 262/382/805 263/383/806
f 252/371/807 251/370/808 263/383/809 264/384/810
f 253/372/811 252/371/812 264/384/813 265/385/814
f 254/373/815 253/372/816 265/385/817 266/386/818
f 243/374/819 254/373/820 266/386/821 255/387/822
f 256/376/823 255/375/824 267/388/825 268/389/826
f 257/377/827 256/376/828 268/389/829 269/390/830
f 258/378/831 257/377/832 269/390/833 270/391/834
f 259/379/835 258/378/836 270/391/837 271/392/838
f 260/380/839 259/379/840 271/392/841 272/393/842
f 261/381/843 260/380/844 272/393/845 273/394/846
f 262/382/847 261/381/848 273/394/849 274/395/850
f 263/383/851 262/382/852 274/395/853 275/396/854
f 264/384/855 263/383/856 275/396/857 276/397/858
f 265/385/859 264/384/860 276/397/861 277/398/862
f 266/386/863 265/385/864 277/398/865 278/399/866
f 255/387/867 266/386/868 278/399/869 267/400/870
f 268/389/871 267/388/872 135/401/873 136/402/874
f 269/390/875 268/389/876 136/402/877 137/403/878
f 270/391/879 269/390/880 137/403/881 138/404/882
f 271/392/883 270/391/884 138/404/885 139/405/886
f 272/393/887 271/392/888 139/405/889 140/406/890
f 273/394/891 272/393/892 140/406/893 141/407/894
f 274/395/895 273/394/896 141/407/897 142/408/898
f 275/396/899 274/395/900 142/408/901 143/409/902
f 276/397/903 275/396/904 143/409/905 144/410/906
f 277/398/907 276/397/908 144/410/909 145/411/910
f 278/399/911 277/398/912 145/411/913 146/412/914
f 267/400/915 278/399/916 146/412/917 135/413/918
g default
v 0.726660 1.260034 -7.267948
v 5.110065 1.260034 -7.267948
v 0.726660 1.376291 -7.316511
v 5.110065 1.376291 -7.316511
v 0.726660 1.256218 -7.636537
v 5.110065 1.256218 -7.636537
v 0.726660 1.118106 -7.637150
v 5.110065 1.118106 -7.637150
vt 0.634320 0.187929
vt 0.694199 0.187929
vt 0.634320 0.247809
vt 0.694199 0.247809
vt 0.634320 0.307689
vt 0.694199 0.307689
vt 0.634320 0.367568
vt 0.694199 0.367568
vt 0.634320 0.427448
vt 0.694199 0.427448
vt 0.754079 0.187929
vt 0.754079 0.247809
vt 0.574440 0.187929
vt 0.574440 0.247809
vn 0.000000 0.385445 0.922731
vn 0.000000 0.385445 0.922731
vn 0.000000 0.385445 0.922731
vn 0.000000 0.385445 0.922731
vn 0.000000 0.936268 -0.351286
vn 0.000000 0.936268 -0.351286
vn 0.000000 0.936268 -0.351286
vn 0.000000 0.936268 -0.351286
vn 0.000000 0.004436 -0.999990
vn 0.000000 0.004436 -0.999990
vn 0.000000 0.004436 -0.999990
vn 0.000000 0.004436 -0.999990
vn 0.000000 -0.933406 0.358821
vn 0.000000 -0.933406 0.358821
vn 0.000000 -0.933406 0.358821
vn 0.000000 -0.933406 0.358821
vn 1.000000 0.000000 0.000000
vn 1.000000 0.000000 0.000000
vn 1.000000 0.000000 0.000000
vn 1.000000 0.000000 0.000000
vn -1.000000 0.000000 0.000000
vn -1.000000 0.000000 0.000000
vn -1.000000 0.000000 0.000000
vn -1.000000 0.000000 0.000000
s off
g group1 pCube6
usemtl initialShadingGroup
f 279/414/919 280/415/920 282/417/921 281/416/922
f 281/416/923 282/417/924 284/419/925 283/418/926
f 283/418/927 284/419/928 286/421/929 285/420/930
f 285/420/931 286/421/932 280/423/933 279/422/934
f 280/415/935 286/424/936 284/425/937 282/417/938
f 285/426/939 279/414/940 281/416/941 283/427/942
g default
v 6.558187 6.030106 5.218163
v 6.954507 6.030106 5.218163
v 6.549175 6.252950 5.273068
v 6.945495 6.252950 5.273067
v 4.802029 1.251479 -7.653951
v 5.198348 1.251479 -7.653952
v 4.811041 1.108882 -7.653951
v 5.207360 1.108882 -7.653951
v -1.076232 6.030104 5.218163
v -0.679913 6.030104 5.218163
v -1.067219 6.252947 5.273067
v -0.670900 6.252947 5.273068
v 0.679913 1.251479 -7.653952
v 1.076232 1.251479 -7.653951
v 0.670900 1.108882 -7.653951
v 1.067219 1.108882 -7.653951
v 6.491754 6.032199 4.994125
v 6.888073 6.032199 4.994124
v 6.897085 5.889602 4.994123
v 6.500766 5.889602 4.994123
v -1.009801 6.032204 4.994143
v -0.613483 6.032204 4.994143
v -0.622495 5.889607 4.994144
v -1.018814 5.889607 4.994144
v 6.549175 7.401175 5.273068
v 6.945495 7.401175 5.273067
v 6.888073 7.221872 5.088485
v 6.491754 7.221872 5.088485
v -1.067219 7.401173 5.273067
v -0.670900 7.401173 5.273068
v -0.613483 7.221877 5.088503
v -1.009801 7.221877 5.088503
v 6.549175 7.098145 5.273068
v 6.945495 7.098145 5.273067
v 6.888073 6.970312 4.994124
v 6.491754 6.970312 4.994125
v -1.067219 7.083163 5.273067
v -0.670900 7.083163 5.273068
v -0.613483 6.955337 4.994143
v -1.009801 6.955337 4.994143
v 6.848837 8.062754 8.565658
v 7.245157 8.062754 8.565658
v 7.245157 8.365784 8.565658
v 6.848837 8.365784 8.565658
v -0.767563 8.047771 8.565658
v -0.371244 8.047771 8.565658
v -0.371244 8.365782 8.565658
v -0.767563 8.365782 8.565658
v 5.655903 3.499242 -1.329914
v 6.052223 3.499242 -1.329914
v 6.043211 3.641839 -1.329914
v 5.646892 3.641839 -1.329913
v 6.699006 7.580449 6.919363
v 7.095325 7.580449 6.919363
v 7.095325 7.883479 6.919363
v 6.699006 7.883479 6.919363
v -0.917391 7.565467 6.919363
v -0.521072 7.565467 6.919363
v -0.521072 7.883477 6.919363
v -0.917391 7.883477 6.919363
v -0.173957 3.499245 -1.329904
v 0.222362 3.499245 -1.329903
v 0.231375 3.641842 -1.329904
v -0.164944 3.641842 -1.329905
vt 0.417136 0.009278
vt 0.514061 0.009278
vt 0.417136 0.106203
vt 0.514061 0.106203
vt 0.417136 0.203127
vt 0.514061 0.203127
vt 0.417136 0.300052
vt 0.514061 0.300052
vt 0.417136 0.396976
vt 0.514061 0.396976
vt 0.610985 0.009278
vt 0.610985 0.106203
vt 0.320212 0.009278
vt 0.320212 0.106203
vt 0.107281 0.010177
vt 0.204429 0.010177
vt 0.204429 0.107324
vt 0.107281 0.107324
vt 0.204429 0.204472
vt 0.107281 0.204472
vt 0.204429 0.301619
vt 0.107281 0.301619
vt 0.204429 0.398766
vt 0.107281 0.398766
vt 0.301576 0.010177
vt 0.301576 0.107324
vt 0.010134 0.010177
vt 0.010134 0.107324
vt 0.413951 0.106203
vt 0.417136 0.109388
vt 0.514061 0.109388
vt 0.517246 0.106203
vt 0.514061 0.393790
vt 0.517246 0.009278
vt 0.413951 0.009278
vt 0.417136 0.393790
vt 0.104089 0.107324
vt 0.107281 0.110517
vt 0.204429 0.110517
vt 0.207622 0.107324
vt 0.204429 0.395574
vt 0.207622 0.010177
vt 0.104089 0.010177
vt 0.107281 0.395574
vt 0.417136 0.106203
vt 0.514061 0.106203
vt 0.514061 0.109388
vt 0.417136 0.109388
vt 0.107281 0.107324
vt 0.204429 0.107324
vt 0.204429 0.110517
vt 0.107281 0.110517
vt 0.417136 0.106203
vt 0.514061 0.106203
vt 0.514061 0.109388
vt 0.417136 0.109388
vt 0.107281 0.107324
vt 0.204429 0.107324
vt 0.204429 0.110517
vt 0.107281 0.110517
vt 0.417136 0.106203
vt 0.514061 0.106203
vt 0.514061 0.106203
vt 0.417136 0.106203
vt 0.107281 0.107324
vt 0.204429 0.107324
vt 0.204429 0.107324
vt 0.107281 0.107324
vt 0.367081 0.009278
vt 0.417136 0.346921
vt 0.514061 0.346921
vt 0.564116 0.009278
vt 0.514061 0.156258
vt 0.564116 0.106203
vt 0.367081 0.106203
vt 0.417136 0.156258
vt 0.417136 0.106203
vt 0.514061 0.106203
vt 0.514061 0.106203
vt 0.417136 0.106203
vt 0.107281 0.107324
vt 0.204429 0.107324
vt 0.204429 0.107324
vt 0.107281 0.107324
vt 0.057111 0.010177
vt 0.107281 0.348596
vt 0.204429 0.348596
vt 0.254599 0.010177
vt 0.204429 0.157494
vt 0.254599 0.107324
vt 0.057111 0.107324
vt 0.107281 0.157494
vn 0.000001 -0.239229 0.970963
vn 0.000001 -0.239229 0.970963
vn 0.000001 -0.052347 0.998629
vn 0.000001 -0.050322 0.998733
vn -0.000000 0.935410 -0.353566
vn -0.000000 0.935410 -0.353566
vn -0.000001 0.935410 -0.353566
vn -0.000001 0.935410 -0.353566
vn -0.000002 -0.000003 -1.000000
vn -0.000002 -0.000003 -1.000000
vn -0.000002 -0.000003 -1.000000
vn -0.000002 -0.000003 -1.000000
vn 0.000001 -0.935410 0.353566
vn 0.000001 -0.935410 0.353566
vn 0.000001 -0.932154 0.362062
vn 0.000001 -0.933272 0.359171
vn 0.983741 0.054166 -0.171227
vn 0.985354 0.063001 -0.158454
vn 0.985906 0.062312 -0.155264
vn 0.985906 0.062312 -0.155265
vn -0.985906 -0.062307 0.155264
vn -0.985906 -0.062307 0.155264
vn -0.985355 -0.062997 0.158453
vn -0.983742 -0.054162 0.171226
vn -0.000001 -0.239229 0.970963
vn -0.000001 -0.239229 0.970963
vn -0.000001 -0.051039 0.998697
vn -0.000001 -0.053085 0.998590
vn 0.000001 0.935410 -0.353566
vn 0.000001 0.935410 -0.353566
vn 0.000000 0.935410 -0.353566
vn 0.000000 0.935410 -0.353566
vn 0.000002 -0.000003 -1.000000
vn 0.000002 -0.000003 -1.000000
vn 0.000002 -0.000003 -1.000000
vn 0.000002 -0.000003 -1.000000
vn -0.000000 -0.935410 0.353566
vn -0.000000 -0.935410 0.353566
vn -0.000001 -0.933272 0.359171
vn -0.000001 -0.932154 0.362062
vn 0.983748 -0.054313 0.171143
vn 0.985354 -0.063002 0.158454
vn 0.985906 -0.062312 0.155264
vn 0.985906 -0.062312 0.155264
vn -0.985906 0.062312 -0.155264
vn -0.985906 0.062312 -0.155264
vn -0.985354 0.063001 -0.158454
vn -0.983748 0.054313 -0.171143
vn -0.000000 0.936694 -0.350148
vn -0.000000 0.943927 -0.330155
vn -0.000001 0.717291 -0.696774
vn -0.000001 0.717291 -0.696774
vn 0.955115 0.089535 -0.282382
vn 0.978606 0.004432 -0.205696
vn 0.000000 -0.847182 0.531302
vn 0.000000 -0.847182 0.531302
vn -0.955116 -0.089531 0.282380
vn -0.978606 -0.004432 0.205695
vn 0.000000 0.942136 -0.335232
vn 0.000000 0.939008 -0.343896
vn 0.000001 0.717272 -0.696793
vn 0.000001 0.717272 -0.696793
vn 0.955113 -0.089537 0.282388
vn 0.978592 -0.004504 0.205762
vn 0.000000 -0.847174 0.531316
vn 0.000000 -0.847174 0.531316
vn -0.955113 0.089537 -0.282388
vn -0.978592 0.004504 -0.205762
vn 0.000000 0.000000 1.000000
vn 0.000000 0.000000 1.000000
vn 0.000000 0.000000 1.000000
vn 0.000000 0.000000 1.000000
vn 0.989908 0.005132 -0.141618
vn 0.978244 0.003914 -0.207421
vn 0.962147 0.045713 -0.268672
vn 0.995025 0.002282 -0.099599
vn -0.000001 0.079068 -0.996869
vn -0.000001 0.079068 -0.996869
vn -0.000001 0.351206 -0.936298
vn -0.000001 0.351206 -0.936298
vn -0.978244 -0.003914 0.207420
vn -0.989908 -0.005132 0.141617
vn -0.995025 -0.002282 0.099599
vn -0.962147 -0.045713 0.268669
vn 0.000000 0.000000 1.000000
vn 0.000000 0.000000 1.000000
vn 0.000000 0.000000 1.000000
vn 0.000000 0.000000 1.000000
vn 0.999600 -0.005019 0.027848
vn 0.978161 -0.004035 0.207808
vn 0.962706 -0.043115 0.267094
vn 0.997341 -0.002178 -0.072847
vn 0.000002 0.079068 -0.996869
vn 0.000002 0.079068 -0.996869
vn 0.000002 0.333724 -0.942671
vn 0.000002 0.333724 -0.942671
vn -0.978161 0.004035 -0.207808
vn -0.999600 0.005019 -0.027848
vn -0.997341 0.002178 0.072847
vn -0.962706 0.043115 -0.267093
vn 0.000001 0.000000 1.000000
vn 0.000001 0.000000 1.000000
vn -0.000001 0.000000 -1.000000
vn -0.000001 0.000000 -1.000000
vn -0.000001 0.000000 1.000000
vn -0.000001 0.000000 1.000000
vn 0.000001 0.000000 -1.000000
vn 0.000001 0.000000 -1.000000
vn 0.000000 -0.959665 0.281146
vn 0.000000 -0.959665 0.281146
vn 0.000000 -0.959665 0.281147
vn 0.000000 -0.959665 0.281147
vn 0.995884 0.000000 -0.090637
vn 0.995884 0.000000 -0.090637
vn 0.995884 0.000000 -0.090637
vn 0.995884 0.000000 -0.090637
vn -0.000000 0.959665 -0.281146
vn -0.000000 0.959665 -0.281146
vn -0.000000 0.959665 -0.281147
vn -0.000000 0.959665 -0.281147
vn -0.995884 0.000000 0.090637
vn -0.995884 0.000000 0.090637
vn -0.995884 0.000000 0.090637
vn -0.995884 0.000000 0.090637
vn -0.000000 -0.959665 0.281147
vn -0.000000 -0.959665 0.281147
vn -0.000000 -0.959665 0.281147
vn -0.000000 -0.959665 0.281147
vn 0.995884 0.000000 -0.090635
vn 0.995884 0.000000 -0.090635
vn 0.995884 0.000000 -0.090635
vn 0.995884 0.000000 -0.090635
vn 0.000000 0.959665 -0.281147
vn 0.000000 0.959665 -0.281147
vn 0.000000 0.959665 -0.281147
vn 0.000000 0.959665 -0.281147
vn -0.995884 0.000000 0.090635
vn -0.995884 0.000000 0.090635
vn -0.995884 0.000000 0.090635
vn -0.995884 0.000000 0.090635
vn 0.000001 -0.935410 0.353566
vn 0.000001 -0.935410 0.353566
vn 0.985906 0.062312 -0.155264
vn 0.985906 0.062312 -0.155264
vn -0.000001 0.935409 -0.353566
vn -0.000001 0.935410 -0.353566
vn -0.985906 -0.062306 0.155264
vn -0.985906 -0.062306 0.155264
vn 0.000000 -0.959665 0.281146
vn 0.000000 -0.959665 0.281146
vn 0.000000 -0.959665 0.281147
vn 0.000000 -0.959665 0.281147
vn 0.000000 -0.935410 0.353566
vn 0.000000 -0.935410 0.353566
vn 0.985906 -0.062312 0.155264
vn 0.985906 -0.062312 0.155264
vn 0.000000 0.935410 -0.353566
vn 0.000000 0.935410 -0.353566
vn -0.985906 0.062312 -0.155264
vn -0.985906 0.062312 -0.155264
s 1
g group1 pCube5
usemtl initialShadingGroup
f 287/428/943 288/429/944 290/431/945 289/430/946
s 2
f 303/457/947 304/458/948 337/500/949 338/503/950
s off
f 291/432/951 292/433/952 294/435/953 293/434/954
s 3
f 335/497/955 336/498/956 305/460/957 306/463/958
s 4
f 304/459/959 305/461/960 336/499/961 337/501/962
s 5
f 338/502/963 335/496/964 306/462/965 303/456/966
s 6
f 295/442/967 296/443/968 298/444/969 297/445/970
s 7
f 307/465/971 308/466/972 349/516/973 350/519/974
s off
f 299/447/975 300/446/976 302/448/977 301/449/978
s 8
f 347/513/979 348/514/980 309/468/981 310/471/982
s 9
f 308/467/983 309/469/984 348/515/985 349/517/986
s 10
f 350/518/987 347/512/988 310/470/989 307/464/990
s 11
f 311/472/991 312/473/992 313/474/993 314/475/994
s 4
f 288/429/995 305/461/960 304/459/959 290/431/996
s 3
f 306/463/958 305/460/957 288/437/997 287/436/998
s 5
f 303/456/966 306/462/965 287/428/999 289/430/1000
s 12
f 315/476/1001 316/477/1002 317/478/1003 318/479/1004
s 9
f 296/443/1005 309/469/984 308/467/983 298/444/1006
s 8
f 310/471/982 309/468/981 296/450/1007 295/451/1008
s 10
f 307/464/990 310/470/989 295/442/1009 297/445/1010
s off
f 327/488/1011 328/489/1012 329/490/1013 330/491/1014
s 4
f 320/481/1015 321/482/1016 313/474/1017 312/473/1018
s 13
f 321/482/1019 322/483/1020 314/475/1021 313/474/1022
s 5
f 322/483/1023 319/480/1024 311/472/1025 314/475/1026
s off
f 331/492/1027 332/493/1028 333/494/1029 334/495/1030
s 9
f 324/485/1031 325/486/1032 317/478/1033 316/477/1034
s 14
f 325/486/1035 326/487/1036 318/479/1037 317/478/1038
s 10
f 326/487/1039 323/484/1040 315/476/1041 318/479/1042
s 1
f 289/430/946 290/431/945 320/481/1043 319/480/1044
s 4
f 290/431/996 304/458/959 321/482/1016 320/481/1015
s 13
f 304/458/1045 303/457/1046 322/483/1020 321/482/1019
s 5
f 303/457/966 289/430/1000 319/480/1024 322/483/1023
s 6
f 297/445/970 298/444/969 324/485/1047 323/484/1048
s 9
f 298/444/1006 308/466/983 325/486/1032 324/485/1031
s 14
f 308/466/1049 307/465/1050 326/487/1036 325/486/1035
s 10
f 307/465/990 297/445/1010 323/484/1040 326/487/1039
s 15
f 339/504/1051 340/505/1052 328/489/1053 327/488/1054
s 4
f 340/505/1055 341/506/1056 329/490/1057 328/489/1058
s 11
f 341/506/1059 342/507/1060 330/491/1061 329/490/1062
s 5
f 342/507/1063 339/504/1064 327/488/1065 330/491/1066
s 16
f 343/508/1067 344/509/1068 332/493/1069 331/492/1070
s 9
f 344/509/1071 345/510/1072 333/494/1073 332/493/1074
s 12
f 345/510/1075 346/511/1076 334/495/1077 333/494/1078
s 10
f 346/511/1079 343/508/1080 331/492/1081 334/495/1082
s 3
f 293/434/1083 294/435/1084 336/498/956 335/497/955
s 4
f 337/501/962 336/499/961 294/438/1085 292/439/1086
s 2
f 338/503/950 337/500/949 292/433/1087 291/432/1088
s 5
f 293/440/1089 335/496/964 338/502/963 291/441/1090
s 15
f 319/480/1091 320/481/1092 340/505/1052 339/504/1051
s 4
f 320/481/1015 312/473/1018 341/506/1056 340/505/1055
s 11
f 312/473/992 311/472/991 342/507/1060 341/506/1059
s 5
f 311/472/1025 319/480/1024 339/504/1064 342/507/1063
s 16
f 323/484/1093 324/485/1094 344/509/1068 343/508/1067
s 9
f 324/485/1031 316/477/1034 345/510/1072 344/509/1071
s 12
f 316/477/1002 315/476/1001 346/511/1076 345/510/1075
s 10
f 315/476/1041 323/484/1040 343/508/1080 346/511/1079
s 8
f 301/449/1095 302/448/1096 348/514/980 347/513/979
s 9
f 349/517/986 348/515/985 302/452/1097 300/453/1098
s 7
f 350/519/974 349/516/973 300/446/1099 299/447/1100
s 10
f 301/454/1101 347/512/988 350/518/987 299/455/1102
g default
v -0.743680 5.378172 3.211044
v 6.639847 5.378172 3.211044
v -0.743680 6.826138 3.996627
v 6.639847 6.826138 3.996627
v 0.341254 7.001649 -5.009853
v 5.554913 7.001649 -5.009853
v 0.341254 3.213795 -2.486230
v 5.554913 3.213795 -2.486230
v 0.781254 5.378172 3.211044
v 2.948084 5.378172 3.211044
v 5.114912 5.378172 3.211044
v 5.010432 2.741450 -3.752276
v 2.948084 2.741450 -4.142647
v 0.885734 2.741450 -3.752276
v 5.010432 7.001649 -6.275899
v 2.948084 7.001649 -6.666271
v 0.885734 7.001649 -6.275899
v 5.114912 6.826138 3.996627
v 2.948084 6.826138 3.996627
v 0.781254 6.826138 3.996627
v 5.084553 6.826138 3.701758
v 4.854523 7.001650 -6.007806
v 6.258169 6.826141 3.727901
v 5.377957 7.001650 -4.769674
v -0.362003 6.826141 3.727901
v 0.811615 6.826138 3.701758
v 1.041644 7.001650 -6.007806
v 0.518208 7.001650 -4.769674
v 2.948083 7.001650 -6.410229
v 2.948083 6.826138 3.675616
v 5.084552 5.435040 2.916181
v 4.854522 3.041011 -3.484178
v 6.258167 5.435042 2.942323
v 5.377955 3.513356 -2.246046
v -0.362001 5.435042 2.942323
v 0.811616 5.435040 2.916181
v 1.041645 3.041011 -3.484178
v 0.518211 3.513356 -2.246046
v 2.948083 3.041011 -3.886601
v 2.948083 5.435040 2.890038
v -0.201213 6.913893 -0.506613
v 0.078103 6.913895 -0.520887
v 0.078105 4.474199 0.348139
v 0.926630 4.238025 -0.283999
v 2.948083 4.238025 -0.498281
v 4.969537 4.238025 -0.283999
v 5.818061 4.474199 0.348139
v 5.818063 6.913895 -0.520887
v 6.097380 6.913893 -0.506613
v 6.097380 4.295984 0.362407
v 5.062672 4.059811 -0.270616
v 2.948084 4.059811 -0.465801
v 0.833494 4.059811 -0.270616
v -0.201213 4.295984 0.362407
v 0.070020 3.754889 -1.061911
v 0.859614 3.400630 -2.011446
v 2.948084 3.400630 -2.304224
v 5.036552 3.400630 -2.011446
v 5.826146 3.754889 -1.061912
v 5.826146 6.957771 -2.758233
v 5.598010 6.957773 -2.645281
v 5.598008 3.993778 -0.948954
v 4.912029 3.639518 -1.884088
v 2.948083 3.639518 -2.192441
v 0.984138 3.639518 -1.884088
v 0.298158 3.993778 -0.948954
v 0.298156 6.957773 -2.645281
v 0.070020 6.957771 -2.758233
v 5.084552 6.130589 3.308969
v 6.258169 6.130591 3.335112
v 5.818062 5.694047 -0.086374
v 5.598009 5.475775 -1.797117
v 5.377956 5.257503 -3.507860
v 4.854522 5.021331 -4.745993
v 2.948083 5.021331 -5.148415
v 1.041644 5.021331 -4.745993
v 0.518210 5.257503 -3.507860
v 0.298157 5.475775 -1.797117
v 0.078104 5.694047 -0.086374
v -0.362002 6.130591 3.335112
v 0.811615 6.130589 3.308969
v 2.948083 6.130589 3.282828
v -0.743680 5.595418 3.328909
v -0.743680 6.608894 3.878762
v 0.781254 6.556202 3.850174
v 0.781254 5.648109 3.357496
v 2.948084 6.556202 3.850174
v 2.948084 5.648109 3.357496
v 5.114912 6.556202 3.850174
v 5.114912 5.648109 3.357496
v 6.639847 6.608894 3.878762
v 6.639847 5.595418 3.328909
v 6.097380 6.103624 -0.237643
v 6.097380 5.106253 0.093437
v 5.554913 4.638695 -3.435557
v 5.554913 5.576759 -4.060534
v 5.010432 5.329010 -5.285074
v 5.010432 4.414089 -4.743101
v 2.948084 5.318000 -5.668923
v 2.948084 4.425098 -5.139994
v 0.885734 5.329010 -5.285074
v 0.885734 4.414089 -4.743101
v 0.341254 5.576759 -4.060534
v 0.341254 4.638695 -3.435557
v 0.070020 5.842066 -2.167330
v 0.070020 4.870594 -1.652815
v 5.826146 4.870594 -1.652815
v 5.826146 5.842066 -2.167330
v -0.201213 5.106253 0.093437
v -0.201213 6.103624 -0.237643
vt 0.469567 0.702826
vt 0.471133 0.655244
vt 0.501183 0.654840
vt 0.498520 0.701878
vt 0.468291 0.607721
vt 0.497258 0.607892
vt 0.160048 0.508550
vt 0.287974 0.703974
vt 0.314477 0.705437
vt 0.165411 0.489187
vt 0.117559 0.482899
vt 0.124110 0.504298
vt 0.124086 0.675180
vt 0.117530 0.696577
vt 0.164534 0.687672
vt 0.315168 0.614503
vt 0.288646 0.615563
vt 0.159342 0.668263
vt 0.284824 0.659742
vt 0.312392 0.659951
vt 0.430728 0.539364
vt 0.430723 0.568305
vt 0.203799 0.431155
vt 0.535928 0.549993
vt 0.222601 0.481228
vt 0.056279 0.474740
vt 0.046774 0.501582
vt 0.232065 0.506235
vt 0.037248 0.528422
vt 0.032524 0.547107
vt 0.246397 0.549340
vt 0.241545 0.531239
vt 0.075104 0.758474
vt 0.430742 0.457117
vt 0.535937 0.463742
vt 0.536035 0.440058
vt 0.032512 0.632345
vt 0.037231 0.651031
vt 0.383941 0.555408
vt 0.246048 0.628237
vt 0.231335 0.671214
vt 0.046750 0.677875
vt 0.056247 0.704719
vt 0.221649 0.696136
vt 0.031062 0.589726
vt 0.247826 0.588796
vt 0.430735 0.498240
vt 0.535841 0.506867
vt 0.519336 0.549992
vt 0.189950 0.440822
vt 0.502833 0.573682
vt 0.502744 0.549990
vt 0.194005 0.485196
vt 0.196056 0.507387
vt 0.198110 0.529575
vt 0.197766 0.549110
vt 0.149132 0.548913
vt 0.154673 0.527911
vt 0.519441 0.440041
vt 0.519346 0.463738
vt 0.502754 0.463738
vt 0.174855 0.726503
vt 0.197417 0.628037
vt 0.197588 0.647575
vt 0.154139 0.648855
vt 0.148783 0.627804
vt 0.195338 0.669744
vt 0.193091 0.691916
vt 0.199195 0.588581
vt 0.150572 0.588366
vt 0.519249 0.506865
vt 0.502656 0.506863
vt 0.463101 0.539369
vt 0.104539 0.440073
vt 0.463108 0.498246
vt 0.463115 0.457122
vt 0.463120 0.428181
vt 0.130658 0.653784
vt 0.136395 0.632357
vt 0.134935 0.589740
vt 0.136407 0.547124
vt 0.130676 0.525696
vt 0.100076 0.742244
vt 0.435604 0.428176
vt 0.075215 0.702216
vt 0.098566 0.699107
vt 0.457080 0.457121
vt 0.436777 0.457118
vt 0.457073 0.498245
vt 0.436770 0.498241
vt 0.457066 0.539368
vt 0.436763 0.539365
vt 0.458239 0.568310
vt 0.079554 0.423863
vt 0.098596 0.480363
vt 0.075246 0.477248
vt 0.097171 0.503347
vt 0.073714 0.502521
vt 0.095529 0.526721
vt 0.072392 0.527397
vt 0.095619 0.547104
vt 0.073309 0.547100
vt 0.093885 0.589735
vt 0.072116 0.589732
vt 0.095607 0.632365
vt 0.073298 0.632363
vt 0.095512 0.652748
vt 0.072375 0.652066
vt 0.097147 0.676123
vt 0.073690 0.676943
vt 0.356784 0.565444
vt 0.387182 0.559364
vt 0.355259 0.560344
vt 0.241036 0.646295
vt 0.304339 0.600281
vt 0.282876 0.605036
vt 0.303432 0.719492
vt 0.282045 0.714411
vt 0.355255 0.441827
vt 0.383938 0.446760
vt 0.356780 0.436727
vt 0.387178 0.442804
vt 0.483024 0.719820
vt 0.459385 0.726216
vt 0.481287 0.590372
vt 0.457484 0.584612
vt 0.409875 0.573083
vt 0.412102 0.739019
vt 0.326383 0.430649
vt 0.326572 0.436893
vt 0.324818 0.724582
vt 0.325799 0.595518
vt 0.326576 0.565279
vt 0.326387 0.571523
vt 0.368213 0.612357
vt 0.367524 0.660370
vt 0.262124 0.616615
vt 0.257256 0.659532
vt 0.367483 0.708389
vt 0.261472 0.702519
vt 0.368724 0.585980
vt 0.367593 0.734770
vt 0.481066 0.528878
vt 0.481299 0.496836
vt 0.400647 0.543705
vt 0.406075 0.501084
vt 0.481059 0.464795
vt 0.400644 0.458462
vt 0.480831 0.546480
vt 0.269206 0.427027
vt 0.265593 0.583685
vt 0.478397 0.529334
vt 0.404264 0.547191
vt 0.410355 0.607355
vt 0.505091 0.596124
vt 0.526224 0.608054
vt 0.506666 0.713431
vt 0.527471 0.700937
vt 0.404261 0.454976
vt 0.478388 0.441470
vt 0.478390 0.464340
vt 0.411663 0.704746
vt 0.478394 0.496837
vt 0.409530 0.501083
vt 0.531234 0.654437
vt 0.411036 0.656050
vt 0.463096 0.568310
vt 0.100119 0.437227
vt 0.435580 0.568306
vt 0.265587 0.418491
vt 0.075150 0.420990
vt 0.519425 0.573683
vt 0.176075 0.450446
vt 0.480821 0.447194
vt 0.536017 0.573685
vt 0.458263 0.428180
vt 0.104497 0.739399
vt 0.430747 0.428175
vt 0.079508 0.755602
vt 0.188642 0.736259
vt 0.502849 0.440050
vt 0.202415 0.746039
vt 0.478399 0.552204
vt 0.269211 0.575149
vn -0.017581 -0.937224 0.348284
vn -0.000000 -0.938313 0.345788
vn -0.000000 -0.938254 0.345948
vn -0.039742 -0.936775 0.347668
vn 0.017581 -0.937224 0.348284
vn 0.039742 -0.936775 0.347668
vn -0.006138 0.937300 -0.348469
vn 0.040051 0.938423 -0.343160
vn 0.020889 0.938904 -0.343543
vn 0.003274 0.937018 -0.349265
vn -0.001918 -0.934965 0.354734
vn -0.006206 -0.934815 0.355080
vn 0.006206 -0.934815 0.355080
vn 0.001918 -0.934965 0.354734
vn -0.003274 0.937018 -0.349265
vn -0.020889 0.938904 -0.343543
vn -0.040051 0.938423 -0.343160
vn 0.006138 0.937300 -0.348468
vn 0.000000 0.939571 -0.342353
vn 0.000000 0.939717 -0.341954
vn -0.000000 1.000000 0.000002
vn -0.008094 0.999788 0.018918
vn -0.006663 0.999857 0.015575
vn -0.000000 1.000000 0.000002
vn -0.004550 0.999778 0.020560
vn -0.005991 0.999767 0.020721
vn 0.009770 0.999773 0.018952
vn 0.008953 0.999779 0.019044
vn 0.007693 0.999932 0.008820
vn 0.000001 1.000000 -0.000001
vn 0.000001 1.000000 -0.000002
vn 0.010571 0.999871 0.012120
vn 0.008094 0.999788 0.018918
vn 0.000000 1.000000 0.000002
vn 0.000000 1.000000 0.000002
vn 0.006663 0.999857 0.015575
vn -0.000001 1.000000 -0.000002
vn -0.007693 0.999932 0.008819
vn -0.010571 0.999871 0.012120
vn -0.000001 1.000000 -0.000002
vn -0.008953 0.999779 0.019044
vn -0.009770 0.999773 0.018952
vn 0.005991 0.999767 0.020721
vn 0.004550 0.999778 0.020560
vn 0.000000 1.000000 -0.000002
vn -0.000000 1.000000 -0.000002
vn 0.000000 1.000000 0.000000
vn 0.000000 1.000000 0.000000
vn 0.013752 0.491681 -0.870667
vn 0.019392 0.491635 -0.870586
vn 0.019392 0.491634 -0.870586
vn 0.013745 0.491681 -0.870667
vn -0.989984 0.036656 0.136339
vn -0.991892 0.026015 0.124396
vn -0.990596 0.067962 0.118749
vn -0.989026 0.074996 0.127293
vn -0.961606 0.152958 0.227855
vn -0.911237 0.231041 0.340979
vn -0.919421 0.220604 0.325575
vn -0.955522 0.164587 0.244724
vn -0.019392 0.491635 -0.870586
vn -0.013752 0.491681 -0.870667
vn -0.013745 0.491681 -0.870667
vn -0.019392 0.491634 -0.870586
vn 0.911237 0.231041 0.340979
vn 0.961606 0.152958 0.227856
vn 0.955521 0.164587 0.244724
vn 0.919421 0.220604 0.325576
vn 0.989026 0.074996 0.127293
vn 0.990596 0.067962 0.118749
vn 0.991892 0.026015 0.124395
vn 0.989984 0.036656 0.136339
vn -0.175264 0.529046 0.830297
vn -0.000000 0.537364 0.843351
vn 0.000000 0.537364 0.843351
vn -0.175264 0.529046 0.830297
vn 0.000000 0.491727 -0.870749
vn 0.000000 0.491727 -0.870749
vn 0.175264 0.529046 0.830297
vn 0.175264 0.529046 0.830297
vn 0.992462 0.002670 0.122527
vn 0.989564 0.003139 0.144063
vn -0.004291 0.936983 -0.349349
vn -0.014980 0.938808 -0.344114
vn 0.000000 0.939765 -0.341823
vn 0.014980 0.938808 -0.344114
vn 0.004291 0.936983 -0.349349
vn -0.992462 0.002670 0.122528
vn -0.989564 0.003139 0.144064
vn -0.010792 -0.937124 0.348830
vn -0.001451 -0.934981 0.354696
vn 0.000000 -0.938332 0.345735
vn 0.010792 -0.937124 0.348830
vn 0.001451 -0.934981 0.354696
vn 0.011272 -0.934616 0.355480
vn 0.053769 -0.936639 0.346144
vn -0.000000 -0.938235 0.345999
vn -0.053769 -0.936639 0.346144
vn -0.011272 -0.934616 0.355480
vn 0.058162 0.937822 -0.342209
vn -0.016168 0.937509 -0.347585
vn 0.000000 0.939522 -0.342487
vn -0.058162 0.937822 -0.342209
vn 0.016168 0.937509 -0.347585
vn 0.013760 0.491681 -0.870667
vn 0.019392 0.491634 -0.870586
vn -0.993490 0.002482 0.113896
vn -0.993252 0.027186 0.112746
vn -0.991682 0.065460 0.110825
vn -0.951201 0.172322 0.255970
vn -0.901639 0.242601 0.358040
vn -0.175264 0.529046 0.830297
vn -0.000000 0.537364 0.843351
vn 0.175264 0.529046 0.830297
vn 0.901638 0.242602 0.358040
vn 0.951201 0.172322 0.255971
vn 0.991682 0.065460 0.110825
vn 0.993252 0.027186 0.112746
vn 0.993490 0.002482 0.113896
vn -0.019392 0.491635 -0.870586
vn -0.013760 0.491681 -0.870667
vn 0.000000 0.491727 -0.870749
vn -0.988352 0.008739 -0.151935
vn -0.990827 -0.002430 -0.135117
vn -0.990466 -0.020999 -0.136150
vn -0.988257 -0.024726 -0.150785
vn 0.000000 -0.476878 0.878970
vn 0.000000 -0.476878 0.878970
vn 0.000000 -0.476878 0.878970
vn 0.000000 -0.476878 0.878970
vn 0.000000 -0.476878 0.878970
vn 0.000000 -0.476878 0.878970
vn -0.000000 -0.476878 0.878970
vn -0.000000 -0.476878 0.878970
vn -0.000000 -0.476878 0.878970
vn -0.000000 -0.476878 0.878970
vn 0.990827 -0.002430 -0.135117
vn 0.988352 0.008739 -0.151935
vn 0.988257 -0.024726 -0.150785
vn 0.990466 -0.020999 -0.136150
vn 0.986958 -0.074894 -0.142492
vn 0.989106 -0.068475 -0.130313
vn 0.959914 -0.147649 -0.238253
vn 0.961130 -0.145451 -0.234677
vn 0.916363 -0.212825 -0.339094
vn 0.903913 -0.227387 -0.362267
vn 0.160738 -0.503035 -0.849187
vn 0.160738 -0.503035 -0.849187
vn 0.000000 -0.509662 -0.860375
vn -0.000000 -0.509662 -0.860375
vn -0.160738 -0.503035 -0.849187
vn -0.160738 -0.503035 -0.849187
vn -0.903913 -0.227387 -0.362266
vn -0.916363 -0.212824 -0.339094
vn -0.959914 -0.147649 -0.238253
vn -0.961130 -0.145451 -0.234677
vn -0.986958 -0.074894 -0.142492
vn -0.989106 -0.068475 -0.130313
vn 0.991407 -0.038934 -0.124885
vn 0.989675 -0.069284 -0.125469
vn -0.989675 -0.069284 -0.125469
vn -0.991407 -0.038934 -0.124885
vn 0.000000 -0.476878 0.878969
vn 0.000000 -0.476878 0.878969
vn 0.899528 -0.231897 -0.370234
vn 0.949790 -0.165282 -0.265670
vn -0.949790 -0.165282 -0.265670
vn -0.899528 -0.231897 -0.370233
vn 0.000000 -0.476878 0.878969
vn 0.000000 -0.476878 0.878969
vn -0.000000 -0.509662 -0.860375
vn 0.160738 -0.503035 -0.849187
vn -0.160738 -0.503035 -0.849187
vn 0.000000 -0.476878 0.878969
vn 0.000000 -0.476878 0.878970
vn 0.000000 -0.476878 0.878970
vn 0.000000 -0.476878 0.878970
vn 0.000000 -0.476878 0.878970
vn 0.000000 -0.476878 0.878970
vn 0.986001 -0.052694 -0.158193
vn 0.985674 -0.081673 -0.147568
vn 0.919710 -0.208400 -0.332720
vn 0.952394 -0.160979 -0.258904
vn 0.160738 -0.503035 -0.849187
vn 0.000000 -0.509662 -0.860375
vn -0.160738 -0.503035 -0.849187
vn -0.919710 -0.208400 -0.332720
vn -0.952394 -0.160979 -0.258904
vn -0.985674 -0.081673 -0.147568
vn -0.986001 -0.052693 -0.158193
vn 0.992116 -0.018234 -0.123992
vn 0.985256 -0.024892 -0.169264
vn -0.985256 -0.024892 -0.169265
vn -0.992116 -0.018234 -0.123992
s 1
g group1 pCube4
usemtl initialShadingGroup
f 401/520/1103 402/521/1104 407/522/1105 408/523/1106
f 402/521/1104 403/524/1107 406/525/1108 407/522/1105
s 2
f 412/636/1109 413/527/1110 396/528/1111 397/650/1112
s 1
f 400/643/1113 401/520/1103 408/523/1106 409/642/1114
f 405/644/1115 406/525/1108 403/524/1107 404/645/1116
s 2
f 393/651/1117 394/535/1118 415/536/1119 416/634/1120
f 413/527/1110 414/538/1121 395/539/1122 396/528/1111
f 414/538/1121 415/536/1119 394/535/1118 395/539/1122
s 4
f 368/680/1123 354/679/1124 373/693/1125 371/666/1126
f 398/649/1127 399/648/1128 410/640/1129 411/638/1130
f 356/641/1131 365/678/1132 372/667/1133 374/639/1134
f 353/702/1135 370/671/1136 376/662/1137 375/668/1138
f 367/672/1139 355/631/1140 378/558/1141 377/664/1142
f 417/632/1143 418/630/1144 391/653/1145 392/652/1146
f 365/678/1132 366/683/1147 379/665/1148 372/667/1133
f 369/682/1149 368/680/1123 371/666/1126 380/663/1150
f 366/683/1147 367/672/1139 377/664/1142 379/665/1148
f 370/671/1136 369/682/1149 380/663/1150 376/662/1137
s 8
f 419/568/1151 420/691/1152 383/570/1153 381/571/1154
s 9
f 397/529/1155 421/572/1156 422/573/1157 412/526/1158
f 423/574/1159 424/575/1160 382/576/1161 384/577/1162
s 8
f 430/578/1163 431/579/1164 386/580/1165 385/700/1166
s 12
f 426/582/1167 427/583/1168 388/584/1169 387/585/1170
f 416/537/1171 428/586/1172 429/587/1173 393/534/1174
s 13
f 424/575/1175 425/588/1176 389/589/1177 382/576/1178
s 8
f 432/590/1179 419/568/1151 381/571/1154 390/591/1180
s 13
f 425/588/1176 426/582/1181 387/585/1182 389/589/1177
s 8
f 431/579/1164 432/590/1179 390/591/1180 386/580/1165
s 4
f 392/652/1146 391/653/1145 353/670/1135 375/703/1138
s 12
f 393/534/1174 429/587/1173 430/699/1183 385/581/1184
s 2
f 385/660/1185 386/654/1186 394/535/1118 393/651/1117
f 395/539/1122 394/535/1118 386/654/1186 390/655/1187
f 396/528/1111 395/539/1122 390/655/1187 381/658/1188
f 397/650/1112 396/528/1111 381/658/1188 383/661/1189
s 9
f 420/569/1190 421/572/1156 397/529/1155 383/692/1191
s 4
f 354/689/1124 399/648/1128 398/649/1127 373/669/1125
s 1
f 361/681/1192 401/520/1103 400/643/1113 352/647/1193
f 361/681/1192 360/685/1194 402/521/1104 401/520/1103
f 360/685/1194 359/673/1195 403/524/1107 402/521/1104
f 404/645/1116 403/524/1107 359/673/1195 351/646/1196
f 357/674/1197 364/675/1198 406/525/1108 405/644/1115
f 407/522/1105 406/525/1108 364/675/1198 363/684/1199
f 408/523/1106 407/522/1105 363/684/1199 362/677/1200
f 409/642/1114 408/523/1106 362/677/1200 358/676/1201
s 4
f 411/638/1130 410/640/1129 356/641/1131 374/639/1134
s 9
f 412/526/1158 422/573/1157 423/574/1159 384/577/1162
s 2
f 382/659/1202 413/527/1110 412/636/1109 384/637/1203
f 382/659/1202 389/657/1204 414/538/1121 413/527/1110
f 389/657/1204 387/656/1205 415/536/1119 414/538/1121
f 416/634/1120 415/536/1119 387/656/1205 388/635/1206
s 12
f 427/583/1168 428/586/1172 416/537/1171 388/584/1169
s 4
f 355/631/1140 418/630/1144 417/632/1143 378/558/1141
s 8
f 371/543/1207 373/694/1208 420/691/1152 419/568/1151
s 9
f 373/542/1209 398/544/1210 421/572/1156 420/569/1190
f 422/573/1157 421/572/1156 398/544/1210 411/547/1211
f 423/574/1159 422/573/1157 411/547/1211 374/551/1212
f 374/551/1212 372/550/1213 424/575/1160 423/574/1159
s 13
f 372/550/1214 379/565/1215 425/588/1176 424/575/1175
f 379/565/1215 377/559/1216 426/582/1181 425/588/1176
s 12
f 377/559/1217 378/633/1218 427/583/1168 426/582/1167
f 378/633/1218 417/560/1219 428/586/1172 427/583/1168
f 429/587/1173 428/586/1172 417/560/1219 392/563/1220
f 430/699/1183 429/587/1173 392/563/1220 375/701/1221
s 8
f 375/555/1222 376/554/1223 431/579/1164 430/578/1163
f 376/554/1223 380/567/1224 432/590/1179 431/579/1164
f 380/567/1224 371/543/1207 419/568/1151 432/590/1179
s 14
f 433/602/1225 434/698/1226 460/604/1227 459/605/1228
s 15
f 434/603/1229 433/695/1230 436/606/1231 435/607/1232
f 435/607/1232 436/606/1231 438/608/1233 437/609/1234
f 437/609/1234 438/608/1233 440/610/1235 439/611/1236
f 439/611/1236 440/610/1235 442/612/1237 441/688/1238
s 16
f 441/613/1239 442/687/1240 444/614/1241 443/615/1242
f 443/615/1242 444/614/1241 457/616/1243 458/617/1244
f 445/618/1245 446/619/1246 458/617/1244 457/616/1243
f 446/619/1246 445/618/1245 448/620/1247 447/621/1248
s 17
f 447/621/1249 448/620/1250 450/622/1251 449/623/1252
f 449/623/1252 450/622/1251 452/624/1253 451/625/1254
s 14
f 451/625/1255 452/624/1256 454/626/1257 453/627/1258
f 453/627/1258 454/626/1257 456/628/1259 455/629/1260
f 455/629/1260 456/628/1259 459/605/1228 460/604/1227
s 16
f 399/545/1261 443/615/1242 458/617/1244 410/546/1262
s 14
f 418/561/1263 455/629/1260 460/604/1227 391/562/1264
s 15
f 368/540/1265 439/611/1236 441/688/1238 354/541/1266
s 16
f 446/619/1246 447/621/1248 365/549/1267 356/548/1268
s 14
f 355/557/1269 367/556/1270 451/625/1255 453/627/1258
s 15
f 434/603/1229 435/607/1232 370/553/1271 353/697/1272
s 17
f 447/621/1249 449/623/1252 366/564/1273 365/549/1274
f 449/623/1252 451/625/1254 367/556/1275 366/564/1273
s 15
f 435/607/1232 437/609/1234 369/566/1276 370/553/1271
f 437/609/1234 439/611/1236 368/540/1265 369/566/1276
f 351/596/1277 359/595/1278 436/606/1231 433/695/1230
f 359/595/1278 360/594/1279 438/608/1233 436/606/1231
f 360/594/1279 361/592/1280 440/610/1235 438/608/1233
f 442/612/1237 440/610/1235 361/592/1280 352/686/1281
s 16
f 444/614/1241 400/530/1282 409/531/1283 457/616/1243
f 362/600/1284 448/620/1247 445/618/1245 358/601/1285
s 17
f 362/600/1286 363/599/1287 450/622/1251 448/620/1250
f 363/599/1287 364/598/1288 452/624/1253 450/622/1251
s 14
f 454/626/1257 452/624/1256 364/598/1289 357/597/1290
f 456/628/1259 405/532/1291 404/533/1292 459/605/1228
s 16
f 441/613/1239 443/615/1242 399/545/1261 354/690/1293
f 352/593/1294 400/530/1282 444/614/1241 442/687/1240
s 14
f 459/605/1228 404/533/1292 351/696/1295 433/602/1225
f 391/562/1264 460/604/1227 434/698/1226 353/552/1296
s 16
f 457/616/1243 409/531/1283 358/601/1285 445/618/1245
f 410/546/1262 458/617/1244 446/619/1246 356/548/1268
s 14
f 453/627/1258 455/629/1260 418/561/1263 355/557/1269
f 357/597/1290 405/532/1291 456/628/1259 454/626/1257
